<svg width="59" height="59" viewBox="0 0 59 59" fill="none" xmlns="http://www.w3.org/2000/svg">
<path fill-rule="evenodd" clip-rule="evenodd" d="M27.1902 1.03643C27.0908 1.05425 26.7835 1.08989 26.5073 1.11564C25.4671 1.21268 24.5357 1.36479 23.2937 1.64049C22.5428 1.80716 22.4382 1.83351 21.5462 2.08093C21.1246 2.19788 20.4761 2.40816 19.9796 2.58888C19.6343 2.71459 18.8839 3.00091 18.7745 3.04871C18.7303 3.06802 18.432 3.19519 18.1117 3.33124C16.6695 3.94387 14.9218 4.90674 13.5322 5.85429C11.9753 6.91592 10.7309 7.9496 9.35699 9.3223C7.27114 11.4063 5.61548 13.6518 4.26655 16.2259C2.92626 18.7835 1.99033 21.4827 1.48495 24.2477C1.31635 25.1701 1.20641 25.9708 1.12309 26.8827C1.10088 27.1261 1.06384 27.5253 1.04086 27.7697C0.987999 28.3315 0.98587 30.6543 1.03773 31.1874C1.05926 31.4086 1.09658 31.816 1.12068 32.0926C1.37701 35.0347 2.12808 38.0146 3.30069 40.7421C3.74618 41.7783 4.22807 42.7501 4.74687 43.6588C7.06137 47.7125 10.4961 51.2809 14.4562 53.7458C15.6658 54.4987 17.4219 55.4056 18.4572 55.812C18.6096 55.8719 18.7515 55.9363 18.7725 55.9551C18.7934 55.9739 18.8343 55.9893 18.8633 55.9893C18.8923 55.9893 18.9926 56.0242 19.0862 56.0668C19.4896 56.2504 20.8825 56.7304 21.5462 56.9145C22.4295 57.1595 22.5429 57.1881 23.2937 57.3565C24.3037 57.5831 25.5812 57.7917 26.5073 57.8815C26.7614 57.9061 27.0792 57.943 27.2136 57.9635C27.533 58.0123 31.4905 58.0121 31.773 57.9632C31.8926 57.9425 32.2165 57.9048 32.4927 57.8792C33.9014 57.7493 35.5694 57.4353 37.1023 57.0117C37.2293 56.9766 37.3875 56.933 37.4538 56.9149C38.0744 56.7447 39.6932 56.1793 40.2255 55.9467C40.2697 55.9274 40.568 55.8002 40.8883 55.6642C42.3305 55.0515 44.0782 54.0887 45.4678 53.1411C48.1364 51.3213 50.4601 49.0925 52.3854 46.5056C52.9365 45.7653 54.0642 44.0674 54.0642 43.9781C54.0642 43.9692 54.1349 43.8463 54.2213 43.7049C54.4341 43.3568 54.9945 42.2825 55.2843 41.6674C56.0819 39.9743 56.7532 38.0793 57.1797 36.3167C57.3453 35.6326 57.4062 35.3484 57.5156 34.7478C57.6836 33.8268 57.7938 33.0228 57.8769 32.1127C57.8991 31.8693 57.9362 31.4702 57.9591 31.2258C58.012 30.6639 58.0141 28.3411 57.9623 27.808C57.9407 27.5868 57.9034 27.1794 57.8793 26.9029C57.7166 25.0353 57.2948 22.8562 56.7718 21.182C55.9132 18.433 54.8439 16.1547 53.313 13.8125C51.1111 10.4437 47.9861 7.39221 44.5438 5.24963C43.4802 4.58756 41.7608 3.69014 40.7477 3.26832C40.5489 3.18553 40.3337 3.09264 40.2695 3.0619C40.2054 3.03121 40.1374 3.00606 40.1185 3.00606C40.0995 3.00606 40.0074 2.97118 39.9138 2.92858C39.5002 2.74038 38.1341 2.26965 37.4538 2.08093C36.5677 1.83516 36.4595 1.8078 35.7063 1.63888C34.6963 1.41234 33.4188 1.20367 32.4927 1.11395C32.2386 1.08933 31.9208 1.0524 31.7864 1.03188C31.4907 0.986704 27.4454 0.990727 27.1902 1.03643ZM29.5548 1.28964C29.5792 1.31917 29.6688 1.4685 29.7538 1.62154C29.9874 2.04202 30.0499 2.1525 31.2343 4.24061L32.3339 6.17919L32.2528 6.31247C32.1498 6.48164 32.1488 6.72153 32.2503 6.88607L32.3293 7.01409L32.1167 7.37358C31.9998 7.57131 31.745 8.00468 31.5505 8.33658C31.3561 8.66848 31.1476 9.0215 31.0871 9.12107C31.0266 9.22064 30.8183 9.57366 30.6241 9.90556C30.4299 10.2375 30.1907 10.6429 30.0924 10.8067C29.9941 10.9704 29.882 11.1605 29.8433 11.2291C29.8045 11.2977 29.5958 11.6526 29.3795 12.0176C29.1632 12.3827 28.9545 12.7376 28.9157 12.8062C28.877 12.8748 28.7649 13.0649 28.6666 13.2286C28.5683 13.3924 28.3284 13.7978 28.1335 14.1297C27.4194 15.3456 27.2421 15.6465 26.1782 17.4487C25.9235 17.8802 25.5273 18.55 25.2977 18.9373L24.8804 19.6413L24.7218 19.6542C24.534 19.6696 24.3603 19.7834 24.2762 19.9462L24.2155 20.0637H20.8633H17.5112L17.4499 19.945C17.3671 19.7846 17.3667 19.7861 17.5481 19.4871C17.6358 19.3425 17.9546 18.8021 18.2566 18.2862C18.5585 17.7703 18.9593 17.0857 19.1473 16.7648C19.3354 16.444 19.6103 15.9733 19.7583 15.7188C20.6825 14.1299 20.6411 14.1901 20.8113 14.1901C21.0934 14.1901 21.3253 13.9333 21.3253 13.621C21.3253 13.5234 21.2967 13.4028 21.2619 13.3529C21.2008 13.2656 21.2199 13.2256 21.7702 12.2879C22.3912 11.2299 22.7027 10.6975 22.8109 10.509C22.849 10.4426 23.1513 9.92668 23.4826 9.36245C23.8139 8.79822 24.3021 7.96545 24.5675 7.51185C24.8328 7.05826 25.2628 6.32506 25.5229 5.88253C25.7831 5.43999 26.0271 5.02361 26.0652 4.95723C26.1033 4.89085 26.3474 4.47447 26.6076 4.03194C26.8679 3.5894 27.1753 3.0644 27.2909 2.86526C27.7505 2.07328 28.1649 1.37424 28.2019 1.32854C28.2768 1.23617 29.4817 1.20149 29.5548 1.28964ZM31.147 1.29636C32.933 1.41395 34.1119 1.58127 35.8068 1.95778C36.3946 2.08837 37.1518 2.29025 37.77 2.48126C37.9881 2.54864 38.1721 2.60376 38.1787 2.60376C38.1854 2.60376 38.2852 2.7712 38.4005 2.97589C38.5158 3.18054 38.7228 3.54716 38.8605 3.79055C39.1748 4.34605 39.9601 5.74225 40.0937 5.9831C40.2385 6.24432 40.3152 6.38078 40.9075 7.43139C41.2006 7.95137 41.7251 8.88371 42.0732 9.50325C42.4212 10.1228 42.819 10.8288 42.9572 11.0722C43.0954 11.3156 43.4572 11.9583 43.7614 12.5004C44.0655 13.0425 44.592 13.9794 44.9312 14.5823C45.2705 15.1853 45.8306 16.181 46.1759 16.795C46.9321 18.1397 47.3003 18.7925 47.5843 19.2924C47.8169 19.7016 47.8293 19.746 47.7332 19.8258C47.6978 19.8553 47.653 19.9208 47.6338 19.9715L47.5988 20.0637H44.3048H41.0109L40.9502 19.9462C40.8578 19.7672 40.6826 19.6614 40.4787 19.6614H40.3024L37.7533 15.1663C36.3513 12.6941 35.1705 10.6077 35.1294 10.5298C35.0882 10.452 34.9594 10.2254 34.8431 10.0262C34.7267 9.82711 34.551 9.51935 34.4524 9.34233C34.1583 8.81395 34.0624 8.64414 33.737 8.07508C33.5662 7.77637 33.3897 7.46656 33.345 7.38662C33.3002 7.30668 33.2396 7.20297 33.2104 7.15614C33.1663 7.08533 33.1666 7.04892 33.2127 6.93942C33.3149 6.69639 33.3129 6.46172 33.2073 6.30495C33.0984 6.14326 32.8918 6.02808 32.7057 6.02527C32.5793 6.02337 32.5646 6.00097 31.7846 4.62533C31.3486 3.85641 30.7511 2.80427 30.4569 2.28715C30.1626 1.77007 29.9218 1.32198 29.9218 1.29145C29.9218 1.22149 30.0155 1.22185 31.147 1.29636ZM27.8329 1.34254C27.8329 1.36941 27.725 1.55854 27.2512 2.36238C27.1012 2.61684 26.9472 2.87934 26.909 2.94572C26.8708 3.0121 26.7168 3.2746 26.5667 3.52906C26.4168 3.78351 26.173 4.1999 26.0252 4.45435C25.8773 4.70881 25.5067 5.34244 25.2016 5.86241C24.2469 7.48941 23.5731 8.64031 23.2822 9.14118C23.1279 9.4067 22.9197 9.75972 22.8194 9.92567C22.7192 10.0916 22.4536 10.5442 22.2292 10.9314C21.5283 12.1409 21.1167 12.8381 21.036 12.953C20.9699 13.0471 20.9299 13.0636 20.7685 13.0636H20.5788L20.3194 12.616C20.1767 12.3698 20.0215 12.1028 19.9744 12.0226C19.8748 11.8529 19.191 10.6647 19.057 10.4285C18.9693 10.274 17.6939 8.062 17.5493 7.81358C17.5106 7.7472 17.1054 7.04378 16.6487 6.25035C15.8791 4.91342 15.8236 4.80391 15.8904 4.75419C16.1703 4.546 18.7605 3.33462 19.3971 3.1142C19.4965 3.07977 19.7315 2.99504 19.9193 2.92596C20.9111 2.56104 22.0282 2.22696 23.0125 2.00111C23.2224 1.95291 23.5025 1.88871 23.6351 1.85837C24.3232 1.70091 25.5469 1.5128 26.8487 1.36443C27.2399 1.31981 27.8329 1.30666 27.8329 1.34254ZM39.1527 2.94813C39.7599 3.17117 39.7593 3.17089 40.2054 3.3578C44.5639 5.18349 48.2029 7.87409 51.2374 11.5148C52.1659 12.6288 53.2242 14.1472 53.9148 15.3568C54.6401 16.6268 55.1805 17.7366 55.6513 18.9229C55.7993 19.2959 55.9354 19.6373 55.9537 19.6815C56.072 19.9668 56.0899 20.0672 56.0375 20.1513C56.0085 20.1977 55.9528 20.292 55.9136 20.3609C55.8349 20.4992 55.16 21.6652 54.2462 23.2419C53.9191 23.8061 53.6202 24.3221 53.5818 24.3885C53.5434 24.4548 53.2869 24.8984 53.0119 25.3741C52.3449 26.5279 52.3059 26.5873 52.2246 26.5753C52.0585 26.5508 51.8567 26.6287 51.7394 26.7624C51.5709 26.9547 51.5434 27.1367 51.6498 27.3568C51.6963 27.453 51.7344 27.5427 51.7344 27.5561C51.7344 27.5695 51.6466 27.7312 51.5394 27.9155C51.3528 28.2363 50.2749 30.0965 49.2123 31.9316C48.9368 32.4074 48.6773 32.8566 48.6354 32.9299C48.4691 33.2215 48.4405 33.2486 48.2769 33.2706C47.8745 33.3246 47.6487 33.7215 47.8175 34.0778C47.8847 34.2196 47.8841 34.2278 47.7965 34.3751C47.747 34.4583 47.675 34.5808 47.6366 34.6472C46.6239 36.4001 46.3211 36.923 45.8895 37.6645C45.6061 38.1512 45.3496 38.5948 45.3195 38.6501C45.2894 38.7054 45.0796 39.0672 44.8534 39.4541C44.4635 40.1208 44.4347 40.1588 44.3021 40.1809C43.9141 40.2455 43.7287 40.5756 43.8643 40.9605C43.9054 41.077 43.8807 41.1309 43.4303 41.9087C43.1676 42.3623 42.6124 43.3218 42.1964 44.041C41.7804 44.7601 41.4084 45.4027 41.3698 45.4691C41.3312 45.5355 41.111 45.9157 40.8805 46.314L40.4615 47.0381L40.2832 47.0601C40.0527 47.0885 39.9383 47.1538 39.8419 47.3122C39.7473 47.4675 39.7412 47.7029 39.827 47.8841L39.8905 48.018L39.5107 48.6746C39.3019 49.0358 38.9365 49.6661 38.6989 50.0755C38.4612 50.4848 38.233 50.8786 38.1917 50.9505C38.0674 51.1669 37.9844 51.3102 37.5335 52.087C37.296 52.4963 37.0706 52.8856 37.0326 52.952C36.9946 53.0183 36.6326 53.6429 36.228 54.3399C35.8234 55.0369 35.2737 55.9869 35.0063 56.451L34.5201 57.2949L34.1546 57.3627C32.9537 57.5854 30.9003 57.7595 29.4739 57.7595C27.6945 57.7595 25.1752 57.4907 23.6351 57.1365C23.5025 57.106 23.1828 57.0327 22.9245 56.9735C22.6526 56.9113 22.4308 56.8381 22.3975 56.7998C22.3659 56.7634 22.236 56.5526 22.1088 56.3313C21.9815 56.11 21.8435 55.8701 21.8022 55.7982C21.7608 55.7264 21.6933 55.6086 21.6521 55.5368C21.4568 55.1957 21.3787 55.0609 21.2033 54.7623C21.0993 54.5853 20.969 54.359 20.9138 54.2594C20.8234 54.0968 19.9438 52.5693 19.1762 51.2422C19.0162 50.9656 18.4108 49.9156 17.8309 48.9088C17.251 47.9021 16.7447 47.024 16.7059 46.9576C16.6244 46.8186 15.2686 44.4672 14.8386 43.7191C14.6796 43.4425 14.2845 42.7572 13.9605 42.1963C13.6366 41.6353 13.3716 41.162 13.3716 41.1445C13.3716 41.127 13.424 41.0564 13.4881 40.9877L13.6046 40.8628H16.9558H20.307L20.4044 40.9672C20.5269 41.0985 20.6901 41.1846 20.8163 41.1846C20.8699 41.1846 20.9319 41.2072 20.954 41.2349C20.9761 41.2626 21.4422 42.0636 21.9898 43.0151C22.5375 43.9665 23.0429 44.8446 23.1131 44.9662C23.1832 45.0879 23.7607 46.0927 24.3963 47.199C25.0319 48.3054 25.6021 49.292 25.6634 49.3916C25.7247 49.4911 25.82 49.6541 25.8751 49.7537C25.9303 49.8532 26.4137 50.695 26.9494 51.6244C27.4851 52.5537 27.9579 53.3745 28 53.4484C28.066 53.564 28.0698 53.6014 28.028 53.7173C27.9632 53.8968 28.0304 54.1221 28.1962 54.2812C28.3071 54.3876 28.3474 54.4002 28.5755 54.4002C28.7923 54.4002 28.8469 54.3851 28.9382 54.2997C29.1432 54.1079 29.2072 53.8873 29.1159 53.6867C29.0784 53.6044 29.1258 53.5023 29.5034 52.8501C29.8625 52.2297 30.1598 51.7168 31.0061 50.2565C31.0446 50.1901 31.2706 49.8009 31.5085 49.3916C31.7463 48.9822 32.1613 48.2671 32.4307 47.8025C32.7 47.3378 33.1882 46.496 33.5154 45.9318C33.8427 45.3675 34.1418 44.8516 34.1801 44.7852C34.2184 44.7188 34.4443 44.3296 34.682 43.9203C34.9197 43.5109 35.1455 43.1217 35.1837 43.0553C35.2219 42.9889 35.4846 42.5363 35.7674 42.0496C36.0502 41.5628 36.5069 40.7753 36.7823 40.2995C37.0577 39.8238 37.3146 39.3803 37.3531 39.3139C37.3917 39.2475 37.6177 38.8583 37.8555 38.4489C38.0932 38.0396 38.3191 37.6504 38.3575 37.584C38.6033 37.1592 39.5219 35.5753 39.9498 34.8382C40.2292 34.357 40.7148 33.5197 41.0289 32.9776C41.6885 31.8393 42.594 30.2772 42.6964 30.1012C42.7349 30.0348 42.8294 29.8718 42.9063 29.7391C43.0272 29.5302 43.4869 28.738 43.7 28.3713C43.7923 28.2125 44.6146 26.7966 44.7047 26.6414C44.878 26.3428 45.8141 24.7283 45.9292 24.5293C45.9997 24.4076 46.2567 23.964 46.5005 23.5436C46.7444 23.1232 47.1836 22.3629 47.4765 21.854C47.7695 21.345 48.0358 20.898 48.0683 20.8605C48.1008 20.823 48.1842 20.7801 48.2537 20.765C48.5227 20.7067 48.7216 20.467 48.7216 20.2012C48.7216 19.9535 48.4887 19.7052 48.1994 19.6445C48.1414 19.6323 48.067 19.5677 48.0235 19.4915C47.9171 19.3054 47.8479 19.1827 47.3256 18.2533C47.0706 17.7997 46.6225 17.0032 46.3298 16.4832C45.7658 15.4814 45.6768 15.3231 45.5161 15.0349C45.4606 14.9353 45.2671 14.5914 45.0861 14.2705C44.7741 13.7173 44.6872 13.5623 44.4374 13.1139C44.3788 13.0088 44.1106 12.5336 43.8413 12.0579C43.572 11.5822 43.3016 11.1024 43.2403 10.9918C43.1791 10.8811 43.0611 10.6729 42.9782 10.5291C42.8953 10.3853 42.7679 10.159 42.6951 10.0262C42.6223 9.89349 42.3786 9.459 42.1535 9.06072C41.9283 8.66244 41.6962 8.2506 41.6376 8.14548C41.3935 7.70761 41.2981 7.53808 40.9081 6.84805C40.683 6.44978 40.4391 6.01529 40.3661 5.88253C40.2932 5.74977 40.0492 5.31528 39.8241 4.917C39.4265 4.21349 39.3167 4.01822 39.0948 3.61957C39.0363 3.51449 38.9188 3.30465 38.8337 3.15331C38.6015 2.74042 38.5963 2.74376 39.1527 2.94813ZM16.0334 5.76184C16.2765 6.18224 16.5069 6.58052 16.5453 6.6469C16.5837 6.71328 17.2253 7.82666 17.9711 9.12107C18.7168 10.4155 19.3585 11.5288 19.397 11.5952C20.3569 13.2474 20.3312 13.197 20.2762 13.3251C20.1981 13.5067 20.2062 13.8439 20.2909 13.9376C20.3296 13.9804 20.3612 14.038 20.3612 14.0656C20.3612 14.0932 20.2323 14.3362 20.0746 14.6055C19.917 14.8749 19.7566 15.1496 19.7182 15.216C19.5894 15.4387 19.2509 16.0167 18.976 16.4832C18.8261 16.7377 18.6723 17.0002 18.6344 17.0665C18.5964 17.1329 18.406 17.4588 18.2111 17.7907C18.0163 18.1226 17.7724 18.539 17.6693 18.716C17.5661 18.893 17.4013 19.1736 17.303 19.3396L17.1242 19.6413L16.9049 19.6655C16.6363 19.6953 16.6683 19.7298 16.1957 18.8984C16.0012 18.5562 15.7946 18.1941 15.7366 18.0938C14.2454 15.5138 10.3989 8.7911 10.3989 8.76479C10.3989 8.72922 10.8106 8.34905 11.3229 7.9115C12.0824 7.26279 13.2 6.42548 14.0437 5.87307C14.7954 5.38086 15.4758 4.97723 15.5359 4.98777C15.5663 4.99312 15.7902 5.34143 16.0334 5.76184ZM33.4166 8.08312C33.6928 8.57349 33.9748 9.07549 34.0433 9.19875C34.3434 9.73856 34.4084 9.8541 34.7017 10.3682C35.1129 11.0889 35.7759 12.2574 35.9799 12.6211C36.0358 12.7207 36.795 14.0603 37.6671 15.5981C38.5392 17.1359 39.431 18.7086 39.649 19.093L40.0453 19.7919L39.9646 19.9225C39.8604 20.0914 39.8622 20.3155 39.9693 20.5064L40.0546 20.6583L39.8335 21.0349C39.7119 21.242 39.5764 21.4748 39.5323 21.5522C39.4883 21.6297 39.2241 22.0868 38.9451 22.568C38.6661 23.0493 38.2097 23.8368 37.9307 24.3181C37.6518 24.7993 37.3923 25.2474 37.3539 25.3138C37.3156 25.3801 37.0531 25.8327 36.7705 26.3195C35.7469 28.0825 35.2514 28.9368 35.1836 29.0552C35.1265 29.1549 34.4345 30.3482 34.1804 30.7851C34.0956 30.9308 33.275 32.3448 33.1764 32.515C33.138 32.5814 33.0497 32.7315 32.9804 32.8486C32.911 32.9658 32.8542 33.0802 32.8542 33.103C32.8542 33.1258 32.8258 33.1386 32.7911 33.1314C32.7564 33.1243 32.5525 32.8288 32.338 32.4747C31.6584 31.3533 31.3466 30.8405 31.0052 30.2822C30.8225 29.9835 30.5973 29.6124 30.5047 29.4575C30.4121 29.3026 30.1047 28.7957 29.8216 28.331C29.5385 27.8664 29.2578 27.4047 29.198 27.3052C29.1381 27.2056 28.9452 26.8888 28.7693 26.6011C28.5934 26.3135 28.313 25.8518 28.1462 25.5753C27.9794 25.2987 27.7205 24.8732 27.5708 24.6298C27.4211 24.3864 27.2497 24.1058 27.1901 24.0063C27.1304 23.9067 26.8502 23.4451 26.5673 22.9804C26.2844 22.5157 26.004 22.0541 25.9441 21.9545C25.8843 21.855 25.6882 21.5331 25.5085 21.2393C25.3287 20.9454 25.1817 20.6885 25.1817 20.6683C25.1817 20.648 25.2201 20.5663 25.267 20.4866C25.3713 20.3096 25.3552 20.0501 25.2288 19.8724L25.1448 19.7542L25.2782 19.5368C25.3516 19.4172 25.5702 19.0479 25.7641 18.716C25.9579 18.3841 26.1659 18.0311 26.2262 17.9315C26.2866 17.8319 26.5491 17.3884 26.8096 16.9459C27.0701 16.5033 27.4491 15.8606 27.6517 15.5177C27.8543 15.1747 28.1797 14.6226 28.3747 14.2907C28.9871 13.2487 29.0967 13.063 29.5592 12.2832C29.8073 11.8651 30.0419 11.4668 30.0807 11.3982C30.1194 11.3295 30.3281 10.9747 30.5444 10.6096C30.7607 10.2445 30.9688 9.89148 31.0066 9.8251C31.0446 9.75872 31.2272 9.44826 31.4126 9.13523C31.5979 8.8222 31.9303 8.25696 32.1513 7.87916L32.553 7.19227L32.7337 7.19194L32.9145 7.19158L33.4166 8.08312ZM12.6896 13.3695C14.0699 15.7726 15.2425 17.8137 15.2954 17.9055C15.3482 17.9972 15.425 18.1311 15.4661 18.2031C15.5072 18.275 15.5749 18.3926 15.6166 18.4645C15.7264 18.654 16.1051 19.3125 16.2995 19.652C16.4336 19.8863 16.4586 19.9596 16.4256 20.0215C16.3568 20.1502 16.3787 20.3655 16.4747 20.5043C16.5625 20.6313 16.6539 20.6949 16.8706 20.78C16.935 20.8052 17.0263 20.9115 17.1078 21.0559C17.1806 21.185 17.2715 21.345 17.3096 21.4114C17.8988 22.437 18.2977 23.1321 18.3716 23.262C18.4219 23.3505 18.599 23.6583 18.765 23.9459C20.1747 26.3878 23.6983 32.529 23.8098 32.7385L23.9502 33.0023L23.8554 33.1308L23.7606 33.2592H20.6783C18.983 33.2592 17.5674 33.2483 17.5325 33.2348C17.4975 33.2214 17.4689 33.1885 17.4689 33.1619C17.4689 33.0261 17.0422 32.7825 16.9001 32.8371C16.8677 32.8496 16.8143 32.8274 16.7815 32.7879C16.7168 32.7102 16.7182 32.7126 15.8425 31.2276C15.5163 30.6744 15.1999 30.1404 15.1393 30.0408C15.0787 29.9412 14.7943 29.4615 14.5074 28.9747C13.086 26.5635 12.791 26.0641 12.6894 25.8971C12.6288 25.7975 12.3662 25.354 12.1057 24.9115C11.8451 24.4689 11.529 23.9349 11.4031 23.7247C11.2771 23.5145 10.9607 22.9804 10.6999 22.5379C9.95598 21.2759 9.47421 20.4618 9.35475 20.2649C9.29433 20.1653 9.08617 19.8123 8.8921 19.4804C8.69804 19.1485 8.43617 18.7049 8.31015 18.4947C8.18414 18.2845 7.86824 17.7505 7.60813 17.3079C7.34807 16.8654 7.0856 16.4219 7.0249 16.3223C6.88008 16.0847 6.19936 14.9328 5.98661 14.5653C5.8947 14.4065 5.8195 14.2474 5.8195 14.2118C5.8195 14.1448 6.55727 13.0497 6.91656 12.5834C7.57077 11.7343 7.96874 11.2488 8.46854 10.69C8.96393 10.1363 10.085 9.00037 10.1361 9.00037C10.1602 9.00037 11.3092 10.9665 12.6896 13.3695ZM5.74961 14.7231C5.89936 14.9854 6.20859 15.511 6.643 16.2418C6.86004 16.6069 7.12215 17.0505 7.22547 17.2275C7.32879 17.4045 7.5909 17.848 7.80794 18.2131C8.02498 18.5782 8.22234 18.9131 8.24648 18.9574C8.27063 19.0016 8.40953 19.237 8.55519 19.4804C8.70085 19.7238 9.03338 20.285 9.29421 20.7275C9.55504 21.17 9.87114 21.7041 9.99663 21.9143C10.1221 22.1245 10.3154 22.4504 10.4262 22.6384C11.0123 23.6335 11.9635 25.2372 12.152 25.5483C12.2704 25.7437 12.3673 25.9115 12.3673 25.9213C12.3673 25.931 12.4103 26.0066 12.4629 26.089C12.5155 26.1715 12.7293 26.5287 12.938 26.8827C13.7661 28.2876 14.2781 29.1533 14.4966 29.5178C14.7806 29.9919 15.4229 31.0788 15.4831 31.1874C15.5077 31.2316 15.7052 31.5665 15.922 31.9316C16.1389 32.2967 16.3692 32.6847 16.4339 32.7939L16.5516 32.9923L16.468 33.1413C16.3626 33.329 16.3625 33.455 16.4673 33.6783L16.5503 33.8552L16.3218 34.2914C16.196 34.5313 16.0617 34.782 16.0234 34.8483C15.985 34.9147 15.8491 35.1682 15.7214 35.4116C15.5936 35.6549 15.4402 35.9446 15.3803 36.0552C15.3205 36.1659 15.1761 36.4374 15.0595 36.6587C14.9429 36.88 14.7976 37.1515 14.7366 37.2621C14.6756 37.3728 14.5518 37.6045 14.4614 37.7771C14.371 37.9496 14.0601 38.5335 13.7706 39.0745C13.2469 40.053 13.2434 40.0582 13.112 40.0582C13.0393 40.0582 12.9279 40.0681 12.8644 40.0804C12.7611 40.1002 12.7389 40.0843 12.6535 39.9295C12.5577 39.7557 12.2762 39.27 11.9239 38.6702C11.82 38.4932 11.6897 38.2669 11.6344 38.1673C11.5791 38.0678 11.2307 37.4613 10.8603 36.8196C10.4898 36.1779 10.0517 35.4176 9.88664 35.1299C9.72162 34.8423 9.55479 34.5526 9.51595 34.4863C9.47711 34.4199 8.97566 33.5509 8.40166 32.5552C6.10295 28.5678 5.24382 27.0783 5.17625 26.9632C5.13729 26.8968 4.97038 26.6072 4.80536 26.3195C4.64038 26.0319 4.12913 25.1448 3.6693 24.3482C3.20947 23.5517 2.73525 22.728 2.61551 22.5177C2.49576 22.3075 2.3793 22.1132 2.35677 22.0858C2.29932 22.0162 2.33042 21.8465 2.50239 21.2907C2.65182 20.8078 2.98066 19.8331 3.04529 19.6815C3.06417 19.6373 3.20107 19.295 3.3495 18.921C3.6237 18.23 3.80074 17.8339 4.20417 17.0084C4.73474 15.9228 5.52236 14.5522 5.61564 14.5522C5.6356 14.5522 5.6959 14.6291 5.74961 14.7231ZM24.2778 20.4743C24.3906 20.6509 24.5303 20.7435 24.7375 20.7789C24.8932 20.8055 24.9292 20.8322 25.0225 20.9897C25.0812 21.0889 25.3879 21.5955 25.7042 22.1154C26.0205 22.6354 26.5598 23.5225 26.9026 24.0867C27.2454 24.651 27.6694 25.3479 27.8447 25.6356C28.0201 25.9232 28.2946 26.3758 28.4549 26.6414C28.6152 26.9069 28.896 27.3685 29.0791 27.6672C29.4371 28.2514 30.4671 29.945 30.645 30.242C30.7047 30.3415 31.0569 30.9208 31.4278 31.5293C31.7987 32.1378 32.2175 32.8269 32.3584 33.0607L32.6146 33.4857L32.2664 34.0866C31.8906 34.7351 31.2405 35.8555 30.4237 37.2621C30.1411 37.7489 29.885 38.1925 29.8546 38.2478C29.8242 38.3031 29.5781 38.7285 29.3076 39.1932L28.8158 40.038H28.5801H28.3444L27.5003 38.5696C27.036 37.762 26.4535 36.7482 26.2059 36.3167C25.9582 35.8853 25.6246 35.306 25.4646 35.0294C24.7241 33.7493 24.7605 33.8261 24.8354 33.6992C24.9384 33.5245 24.9202 33.2324 24.7961 33.0694C24.6836 32.9217 24.556 32.8564 24.3455 32.8387C24.1882 32.8255 24.1832 32.8207 24.0272 32.5351C23.9607 32.4134 22.7359 30.2772 21.3054 27.7879C19.8748 25.2987 18.6591 23.1805 18.6038 23.081C18.5485 22.9814 18.4439 22.8004 18.3715 22.6787C18.2157 22.4171 17.5008 21.1698 17.3548 20.9051L17.2531 20.7206L17.4097 20.5329L17.5663 20.3453L20.8819 20.3469L24.1975 20.3484L24.2778 20.4743ZM47.6812 20.5323C47.7951 20.698 47.8036 20.7288 47.7564 20.8038C47.7272 20.8504 47.4782 21.2777 47.2031 21.7534C46.928 22.2291 46.6714 22.6726 46.6329 22.739C46.5943 22.8054 46.3683 23.1946 46.1306 23.604C45.8928 24.0133 45.6669 24.4025 45.6285 24.4689C45.3073 25.0241 44.5196 26.384 44.4635 26.4804C44.4249 26.5468 44.1676 26.9904 43.892 27.4661C43.4726 28.1896 42.7287 29.4709 42.4555 29.9402C42.3676 30.0911 41.541 31.517 40.7879 32.8167C40.4738 33.3588 39.9859 34.2006 39.7037 34.6874C39.4215 35.1742 39.1596 35.6268 39.1218 35.6932C39.0839 35.7595 38.8577 36.1488 38.6193 36.5581C38.3807 36.9675 38.1543 37.3567 38.1161 37.4231C38.078 37.4894 37.852 37.8787 37.6142 38.288C37.3763 38.6974 37.1272 39.1319 37.0608 39.2535C36.9944 39.3752 36.9262 39.4929 36.9091 39.515C36.8921 39.5372 36.8159 39.6639 36.7398 39.7967C36.5706 40.0918 36.0251 41.0327 35.4455 42.0294C35.2075 42.4388 34.9817 42.828 34.9437 42.8944C34.9058 42.9608 34.5436 43.5853 34.1388 44.2823C33.7341 44.9793 33.246 45.8211 33.0541 46.153C32.4692 47.1652 30.6363 50.3252 29.6591 52.0065C29.3311 52.5708 29.0256 53.1007 28.9801 53.1841C28.9213 53.2921 28.8743 53.3327 28.8171 53.3249C28.7372 53.3141 28.7367 53.2797 28.7266 47.2562L28.7164 41.1982L28.8669 41.1007C29.0224 40.9999 29.1532 40.7886 29.1566 40.6328C29.1577 40.5838 29.1274 40.4782 29.0893 40.3983C29.0259 40.265 29.0254 40.244 29.0835 40.1455C29.136 40.0564 29.8347 38.856 30.0827 38.4288C30.4272 37.8354 31.2849 36.3547 31.7489 35.5524C32.0625 35.0103 32.5504 34.1684 32.8333 33.6817C33.1161 33.1949 33.3791 32.7423 33.4177 32.6759C33.4562 32.6095 33.7185 32.1569 34.0005 31.6701C34.2826 31.1834 34.5712 30.6855 34.6419 30.5638C34.7722 30.3394 35.25 29.5156 36.1585 27.9488C36.4343 27.4731 36.9903 26.5136 37.3941 25.8166C37.7979 25.1196 38.2548 24.3321 38.4095 24.0666C38.5641 23.8011 38.7688 23.4481 38.8643 23.2821C39.7933 21.6679 40.2819 20.8476 40.3294 20.8224C40.3606 20.8057 40.4572 20.7807 40.544 20.7667C40.6907 20.7431 40.8114 20.6489 41.0004 20.4106C41.0474 20.3513 41.3515 20.3453 44.3025 20.3453H47.5528L47.6812 20.5323ZM56.4149 21.0313C57.0663 23.1122 57.4609 25.1774 57.6366 27.4258C57.8062 29.5961 57.6698 32.2582 57.2779 34.4259C57.2318 34.6804 57.1836 34.9474 57.1705 35.0193C57.1575 35.0912 57.1324 35.1501 57.1147 35.1501C57.0812 35.1501 56.9163 34.9351 56.9163 34.8915C56.9163 34.8779 56.8732 34.7992 56.8204 34.7167C56.7676 34.6342 56.431 34.0689 56.0723 33.4604C55.7137 32.8519 55.3707 32.2726 55.3102 32.173C55.2498 32.0734 54.9336 31.5394 54.6076 30.9862C54.2816 30.4331 53.9718 29.913 53.9191 29.8304C53.8664 29.748 53.8232 29.6725 53.8232 29.6627C53.8232 29.653 53.7266 29.4851 53.6085 29.2897C53.4904 29.0944 53.2092 28.6234 52.9837 28.2432L52.5736 27.5518L52.6561 27.3899C52.7612 27.1836 52.7603 27.053 52.6526 26.861L52.5665 26.7077L52.658 26.5538C52.7084 26.4692 52.7809 26.3457 52.8192 26.2793C53.0035 25.9596 54.7567 22.933 55.1495 22.2563C55.188 22.1899 55.413 21.8006 55.6494 21.3913C56.2204 20.4024 56.1954 20.4396 56.2382 20.5162C56.2575 20.5506 56.337 20.7825 56.4149 21.0313ZM3.08916 23.9158C3.5579 24.7289 3.98668 25.4757 4.04204 25.5753C4.09739 25.6748 4.22863 25.9011 4.33364 26.0781C4.43868 26.2551 5.00838 27.2418 5.59965 28.2707C6.19096 29.2996 6.77431 30.3134 6.89607 30.5236C7.06764 30.8198 8.14481 32.6872 9.27473 34.6472C10.4027 36.6039 11.3085 38.1739 11.3637 38.2679C11.4026 38.3343 11.5696 38.6239 11.7348 38.9116C11.9 39.1992 12.1479 39.6299 12.2857 39.8686C12.504 40.2466 12.533 40.3206 12.5103 40.4419C12.4959 40.5185 12.4624 40.5823 12.4358 40.5837C12.4091 40.5851 10.417 40.6011 8.00879 40.6193C4.75567 40.6439 3.61808 40.6407 3.58301 40.6067C3.55706 40.5816 3.43342 40.2985 3.30825 39.9777C3.18307 39.6569 3.06598 39.3581 3.04802 39.3139C2.86926 38.873 2.55866 37.9159 2.33001 37.1012C1.29249 33.4045 1.02929 29.4462 1.56228 25.5551C1.66057 24.8375 1.80318 24.0759 2.0105 23.1614C2.07823 22.8627 2.14258 22.5776 2.1535 22.5278C2.16443 22.478 2.18765 22.4373 2.20516 22.4373C2.22264 22.4373 2.62045 23.1026 3.08916 23.9158ZM52.6836 28.3009C52.8764 28.6272 53.1964 29.1658 53.3948 29.4977C53.5932 29.8296 53.7862 30.1555 53.8237 30.2218C53.8612 30.2882 54.0691 30.6412 54.2858 31.0063C54.5025 31.3714 54.7645 31.815 54.8681 31.992C55.2593 32.6607 55.587 33.2153 55.8784 33.7018C56.2481 34.319 56.6483 34.9958 56.8671 35.3738L57.0315 35.6578L56.9539 35.9973C56.7357 36.9521 56.1857 38.777 55.9543 39.3139C55.9352 39.3581 55.8426 39.5935 55.7484 39.8369C55.4587 40.5858 55.161 41.2498 54.729 42.1099C54.2119 43.1398 54.1341 43.279 54.0854 43.2631C54.0339 43.2464 54.1846 43.5041 51.3516 38.5897C51.2368 38.3906 50.9752 37.938 50.7703 37.584C50.5654 37.23 50.3036 36.7774 50.1886 36.5782C50.0735 36.3791 49.7132 35.7554 49.3879 35.1923C48.8637 34.2851 48.8012 34.1577 48.8393 34.074C48.9086 33.9217 48.8898 33.6533 48.8019 33.5408C48.7587 33.4855 48.7233 33.4131 48.7233 33.3799C48.7233 33.3467 48.7587 33.2743 48.8019 33.219C48.8451 33.1637 48.8809 33.1045 48.8814 33.0876C48.8819 33.0706 48.9613 32.9258 49.058 32.7657C49.1547 32.6057 49.5003 32.0131 49.8259 31.4489C50.1516 30.8846 50.7165 29.907 51.0812 29.2764C51.446 28.6458 51.7766 28.0735 51.8159 28.0046C51.9844 27.7098 51.9871 27.7075 52.1639 27.7075H52.3331L52.6836 28.3009ZM23.8708 33.7009C23.929 33.7889 23.9766 33.8694 23.9766 33.8797C23.9766 33.8901 23.8139 34.2364 23.615 34.6494C23.4162 35.0624 23.2535 35.4047 23.2535 35.4101C23.2535 35.4155 23.0797 35.7801 22.8673 36.2203C22.6548 36.6606 22.4217 37.1475 22.3493 37.3024C22.2769 37.4573 22.0612 37.9099 21.8699 38.3081C21.6786 38.7064 21.4124 39.261 21.2783 39.5406L21.0346 40.0488L20.8408 40.0675C20.5872 40.0919 20.4518 40.1856 20.3556 40.4035L20.2771 40.5811H16.9448C14.1786 40.5811 13.6126 40.5719 13.6126 40.527C13.6126 40.4972 13.5843 40.4161 13.5498 40.3467C13.488 40.2227 13.4903 40.2143 13.6955 39.8276C13.9562 39.3363 14.1639 38.9471 14.3454 38.6099C14.4229 38.466 14.563 38.2035 14.6568 38.0265C15.1117 37.1683 15.522 36.3977 15.621 36.2162C15.6813 36.1055 15.8451 35.7978 15.9849 35.5322C16.1247 35.2667 16.2985 34.9409 16.3712 34.8081C16.4439 34.6753 16.5706 34.4354 16.6528 34.2751C16.7959 33.996 16.8085 33.9834 16.9448 33.9832C17.1211 33.9831 17.3048 33.8744 17.449 33.6851L17.5588 33.5408H20.6619H23.765L23.8708 33.7009ZM24.6642 34.2147C24.7373 34.342 24.818 34.4822 24.8436 34.5265C24.9154 34.6506 25.376 35.4517 26.8086 37.9443C28.0956 40.1835 28.1244 40.2383 28.0751 40.3581C28.0473 40.4255 28.0159 40.5278 28.0054 40.5855C27.9779 40.7355 28.1322 41.0133 28.2971 41.1107L28.4355 41.1926V47.2445C28.4355 52.7983 28.4301 53.2985 28.3701 53.3216C28.2862 53.3538 28.2359 53.2857 27.8619 52.633C27.3049 51.6609 26.5214 50.3006 26.2381 49.814C26.0836 49.5485 25.9112 49.2498 25.8551 49.1502C25.799 49.0506 25.3149 48.2088 24.7793 47.2795C23.5853 45.2077 23.7201 45.4412 23.386 44.8657C23.2318 44.6002 22.7835 43.8217 22.3896 43.1358C21.9958 42.4498 21.5771 41.7258 21.4592 41.5268C21.3414 41.3278 21.245 41.1416 21.245 41.1128C21.245 41.0841 21.2856 41.0055 21.3353 40.9382C21.4466 40.7874 21.4534 40.4934 21.3497 40.3177L21.2792 40.1981L21.6184 39.4945C21.805 39.1075 22.0483 38.6008 22.1589 38.3685C22.3869 37.8899 22.7091 37.2156 23.0623 36.4777C23.1947 36.2011 23.3893 35.7937 23.4948 35.5725C23.6003 35.3512 23.814 34.9031 23.9698 34.5768L24.253 33.9834H24.3922C24.5193 33.9834 24.5427 34.0033 24.6642 34.2147ZM49.0709 35.2205C49.53 36.0157 50.7582 38.1399 51.0307 38.6099C51.1012 38.7316 51.3622 39.1842 51.6106 39.6156C51.859 40.0471 52.0789 40.4173 52.0992 40.4383C52.2368 40.5809 52.2314 40.5811 48.5463 40.5811H44.9565L44.8506 40.4281C44.7923 40.3439 44.7447 40.2622 44.7447 40.2464C44.7447 40.2307 44.9096 39.933 45.1112 39.5848C45.5593 38.8109 45.4942 38.9235 46.1996 37.7047C46.5198 37.1515 47.0129 36.3006 47.2954 35.8139C47.5778 35.3271 47.8401 34.8745 47.8782 34.8081C48.1364 34.358 48.1049 34.3857 48.358 34.3857H48.5891L49.0709 35.2205ZM12.6083 40.9816C12.6083 41.0353 12.8676 41.1846 12.9611 41.1846C13.0363 41.1846 13.1683 41.3761 13.4742 41.9289C13.5271 42.0245 14.0346 42.9053 14.9579 44.5036C15.3285 45.1453 15.7983 45.9599 16.0018 46.314C16.2054 46.668 16.4289 47.0535 16.4986 47.1706C16.5683 47.2878 16.6254 47.4009 16.6254 47.4221C16.6254 47.4463 14.9842 47.4605 12.1905 47.4605H7.75564L7.5576 47.2292C6.81738 46.3645 5.67344 44.6798 4.91478 43.3369C4.39421 42.4154 3.70083 40.9999 3.74731 40.9534C3.78298 40.9176 12.4605 40.8788 12.538 40.9141C12.5767 40.9317 12.6083 40.962 12.6083 40.9816ZM52.3201 40.8935C52.3582 40.9194 52.4809 41.1171 52.7441 41.5768C52.7853 41.6488 52.8528 41.7664 52.8942 41.8383C53.155 42.2914 53.6046 43.0742 53.6624 43.176C53.7001 43.2424 53.7698 43.3601 53.8172 43.4375C53.8645 43.5149 53.9033 43.5996 53.9034 43.6257C53.9037 43.7065 53.2973 44.673 52.6923 45.5561C52.3217 46.0971 52.0601 46.4505 51.5134 47.1491L51.2724 47.457L46.0762 47.4487L40.88 47.4404L40.7987 47.2996L40.7175 47.1588L41.0583 46.5755C41.376 46.0316 41.8112 45.2807 43.3317 42.653C43.6645 42.0777 43.9831 41.5293 44.0396 41.4342C44.1363 41.2716 44.1505 41.263 44.2802 41.2873C44.4893 41.3266 44.6853 41.2417 44.8498 41.0407L44.9954 40.8628L48.636 40.8634C50.6384 40.8637 52.2962 40.8773 52.3201 40.8935ZM16.8138 47.7738C16.8526 47.7986 17.3513 48.6488 18.5587 50.7494C18.6518 50.9114 18.6032 50.8271 19.6788 52.6905C20.1704 53.5423 20.62 54.322 20.6779 54.4231C20.7357 54.5242 21.0518 55.0726 21.3804 55.6419C21.709 56.2111 21.9679 56.6868 21.9558 56.6989C21.8893 56.7655 19.7283 56.0343 18.6937 55.5952C15.2748 54.1442 12.4389 52.2621 9.80068 49.6933C9.08701 48.9984 8.02 47.8293 8.05206 47.7774C8.07865 47.7342 16.7462 47.7308 16.8138 47.7738ZM50.949 47.779C50.9771 47.8246 50.3831 48.4913 49.607 49.2853C47.3687 51.5754 44.7256 53.4859 41.8431 54.8973C41.1972 55.2135 39.9531 55.76 39.6029 55.8812C39.5035 55.9156 39.2685 56.0007 39.0807 56.0702C38.2007 56.3961 37.0672 56.7387 36.1683 56.9504C35.8811 57.018 35.5015 57.1075 35.3247 57.1494C34.9743 57.2323 34.8893 57.2113 34.9809 57.0645C35.0316 56.9833 36.0824 55.1723 36.2629 54.8551C36.3046 54.7819 36.5331 54.3872 36.7709 53.9778C37.0086 53.5685 37.2345 53.1793 37.2729 53.1129C37.6627 52.4393 38.4571 51.0677 38.9389 50.2364C39.2659 49.6722 39.5648 49.1562 39.6032 49.0899C39.6415 49.0235 39.7726 48.7972 39.8944 48.587L40.1161 48.2048L40.3218 48.179C40.5563 48.1496 40.6956 48.0713 40.7965 47.9126C40.8349 47.852 40.8849 47.7892 40.9075 47.7729C40.9687 47.7289 50.9217 47.7349 50.949 47.779Z" fill="#6237A0" stroke="#A78733" stroke-width="0.2"/>
</svg>
