<svg width="55" height="55" viewBox="0 0 55 55" fill="none" xmlns="http://www.w3.org/2000/svg">
<path d="M27.5013 0.160156L0.164062 13.829V41.1665L27.5013 54.8353L54.8385 41.1665V13.829L27.5013 0.160156ZM18.1657 14.0421L27.0748 27.0968L1.07893 14.0568L18.1657 14.0421ZM18.1631 31.9837L9.47094 27.6212L26.897 27.6071L18.1631 31.9837ZM26.8983 27.3252L9.4742 27.3393L18.1937 22.9729L26.8983 27.3252ZM27.6608 18.2647L35.5703 14.3038L27.6608 26.9547V18.2647ZM27.6608 28.0374L35.5697 40.6872L27.6608 36.7178V28.0374ZM27.9154 27.8524L35.8249 31.8072V40.5039L27.9154 27.8524ZM35.8249 14.4882V23.1753L27.9161 27.1391L35.8249 14.4882ZM36.1505 14.0726L54.0187 14.0579L36.1505 23.0123V14.0726ZM27.6608 17.9388V0.909039L35.7689 13.8786L27.6608 17.9388ZM27.3352 26.9637L18.4477 13.9011L27.3352 0.868436V26.9637ZM17.9333 22.8099L8.99495 27.2857L0.85949 14.2728L17.9333 22.8099ZM8.99495 27.6754L17.9033 32.1467L0.85949 40.6878L8.99495 27.6754ZM27.0611 27.8682L18.1664 40.968L1.07437 40.9066L27.0611 27.8682ZM27.3352 27.9996V54.0949L18.4477 41.109L27.3352 27.9996ZM27.6608 37.0437L35.7696 41.1135L27.6608 54.0831V37.0437ZM36.1505 31.9696L54.0193 40.9043L36.1505 40.919V31.9696ZM28.1075 27.6229L45.1989 27.6523L54.1652 40.6517L28.1075 27.6229ZM45.1989 27.3703L28.1628 27.341L54.1672 14.31L45.1989 27.3703ZM36.0847 13.7906L27.8868 0.678397L54.0819 13.7759L36.0847 13.7906ZM18.1657 13.7602L0.91614 13.7748L27.0748 0.695314L18.1657 13.7602ZM8.74621 27.4808L0.486382 40.6923V14.2688L8.74621 27.4808ZM18.1657 41.25L27.1047 54.3115L0.857536 41.1874L18.1657 41.25ZM36.0847 41.2009L54.1411 41.1863L27.8868 54.3137L36.0847 41.2009ZM45.4808 27.5107L54.5097 14.3613V40.6009L45.4808 27.5107Z" fill="#9C7C2A"/>
<path d="M27.5 0L0 13.75V41.25L27.5 55L55 41.25V13.75L27.5 0ZM18.0746 14.1876L26.604 26.7049L1.68322 14.2017L18.0746 14.1876ZM18.2244 31.8219L10.1456 27.7667L26.3045 27.7701L18.2244 31.8219ZM26.3038 27.2062L10.1462 27.2034L18.2302 23.155L26.3038 27.2062ZM27.8406 26.3761L27.836 18.3442L35.1543 14.6793L27.8406 26.3761ZM27.8406 28.6019L35.1543 40.3195L27.836 36.6462L27.8406 28.6019ZM28.3491 28.2308L35.6641 31.8895V39.9496L28.3491 28.2308ZM35.6641 15.0487V23.0851L28.3511 26.7449L35.6641 15.0487ZM36.3153 14.2175L53.4119 14.2034L36.3153 22.7591V14.2175ZM27.8353 17.6935L27.8256 1.4707L35.5521 13.8289L27.8353 17.6935ZM27.1894 26.4545L18.6385 13.9056L27.1744 1.3878L27.1894 26.4545ZM17.5804 22.8291L9.06075 27.0957L1.28016 14.6506L17.5804 22.8291ZM9.0601 27.8744L17.5745 32.1478L1.27951 40.319L9.0601 27.8744ZM26.6073 28.2698L18.0746 40.8304L1.67671 40.7712L26.6073 28.2698ZM27.1894 28.5246L27.1744 53.5851L18.6385 41.1124L27.1894 28.5246ZM27.8353 37.2975L35.5528 41.1705L27.8262 53.5293L27.8353 37.2975ZM36.3153 32.2149L53.4151 40.7679L36.3153 40.782V32.2149ZM28.7339 27.7718L45.1077 27.7966L53.7055 40.262L28.7339 27.7718ZM45.1077 27.2327L28.7261 27.2079L53.7101 14.7053L45.1077 27.2327ZM36.1831 13.6536L28.3061 1.05396L53.477 13.6395L36.1831 13.6536ZM18.0746 13.6237L1.52629 13.6378L26.621 1.09005L18.0746 13.6237ZM8.56327 27.4848L0.65115 40.1402V14.8293L8.56327 27.4848ZM18.0746 41.3944L26.6496 53.924L1.47095 41.3346L18.0746 41.3944ZM36.1837 41.3459L53.5349 41.3318L28.3061 53.946L36.1837 41.3459ZM45.6723 27.5147L54.3489 14.8784V40.094L45.6723 27.5147Z" fill="#9C7C2A"/>
</svg>
