<svg width="57" height="57" viewBox="0 0 57 57" fill="none" xmlns="http://www.w3.org/2000/svg">
<path d="M28.5002 1L7.08008 44.8361L7 45H50L28.5002 1ZM19.1691 38.3746H37.8314L49.3846 44.7736H7.61589L19.1691 38.3746ZM28.6109 19.5431L37.6332 38.007L28.6109 33.0102V19.5431ZM28.3896 19.5495V33.0097L19.3673 38.007L28.3896 19.5495ZM28.5002 33.2062L37.4226 38.1483H19.5779L28.5002 33.2062ZM37.9721 38.1949L28.6254 19.0668L32.8539 10.4164L49.5651 44.6165L37.9721 38.1949ZM32.7304 10.1634L28.5015 18.8137L28.4998 18.8106L19.0447 38.1605L19.0452 38.161L19.0283 38.1953L7.43493 44.6165L28.5002 1.50616L32.7304 10.1634Z" fill="#124268" stroke="#124268" stroke-width="0.4"/>
<path d="M53.8396 17.7954C52.4546 14.5206 50.4715 11.5796 47.9462 9.05429C45.4209 6.52897 42.4799 4.54591 39.2051 3.16099C35.8144 1.72691 32.2131 1 28.5006 1C24.788 1 21.1867 1.72691 17.7961 3.16099C14.5207 4.54591 11.5796 6.52841 9.05436 9.05429C6.52903 11.5796 4.54594 14.5206 3.16101 17.7954C1.72692 21.1859 1 24.7872 1 28.4997C1 32.2122 1.72692 35.8135 3.16101 39.2041C4.54594 42.4789 6.52903 45.4199 9.05436 47.9451C11.5796 50.4704 14.5207 52.4535 17.7955 53.8384C21.1861 55.2725 24.7874 56 28.5 56C32.2126 56 35.8139 55.2725 39.2045 53.8384C42.4793 52.4535 45.4204 50.4704 47.9456 47.9451C50.4709 45.4199 52.4541 42.4789 53.839 39.2041C55.2731 35.8135 56 32.2122 56 28.4997C56 24.7872 55.2736 21.1859 53.8396 17.7954ZM28.5 55.4352C13.6475 55.4352 1.56426 43.3521 1.56426 28.4997C1.56426 13.6474 13.6475 1.56425 28.5 1.56425C43.3525 1.56425 55.4357 13.6474 55.4357 28.4997C55.4357 43.3521 43.3525 55.4352 28.5 55.4352Z" fill="#124268" stroke="#124268" stroke-width="0.2"/>
</svg>
