<svg width="55" height="55" viewBox="0 0 55 55" fill="none" xmlns="http://www.w3.org/2000/svg">
<path d="M27.5 0L0 13.75V41.25L27.5 55L55 41.25V13.75L27.5 0ZM46.3098 24.8203L35.4011 14.5993L54.0519 14.2181L46.3098 24.8203ZM54.3489 14.8671V26.6366L46.8769 25.0983L54.3489 14.8671ZM7.00246 30.9252L0.919421 14.5417L16.5164 22.4896L7.00246 30.9252ZM40.1948 33.0698L35.2799 15.3166L45.9477 25.3126L40.1948 33.0698ZM39.5632 33.2057L27.9395 27.3855L34.5728 15.179L39.5632 33.2057ZM27.6524 27.8936L39.2233 33.6873L21.8174 37.8998L27.6524 27.8936ZM21.3121 37.5157L17.5179 22.9841L27.0859 27.6139L21.3121 37.5157ZM16.8537 22.9977L20.7164 37.7909L7.38857 31.3899L16.8537 22.9977ZM46.3091 25.8691L53.9354 40.3923L40.5145 33.6822L46.3091 25.8691ZM46.9296 25.6887L54.3489 27.2158V39.8165L46.9296 25.6887ZM27.3711 27.1064L17.7197 22.436L33.962 14.9776L27.3711 27.1064ZM17.682 21.8151L27.5117 1.06468L34.2518 14.2062L17.682 21.8151ZM1.35049 14.1075L14.2582 12.8251L16.5594 21.858L1.35049 14.1075ZM21.277 38.7056L31.4584 43.6094L13.7184 46.9089L21.277 38.7056ZM32.2696 43.3546L22.0446 38.4299L22.8371 38.2381L39.2969 34.2551L32.2696 43.3546ZM40.1577 34.1542L53.6671 40.9089L33.0471 43.3624L40.1577 34.1542ZM26.5129 1.68724L17.1324 21.4886L14.8677 12.5996L26.5129 1.68724ZM6.50303 31.4231L0.65115 40.0703V15.6622L6.50303 31.4231ZM7.42636 32.0525L20.6994 38.4276L13.0165 46.7668L7.42636 32.0525ZM34.8821 14.0461L28.1883 0.995314L53.5271 13.6649L34.8821 14.0461ZM14.3566 12.2483L1.81411 13.494L25.8546 1.47351L14.3566 12.2483ZM6.77391 32.1382L12.3301 46.764L0.782679 40.9906L6.77391 32.1382ZM31.8529 44.1124L27.3255 54.2613L13.7581 47.4785L31.8529 44.1124ZM32.6083 43.9839L53.1084 41.5444L28.1231 54.0374L32.6083 43.9839Z" fill="#5F84A1"/>
</svg>
