<svg width="55" height="55" viewBox="0 0 55 55" fill="none" xmlns="http://www.w3.org/2000/svg">
<path d="M55 13.75L27.5 0L0 13.75V41.25L27.5 55L55 41.25V13.75ZM7.75907 44.479L22.3624 37.2022L26.8339 39.4314L12.2247 46.7116L7.75907 44.479ZM2.66255 41.9306L17.2581 34.6572L21.71 36.8763L7.1073 44.1531L2.66255 41.9306ZM0.65115 26.3789L6.40536 29.247L0.65115 32.1146V26.3789ZM0.65115 32.7647L7.05781 29.5724L11.5078 31.7909L0.650498 37.2011L0.65115 32.7647ZM7.36321 29.0739V10.7195L11.8269 8.4875V31.2991L7.36321 29.0739ZM12.478 8.16214L13.2561 7.77307L16.9423 9.61029V33.8491L12.478 31.6239V8.16214ZM46.2401 10.0208L32.6532 16.7918L28.1811 14.5626L41.7745 7.78886L46.2401 10.0208ZM51.336 12.5691L37.7569 19.3361L33.305 17.1171L46.8906 10.3468L51.336 12.5691ZM22.7082 36.7234V12.4846L27.1719 14.7098V38.9486L22.7082 36.7234ZM22.0571 36.3986L17.5928 34.1734V9.93507L22.0564 12.1603L22.0571 36.3986ZM27.8249 15.0357L32.2886 17.2609V41.4998L27.8249 39.2746V15.0357ZM32.9404 17.5852L37.404 19.8104V44.0493L32.9404 41.8241V17.5852ZM38.0551 20.1352L42.5188 22.3604V46.5988L38.0551 44.3736V20.1352ZM27.823 14.0901V0.812607L41.1227 7.46229L27.823 14.0901ZM27.1719 14.059L22.7082 11.8338V3.04684L27.1725 0.814857L27.1719 14.059ZM22.0571 11.5096L17.5934 9.28436V5.60421L22.0571 3.37223V11.5096ZM16.9423 8.9595L13.9079 7.44707L16.9423 5.93016V8.9595ZM27.1738 39.9124V54.1863L12.8765 47.0375L27.1738 39.9124ZM27.8249 39.9248L32.2886 42.15V51.9549L27.8249 54.1869V39.9248ZM32.9404 42.4743L37.404 44.6995V49.3964L32.9404 51.6284V42.4743ZM38.0551 45.0243L42.1086 47.0448L38.0551 49.0716V45.0243ZM43.1699 22.6847L47.6336 24.9099V44.2822L43.1699 46.5141V22.6847ZM43.5079 22.2026L54.3489 16.8002V21.2366L47.9579 24.421L43.5079 22.2026ZM54.3489 21.8868V27.6066L48.6109 24.7464L54.3489 21.8868ZM54.3489 16.1495L42.8548 21.8772L38.41 19.6616L51.9878 12.8951L54.3482 14.0754L54.3489 16.1495ZM6.71205 11.0449V28.7496L0.65115 25.7281V14.0754L6.71205 11.0449ZM0.65115 37.8519L12.1609 32.1162L16.6056 34.3319L2.0114 41.6047L0.65115 40.9246V37.8519ZM48.2854 43.9562V25.2342L54.3489 28.2568V40.9241L48.2854 43.9562Z" fill="#AD767C"/>
</svg>
