<svg width="55" height="55" viewBox="0 0 55 55" fill="none" xmlns="http://www.w3.org/2000/svg">
<path d="M26.9839 40.9297L27.1273 41L36.9174 26.5318L37 26.4097L19.8727 18L10.0826 32.4682L10 32.5898L26.9839 40.9297ZM19.8773 18.5567L22.1035 25.6144L18.8531 30.4181L10.5683 32.3139L19.8773 18.5567ZM27.1227 40.4428L24.8965 33.3857L28.1469 28.5819L36.4317 26.6856L27.1227 40.4428ZM18.9384 30.6895L24.5774 33.4589L26.8035 40.5159L10.6542 32.5858L18.9384 30.6895ZM22.3406 25.826L27.8126 28.5127L24.6587 33.1735L19.1874 30.4867L22.3406 25.826ZM28.061 28.31L22.422 25.5411L20.1958 18.4836L36.3452 26.4136L28.061 28.31Z" fill="#255046"/>
<path d="M55 41.1689V13.75L27.5819 0.0408434L27.5 0L0 13.75V41.25L27.5 55L55 41.25V41.1689C55 41.1689 55 41.1695 55 41.1689ZM0.327514 13.9735H18.1043L0.327514 40.639V13.9735ZM54.5723 13.8635L41.7278 25.3137L18.6146 13.7755L27.5596 0.357379L54.5723 13.8635ZM54.6725 41.0515L28.6096 45.5284L41.8883 25.5781L54.6725 14.1817V41.0515ZM18.4475 14.0257L41.5333 25.5441L28.2278 45.5346L5.12886 34.0037L18.4475 14.0257ZM18.2936 13.6899H0.774899L27.0526 0.551384L18.2936 13.6899ZM4.9651 34.2494L28.1164 45.8063L27.3559 54.6006L0.387121 41.1167L4.9651 34.2494ZM28.4419 45.846L53.8969 41.474L27.686 54.5791L28.4419 45.846Z" fill="#255046"/>
<path d="M10.1625 32.3502L10 32.5899L27.1276 41L37 26.4101L19.8731 18L10.1625 32.3502C10.1631 32.3502 10.1631 32.3502 10.1625 32.3502ZM19.8822 19.0951L21.9522 25.6588L18.8221 30.284L11.1173 32.0474L19.8822 19.0951ZM27.1191 39.9043L25.0491 33.3413L28.1791 28.7155L35.8835 26.9521L27.1191 39.9043ZM18.9911 30.8188L24.4213 33.4852L26.4913 40.0483L11.2862 32.5822L18.9911 30.8188ZM22.4202 26.0756L27.5202 28.5798L24.5805 32.9244L19.4805 30.4196L22.4202 26.0756ZM28.0095 28.1812L22.5794 25.5148L20.5093 18.9512L35.7144 26.4173L28.0095 28.1812Z" fill="#255046"/>
<path d="M55 41.0887V13.75L27.5 0L0 13.75V41.25L27.5 55L55 41.25V41.0893C55 41.0893 55 41.0893 55 41.0887ZM0.65115 14.1944H17.878L0.65115 40.0353V14.1944ZM54.1496 13.9756L41.6156 25.1501L18.8899 13.8047L27.6191 0.710536L54.1496 13.9756ZM54.3489 40.8559L28.9234 45.2228L41.9341 25.6751L54.3489 14.6077V40.8559ZM18.561 14.2976L41.2276 25.6075L28.1635 45.2352L5.48399 33.9134L18.561 14.2976ZM18.2536 13.6304H1.54062L26.6105 1.09569L18.2536 13.6304ZM5.15841 34.4018L27.9434 45.776L27.2141 54.206L0.770307 40.9844L5.15841 34.4018ZM28.5894 45.8549L52.8069 41.6955L27.8705 54.1637L28.5894 45.8549Z" fill="#255046"/>
</svg>
