<svg width="55" height="55" viewBox="0 0 55 55" fill="none" xmlns="http://www.w3.org/2000/svg">
<g clip-path="url(#clip0_938_306)">
<path d="M27.5805 0.203688L27.4991 0.163086L0.161865 13.8313V41.1689L27.4991 54.8377L54.8363 41.1689V13.8313L27.5805 0.203688ZM54.5108 13.9943V31.7751L39.5695 9.34536H15.6768L18.5471 5.00545C18.5582 4.98909 18.5647 4.97161 18.5672 4.95413L27.4991 0.487902L54.5108 13.9943ZM15.475 45.4614L7.28025 33.159L27.4281 43.2368L42.7913 35.5551V40.3349L39.3663 45.4682L15.475 45.4614ZM15.49 9.62729H31.9217L11.7387 19.7034V35.0668L6.95466 32.6701L3.53677 27.539L15.49 9.62729ZM33.7658 24.3794V30.7167L33.3614 30.9186L31.0492 27.4804L29.2624 24.7967H25.9793L28.145 21.5689L33.7658 24.3794ZM30.0282 32.5855L30.0171 32.5911L27.4281 33.8854L21.0905 30.7167V30.296L29.2605 30.2971L30.9072 27.8289L33.0801 31.0596C33.0801 31.0601 30.0282 32.5855 30.0282 32.5855ZM25.7905 25.0792H29.0742L30.7184 27.5481L29.0723 30.0157L25.7813 30.0146L24.1372 27.5464L25.7905 25.0792ZM25.6036 24.7973H25.5964L23.7621 27.5464L25.4062 30.0152H21.0911V24.5452V24.3799L27.4287 21.2113L27.8644 21.429L25.6036 24.7973ZM20.7649 30.8796L27.1103 34.0523L22.09 36.5764H21.4037L15.3864 27.543L20.7649 19.484V30.8796ZM34.0913 30.8796V24.5424L39.1514 27.0726L39.4698 27.5509L33.4454 36.5803L22.7379 36.5775L34.0913 30.8796ZM27.4281 20.8848L21.0905 24.0534V18.9956L21.4115 18.5152H33.4532L38.8265 26.5837L27.4281 20.8848ZM21.2233 18.2333L15.01 27.5424L21.2155 36.8578L33.5392 36.8611H33.6329L39.8455 27.5497L33.8289 18.5146H40.0897L42.7913 19.8658V35.2291L27.4281 42.9114L12.0642 35.2297V19.8664L27.4281 12.1846L39.5258 18.2338H21.2233V18.2333ZM43.1169 19.7034L27.7543 12.0223L32.5755 9.62786H39.3806L51.3188 27.5542L43.1163 39.8476V19.7034H43.1169ZM0.48744 13.9943L18.0275 5.22425L3.20794 27.4685L3.16106 27.539L15.0999 45.462H9.39911L0.48744 41.0065V13.9943ZM27.4991 54.5118L9.96296 45.744L39.5545 45.7507L51.5095 27.8329L54.4872 32.3041C54.4938 32.3143 54.5023 32.3227 54.5108 32.3306V41.0065L27.4991 54.5118Z" fill="#5F84A1"/>
<mask id="path-2-outside-1_938_306" maskUnits="userSpaceOnUse" x="-1" y="-1" width="57" height="57" fill="black">
<rect fill="white" x="-1" y="-1" width="57" height="57"/>
<path d="M27.5 0L0 13.75V41.25L27.5 55L55 41.25V13.75L27.5 0ZM54.3489 14.0754V31.2478C54.3489 31.2478 51.7761 27.3889 51.769 27.3804L39.6641 9.20429H15.9584L18.6886 5.07582C18.6945 5.06736 18.6978 5.05834 18.7023 5.04988L27.4994 0.651324L54.3489 14.0754ZM15.5703 45.3204L7.72657 33.5446L27.429 43.3996L42.6295 35.7991V40.297L39.2734 45.3271L15.5703 45.3204ZM15.5846 9.76821H31.3112L11.5768 19.6221V34.8225L7.07474 32.5674L3.72588 27.5389L15.5846 9.76821ZM33.6039 24.4605V30.6354L33.4216 30.7267L31.1934 27.4131L29.3577 24.6561H26.2635L28.2059 21.7616L33.6039 24.4605ZM29.9476 32.4636L29.9386 32.4681L27.429 33.7229L21.2541 30.6354V30.4374H25.6885L29.3558 30.4386L30.9088 28.1101L32.8583 31.0087L29.9476 32.4636ZM24.7151 26.9637L25.8851 25.2195H28.9814L30.5318 27.5474L28.9801 29.8741L25.8767 29.873L24.3263 27.5451C24.3269 27.5456 24.7151 26.9643 24.7151 26.9637ZM23.5749 27.5456L25.1253 29.8735H21.2549V24.4605L27.4297 21.3731L27.6426 21.4796L23.5749 27.5456ZM20.603 30.9608L26.7864 34.0527L22.0466 36.4353H21.4984L15.5749 27.5429L20.6024 20.0095V30.9608H20.603ZM34.255 30.9608V24.7859L39.0331 27.1752L39.2832 27.5502L33.3525 36.4386L23.3431 36.4359L34.255 30.9608ZM27.429 20.7223L21.2541 23.8097V19.0339L21.5061 18.6566H33.3597L38.3826 26.1996L27.429 20.7223ZM21.1304 18.0921L14.8234 27.5423L21.1226 36.9986L33.7282 37.002L40.0346 27.5496L34.1118 18.6561H40.047L42.6295 19.9474V35.1484L27.429 42.7489L12.2279 35.1484V19.9474L27.429 12.347L38.9192 18.0921H21.1304ZM43.2806 19.6221L28.0821 12.0227L32.6206 9.76871H39.2884L51.1329 27.5536L43.2806 39.3214V19.6221ZM0.65115 14.0754L17.5869 5.60703L2.9738 27.5389L14.8189 45.3209H9.44364L0.65115 40.9246V14.0754ZM27.5 54.3492L10.5714 45.8849L39.6498 45.8916L51.5105 28.1146L54.3476 32.3745C54.3482 32.3751 54.3489 32.3762 54.3495 32.3768V40.9252L27.5 54.3492Z"/>
</mask>
<path d="M27.5 0L0 13.75V41.25L27.5 55L55 41.25V13.75L27.5 0ZM54.3489 14.0754V31.2478C54.3489 31.2478 51.7761 27.3889 51.769 27.3804L39.6641 9.20429H15.9584L18.6886 5.07582C18.6945 5.06736 18.6978 5.05834 18.7023 5.04988L27.4994 0.651324L54.3489 14.0754ZM15.5703 45.3204L7.72657 33.5446L27.429 43.3996L42.6295 35.7991V40.297L39.2734 45.3271L15.5703 45.3204ZM15.5846 9.76821H31.3112L11.5768 19.6221V34.8225L7.07474 32.5674L3.72588 27.5389L15.5846 9.76821ZM33.6039 24.4605V30.6354L33.4216 30.7267L31.1934 27.4131L29.3577 24.6561H26.2635L28.2059 21.7616L33.6039 24.4605ZM29.9476 32.4636L29.9386 32.4681L27.429 33.7229L21.2541 30.6354V30.4374H25.6885L29.3558 30.4386L30.9088 28.1101L32.8583 31.0087L29.9476 32.4636ZM24.7151 26.9637L25.8851 25.2195H28.9814L30.5318 27.5474L28.9801 29.8741L25.8767 29.873L24.3263 27.5451C24.3269 27.5456 24.7151 26.9643 24.7151 26.9637ZM23.5749 27.5456L25.1253 29.8735H21.2549V24.4605L27.4297 21.3731L27.6426 21.4796L23.5749 27.5456ZM20.603 30.9608L26.7864 34.0527L22.0466 36.4353H21.4984L15.5749 27.5429L20.6024 20.0095V30.9608H20.603ZM34.255 30.9608V24.7859L39.0331 27.1752L39.2832 27.5502L33.3525 36.4386L23.3431 36.4359L34.255 30.9608ZM27.429 20.7223L21.2541 23.8097V19.0339L21.5061 18.6566H33.3597L38.3826 26.1996L27.429 20.7223ZM21.1304 18.0921L14.8234 27.5423L21.1226 36.9986L33.7282 37.002L40.0346 27.5496L34.1118 18.6561H40.047L42.6295 19.9474V35.1484L27.429 42.7489L12.2279 35.1484V19.9474L27.429 12.347L38.9192 18.0921H21.1304ZM43.2806 19.6221L28.0821 12.0227L32.6206 9.76871H39.2884L51.1329 27.5536L43.2806 39.3214V19.6221ZM0.65115 14.0754L17.5869 5.60703L2.9738 27.5389L14.8189 45.3209H9.44364L0.65115 40.9246V14.0754ZM27.5 54.3492L10.5714 45.8849L39.6498 45.8916L51.5105 28.1146L54.3476 32.3745C54.3482 32.3751 54.3489 32.3762 54.3495 32.3768V40.9252L27.5 54.3492Z" fill="#5F84A1"/>
<path d="M27.5 0L0 13.75V41.25L27.5 55L55 41.25V13.75L27.5 0ZM54.3489 14.0754V31.2478C54.3489 31.2478 51.7761 27.3889 51.769 27.3804L39.6641 9.20429H15.9584L18.6886 5.07582C18.6945 5.06736 18.6978 5.05834 18.7023 5.04988L27.4994 0.651324L54.3489 14.0754ZM15.5703 45.3204L7.72657 33.5446L27.429 43.3996L42.6295 35.7991V40.297L39.2734 45.3271L15.5703 45.3204ZM15.5846 9.76821H31.3112L11.5768 19.6221V34.8225L7.07474 32.5674L3.72588 27.5389L15.5846 9.76821ZM33.6039 24.4605V30.6354L33.4216 30.7267L31.1934 27.4131L29.3577 24.6561H26.2635L28.2059 21.7616L33.6039 24.4605ZM29.9476 32.4636L29.9386 32.4681L27.429 33.7229L21.2541 30.6354V30.4374H25.6885L29.3558 30.4386L30.9088 28.1101L32.8583 31.0087L29.9476 32.4636ZM24.7151 26.9637L25.8851 25.2195H28.9814L30.5318 27.5474L28.9801 29.8741L25.8767 29.873L24.3263 27.5451C24.3269 27.5456 24.7151 26.9643 24.7151 26.9637ZM23.5749 27.5456L25.1253 29.8735H21.2549V24.4605L27.4297 21.3731L27.6426 21.4796L23.5749 27.5456ZM20.603 30.9608L26.7864 34.0527L22.0466 36.4353H21.4984L15.5749 27.5429L20.6024 20.0095V30.9608H20.603ZM34.255 30.9608V24.7859L39.0331 27.1752L39.2832 27.5502L33.3525 36.4386L23.3431 36.4359L34.255 30.9608ZM27.429 20.7223L21.2541 23.8097V19.0339L21.5061 18.6566H33.3597L38.3826 26.1996L27.429 20.7223ZM21.1304 18.0921L14.8234 27.5423L21.1226 36.9986L33.7282 37.002L40.0346 27.5496L34.1118 18.6561H40.047L42.6295 19.9474V35.1484L27.429 42.7489L12.2279 35.1484V19.9474L27.429 12.347L38.9192 18.0921H21.1304ZM43.2806 19.6221L28.0821 12.0227L32.6206 9.76871H39.2884L51.1329 27.5536L43.2806 39.3214V19.6221ZM0.65115 14.0754L17.5869 5.60703L2.9738 27.5389L14.8189 45.3209H9.44364L0.65115 40.9246V14.0754ZM27.5 54.3492L10.5714 45.8849L39.6498 45.8916L51.5105 28.1146L54.3476 32.3745C54.3482 32.3751 54.3489 32.3762 54.3495 32.3768V40.9252L27.5 54.3492Z" stroke="#5F84A1" stroke-width="0.2" mask="url(#path-2-outside-1_938_306)"/>
</g>
<defs>
<clipPath id="clip0_938_306">
<rect width="55" height="55" fill="white"/>
</clipPath>
</defs>
</svg>
