<svg width="57" height="57" viewBox="0 0 57 57" fill="none" xmlns="http://www.w3.org/2000/svg">
<circle cx="46" cy="41" r="1.6" stroke="#9C7C2A" stroke-width="0.8"/>
<circle cx="12" cy="41" r="1.6" stroke="#9C7C2A" stroke-width="0.8"/>
<circle cx="29" cy="8" r="1.6" stroke="#9C7C2A" stroke-width="0.8"/>
<path d="M29.0894 9.95528L29 9.7764L28.9106 9.95528L13.9106 39.9553L13.8382 40.1H14H44H44.1618L44.0894 39.9553L29.2263 10.229L29.1369 10.2737L29.2263 10.229L29.0894 9.95528ZM28.9956 21.8331L28.9944 21.831L28.9106 21.9986L22.3126 35.1935L14.8328 39.2422L29 10.9078L31.7297 16.3673L28.9956 21.8331ZM15.2468 39.5936L22.5885 35.6197H35.4117L42.7532 39.5936H15.2468ZM29.2531 31.7106V23.4576L34.911 34.7732L29.2531 31.7106ZM28.7469 31.7109L23.089 34.7735L28.7469 23.4617V31.7109ZM23.5235 35.1135L29 32.1493L34.4765 35.1135H23.5235ZM35.6869 35.1933L29.2842 22.3878L32.0127 16.9331L43.1672 39.2422L35.6869 35.1933Z" fill="#9C7C2A" stroke="#9C7C2A" stroke-width="0.2"/>
<path d="M53.8396 17.7954C52.4546 14.5206 50.4715 11.5796 47.9462 9.05429C45.4209 6.52897 42.4799 4.54591 39.2051 3.16099C35.8144 1.72691 32.2131 1 28.5006 1C24.788 1 21.1867 1.72691 17.7961 3.16099C14.5207 4.54591 11.5796 6.52841 9.05436 9.05429C6.52903 11.5796 4.54594 14.5206 3.16101 17.7954C1.72692 21.1859 1 24.7872 1 28.4997C1 32.2122 1.72692 35.8135 3.16101 39.2041C4.54594 42.4789 6.52903 45.4199 9.05436 47.9451C11.5796 50.4704 14.5207 52.4535 17.7955 53.8384C21.1861 55.2725 24.7874 56 28.5 56C32.2126 56 35.8139 55.2725 39.2045 53.8384C42.4793 52.4535 45.4204 50.4704 47.9456 47.9451C50.4709 45.4199 52.4541 42.4789 53.839 39.2041C55.2731 35.8135 56 32.2122 56 28.4997C56 24.7872 55.2736 21.1859 53.8396 17.7954ZM28.5 55.4352C13.6475 55.4352 1.56426 43.3521 1.56426 28.4997C1.56426 13.6474 13.6475 1.56425 28.5 1.56425C43.3525 1.56425 55.4357 13.6474 55.4357 28.4997C55.4357 43.3521 43.3525 55.4352 28.5 55.4352Z" stroke="#9C7C2A" stroke-width="0.5"/>
</svg>
