<svg width="76" height="76" viewBox="0 0 76 76" fill="none" xmlns="http://www.w3.org/2000/svg">
<path d="M33.7683 40.1076L33.3856 42.3074L35.5701 42.7717L35.9525 40.5714L33.7683 40.1076ZM33.6438 42.1334L33.9496 40.3756L35.6948 40.7462L35.3891 42.504L33.6438 42.1334Z" stroke="#255046" stroke-width="0.5"/>
<path d="M11.4478 32.3623L33.3497 64.7461L64.5559 43.6406L42.654 11.2568L11.4478 32.3623ZM11.7582 32.4282L35.2795 16.5202L33.41 27.2676L24.5623 26.5344L24.4488 48.3653L24.5413 48.3849L36.5165 50.9281L34.2788 63.8424L33.4043 64.4338L11.7582 32.4282ZM36.0484 43.4759L32.7063 42.7662L33.2919 39.4001L36.6343 40.1096L36.0484 43.4759ZM33.0834 39.2884L32.4753 42.7839L30.7337 43.9618L31.861 37.481L33.0834 39.2884ZM32.6036 42.9736L36.0743 43.7106L37.2966 45.518L30.8617 44.1511L32.6036 42.9736ZM37.4765 45.3908L36.2567 43.5872L36.8651 40.0915L38.5987 38.919L37.4765 45.3908ZM36.737 39.9022L33.266 39.1654L32.0496 37.3667L38.4706 38.7303L36.737 39.9022ZM31.68 37.2133L30.4758 44.1362L24.6733 48.0606L24.7826 27.015L31.68 37.2133ZM30.6034 44.3258L37.4106 45.7714L36.5549 50.7073L24.8448 48.2205L30.6034 44.3258ZM37.6037 45.9713L41.5203 51.7615L36.775 50.7538L37.6037 45.9713ZM41.7487 51.7069L37.6577 45.6589L38.8562 38.7448L52.7573 29.3432L41.7487 51.7069ZM38.728 38.5551L31.9254 37.1108L33.5956 27.509L52.7177 29.0935L38.728 38.5551ZM31.7344 36.9007L24.8949 26.7879L33.3713 27.4902L31.7344 36.9007ZM64.2457 43.5751L34.5367 63.668L36.7365 50.9751L41.7463 52.039C41.7463 52.039 41.7463 52.039 41.7466 52.0394L41.8291 52.0569L53.1485 29.0615L53.2231 28.9101L33.6344 27.2858L35.5374 16.3458L42.5996 11.5695L64.2457 43.5751Z" stroke="#255046" stroke-width="0.5"/>
<path d="M15.2597 23.2167L15.2597 23.2167C17.2367 20.1726 19.7763 17.5897 22.8092 15.5385C25.842 13.4873 29.1848 12.0919 32.7461 11.3903L32.7058 11.1857L32.7461 11.3903C36.1859 10.7124 39.6833 10.7074 43.1413 11.3751C46.5994 12.0428 49.8435 13.3494 52.7837 15.2592C55.8278 17.2362 58.4102 19.776 60.4614 22.8089C62.5126 25.8417 63.908 29.1844 64.6096 32.7457L64.7992 32.7084L64.6096 32.7457C65.2874 36.1855 65.2923 39.6829 64.6246 43.1409C63.9569 46.599 62.6502 49.8431 60.7405 52.7833C58.7634 55.8274 56.2241 58.4108 53.1913 60.462C50.1584 62.5132 46.8154 63.9081 43.2541 64.6098C39.8142 65.2876 36.3168 65.2926 32.8588 64.6249C29.4008 63.9572 26.1566 62.6506 23.2164 60.7409L23.1036 60.9146L23.2164 60.7409C20.1723 58.7638 17.5894 56.2243 15.5383 53.1915C13.4871 50.1586 12.0917 46.8159 11.3901 43.2546L11.1644 43.2991L11.3901 43.2546C10.7123 39.8148 10.7073 36.3174 11.3751 32.8594L11.3751 32.8594C12.0425 29.4009 13.3494 26.1573 15.2597 23.2167ZM15.5892 53.157C23.9468 65.5144 40.799 68.7683 53.1565 60.4106C65.514 52.0529 68.7681 35.2008 60.4105 22.8434C52.0529 10.4859 35.2007 7.2321 22.8432 15.5898C10.4856 23.9475 7.23162 40.7996 15.5892 53.157Z" stroke="#255046" stroke-width="0.5"/>
</svg>
