<svg width="55" height="55" viewBox="0 0 55 55" fill="none" xmlns="http://www.w3.org/2000/svg">
<path d="M27.5002 51.5918C24.2389 51.5918 21.0753 50.9529 18.097 49.6934C15.2204 48.4768 12.6369 46.7349 10.4183 44.5162C8.19967 42.2976 6.45776 39.7141 5.24114 36.8375C3.98159 33.8592 3.34277 30.6956 3.34277 27.4344C3.34277 21.4162 5.5693 15.6505 9.61172 11.1992C13.6265 6.7783 19.0945 4.01011 25.0093 3.40406C25.0872 3.39615 25.1562 3.45263 25.1641 3.53001C25.172 3.6074 25.1155 3.67687 25.0381 3.68478C12.8306 4.93529 3.62518 15.145 3.62518 27.4344C3.62518 40.5987 14.3353 51.3088 27.5002 51.3088C33.1783 51.3088 38.6808 49.2816 42.9932 45.6001C43.0525 45.5493 43.1417 45.5566 43.192 45.616C43.2429 45.6753 43.2355 45.7645 43.1762 45.8153C41.0361 47.6425 38.6209 49.0687 35.999 50.0543C33.2851 51.0744 30.4259 51.5918 27.5002 51.5918Z" fill="#E7886A"/>
<path d="M46.4616 42.3171C46.4311 42.3171 46.4006 42.3075 46.3752 42.2871C46.3136 42.2391 46.3029 42.1505 46.3503 42.0889C49.6376 37.8669 51.375 32.7999 51.375 27.4352C51.375 15.1356 42.1605 4.92481 29.9411 3.68389C29.8638 3.67599 29.8073 3.60651 29.8152 3.52913C29.8231 3.45175 29.892 3.39471 29.97 3.40318C35.8893 4.00415 41.3624 6.77064 45.3817 11.1926C49.4286 15.6451 51.6574 21.4136 51.6574 27.4352C51.6574 30.1695 51.2038 32.8524 50.3103 35.4093C49.4461 37.881 48.1888 40.1866 46.5734 42.2617C46.5452 42.2984 46.504 42.3171 46.4616 42.3171Z" fill="#E7886A"/>
<path d="M7.48149 25.1307C7.47584 25.1307 7.47019 25.1302 7.46455 25.1296C7.38716 25.12 7.33181 25.05 7.34141 24.9726C8.57159 14.8007 17.2376 7.12988 27.4993 7.12988C31.9083 7.12988 36.1015 8.51878 39.626 11.1475C39.6887 11.1943 39.7017 11.2824 39.6548 11.3451C39.6085 11.4078 39.5198 11.4203 39.4571 11.3739C35.9818 8.78255 31.8467 7.41286 27.4987 7.41286C17.38 7.41286 8.83424 14.9764 7.621 25.007C7.61253 25.0782 7.55209 25.1307 7.48149 25.1307Z" fill="#E7886A"/>
<path d="M27.4993 47.7418C17.2376 47.7418 8.57159 40.071 7.34141 29.8991C7.33181 29.8217 7.38716 29.7511 7.46455 29.7421C7.54193 29.7319 7.61253 29.7878 7.62157 29.8652C8.8348 39.8953 17.38 47.4594 27.4993 47.4594C38.5404 47.4594 47.5228 38.477 47.5228 27.4359C47.5228 22.8394 45.9266 18.3491 43.0279 14.793C42.9788 14.7325 42.9878 14.6439 43.0483 14.5942C43.1087 14.545 43.1974 14.5541 43.2471 14.6145C44.6925 16.3875 45.8187 18.3722 46.5948 20.5129C47.398 22.7281 47.8052 25.0575 47.8052 27.4359C47.8052 30.177 47.268 32.8367 46.2096 35.34C45.1867 37.758 43.7227 39.9298 41.8582 41.7942C39.9932 43.6593 37.822 45.1233 35.404 46.1462C32.8996 47.2047 30.2404 47.7418 27.4993 47.7418Z" fill="#E7886A"/>
<path d="M29.852 43.1604C29.7831 43.1604 29.7232 43.1101 29.7125 43.0401C29.7012 42.9627 29.7543 42.891 29.8311 42.8797C36.5411 41.8737 41.9318 36.4853 42.9411 29.7764C42.953 29.699 43.0247 29.6465 43.1015 29.6578C43.1789 29.6696 43.232 29.7414 43.2201 29.8188C42.7124 33.1924 41.1625 36.2571 38.7372 38.6808C36.3118 41.105 33.2465 42.6537 29.8723 43.1593C29.8661 43.1598 29.8593 43.1604 29.852 43.1604Z" fill="#E7886A"/>
<path d="M43.0828 25.2251C43.0139 25.2251 42.954 25.1748 42.9433 25.1048C41.8114 17.5266 35.1696 11.8117 27.4948 11.8117C24.3115 11.8117 21.2491 12.7634 18.6385 14.5635C18.5741 14.6076 18.4865 14.5918 18.4419 14.5274C18.3978 14.463 18.4137 14.3754 18.478 14.3308C21.1361 12.498 24.2539 11.5293 27.4948 11.5293C31.3283 11.5293 35.0313 12.9125 37.9214 15.4237C40.7828 17.9106 42.6654 21.3335 43.2229 25.063C43.2341 25.1404 43.1811 25.2121 43.1042 25.2234C43.0969 25.2245 43.0901 25.2251 43.0828 25.2251Z" fill="#E7886A"/>
<path d="M25.1457 43.1608C25.1389 43.1608 25.1315 43.1602 25.1248 43.1591C21.3958 42.6016 17.973 40.7185 15.4866 37.8576C12.9755 34.9675 11.5928 31.2651 11.5928 27.4322C11.5928 25.6078 11.8995 23.8185 12.5038 22.1144C13.0879 20.4674 13.9368 18.9356 15.0269 17.5602C15.0755 17.4992 15.1641 17.4891 15.2251 17.5371C15.2861 17.5857 15.2963 17.6743 15.2483 17.7353C13.0415 20.5188 11.8752 23.8716 11.8752 27.4316C11.8752 35.1058 17.5895 41.747 25.1665 42.8795C25.2439 42.8913 25.297 42.9631 25.2852 43.0399C25.275 43.1105 25.2146 43.1608 25.1457 43.1608Z" fill="#E7886A"/>
<path d="M27.4767 39.1558C21.0169 39.1558 15.7612 33.9002 15.7612 27.4397C15.7612 21.8271 19.7556 16.9883 25.2587 15.9332C25.3355 15.9185 25.4095 15.9688 25.4242 16.045C25.4389 16.1219 25.3886 16.1959 25.3124 16.2105C19.942 17.2396 16.0436 21.9621 16.0436 27.4392C16.0436 33.7437 21.1728 38.8729 27.4767 38.8729C33.7813 38.8729 38.9104 33.7437 38.9104 27.4392C38.9104 21.9723 35.0211 17.2515 29.6626 16.2145C29.5858 16.1998 29.5361 16.1258 29.5508 16.049C29.5655 15.9722 29.64 15.9225 29.7163 15.9372C35.2074 17.0002 39.1928 21.8373 39.1928 27.4392C39.1928 33.9002 33.9372 39.1558 27.4767 39.1558Z" fill="#E7886A"/>
<path d="M27.5394 34.4127C23.7511 34.4127 20.6694 31.331 20.6694 27.5428C20.6694 23.7545 23.7511 20.6729 27.5394 20.6729C30.83 20.6729 33.6677 23.0152 34.2861 26.2426C34.3008 26.3194 34.2506 26.3934 34.1743 26.408C34.0975 26.4227 34.0235 26.3725 34.0088 26.2962C33.4158 23.2021 30.695 20.9558 27.5394 20.9558C23.907 20.9558 20.9518 23.911 20.9518 27.5433C20.9518 31.1757 23.907 34.1308 27.5394 34.1308C30.6888 34.1308 33.409 31.8902 34.0066 28.8029C34.0212 28.7261 34.0958 28.6764 34.172 28.6911C34.2489 28.7057 34.2986 28.7797 34.2839 28.8565C33.6609 32.076 30.8243 34.4127 27.5394 34.4127Z" fill="#E7886A"/>
<path d="M27.4996 54.8566C23.8062 54.8566 20.223 54.133 16.8499 52.7063C13.592 51.3281 10.6662 49.3558 8.15333 46.8429C5.641 44.3306 3.66808 41.4042 2.28992 38.1463C0.863184 34.7732 0.139648 31.19 0.139648 27.4966C0.139648 23.8033 0.863184 20.2201 2.28992 16.8469C3.66808 13.5891 5.64044 10.6633 8.15333 8.1504C10.6657 5.63808 13.592 3.66516 16.8499 2.28699C20.223 0.860254 23.8062 0.136719 27.4996 0.136719C31.1929 0.136719 34.7762 0.860254 38.1493 2.28699C41.4072 3.66516 44.3329 5.63751 46.8458 8.1504C49.3587 10.6627 51.3311 13.5891 52.7092 16.8469C54.136 20.2201 54.8595 23.8033 54.8595 27.4966C54.8595 31.19 54.136 34.7732 52.7092 38.1463C51.3311 41.4042 49.3587 44.33 46.8458 46.8429C44.3335 49.3552 41.4072 51.3281 38.1493 52.7063C34.7756 54.133 31.1929 54.8566 27.4996 54.8566ZM27.4996 0.420259C12.5691 0.420259 0.422623 12.5667 0.422623 27.4972C0.422623 42.4277 12.5691 54.5742 27.4996 54.5742C42.4301 54.5742 54.5765 42.4277 54.5765 27.4972C54.5765 12.5673 42.4295 0.420259 27.4996 0.420259Z" fill="#E7886A"/>
<path d="M27.5012 51.7364C24.2212 51.7364 21.039 51.0936 18.0432 49.8267C15.1497 48.6028 12.5515 46.8507 10.3199 44.6197C8.08826 42.388 6.33675 39.7899 5.11278 36.8963C3.84589 33.9005 3.20312 30.7183 3.20312 27.4384C3.20312 21.3852 5.44264 15.5856 9.50879 11.1083C13.5467 6.66143 19.0475 3.87743 24.9967 3.26799C25.1521 3.25274 25.2904 3.36514 25.3063 3.5199C25.3221 3.67522 25.2091 3.8136 25.0544 3.82942C12.9192 5.07259 3.76851 15.2219 3.76851 27.4384C3.76851 40.5247 14.4154 51.1716 27.5023 51.1716C33.1471 51.1716 38.6168 49.1563 42.9038 45.4968C43.0224 45.3957 43.2004 45.4098 43.302 45.5285C43.4031 45.6471 43.389 45.8255 43.2704 45.9267C41.1179 47.7646 38.6886 49.1987 36.0514 50.1905C33.3199 51.2156 30.4439 51.7364 27.5012 51.7364Z" fill="#124268"/>
<path d="M46.4608 42.4602C46.4004 42.4602 46.3388 42.441 46.2874 42.4009C46.1643 42.3049 46.1422 42.1276 46.2383 42.0044C49.5063 37.8072 51.2335 32.7702 51.2335 27.4377C51.2335 15.211 42.0738 5.06006 29.9268 3.82705C29.7715 3.81124 29.6585 3.67286 29.6743 3.51753C29.6901 3.36221 29.8285 3.24981 29.9839 3.26506C35.9376 3.86998 41.4435 6.65229 45.4859 11.1003C49.5566 15.5787 51.7984 21.3811 51.7984 27.4377C51.7984 30.1878 51.3425 32.8865 50.4434 35.4587C49.5741 37.9451 48.3095 40.2642 46.6845 42.3518C46.628 42.423 46.545 42.4602 46.4608 42.4602Z" fill="#124268"/>
<path d="M7.48346 25.2725C7.47216 25.2725 7.46086 25.2719 7.449 25.2702C7.29424 25.2516 7.1841 25.111 7.20274 24.9562C8.44196 14.7132 17.1679 6.98926 27.5013 6.98926C31.9408 6.98926 36.1634 8.38832 39.7127 11.0345C39.8375 11.1277 39.8635 11.3045 39.7703 11.4299C39.6771 11.5547 39.5003 11.5807 39.3749 11.4875C35.9245 8.91417 31.8182 7.55408 27.5013 7.55408C17.4537 7.55408 8.96837 15.0645 7.76361 25.024C7.7461 25.1675 7.6241 25.2725 7.48346 25.2725Z" fill="#124268"/>
<path d="M27.5013 47.887C17.1679 47.887 8.44196 40.163 7.20274 29.92C7.1841 29.7652 7.29424 29.6246 7.449 29.606C7.60376 29.5873 7.7444 29.6975 7.76304 29.8522C8.9678 39.8117 17.4525 47.3221 27.5007 47.3221C38.4639 47.3221 47.383 38.403 47.383 27.4399C47.383 22.8756 45.7981 18.4174 42.9198 14.8862C42.8215 14.7653 42.8396 14.5874 42.9604 14.4891C43.0813 14.3908 43.2592 14.4089 43.3581 14.5298C44.813 16.3152 45.9472 18.3135 46.7289 20.4694C47.5377 22.7005 47.9478 25.0456 47.9478 27.4404C47.9478 30.2007 47.4073 32.8785 46.3409 35.3993C45.3112 37.8343 43.8365 40.0207 41.959 41.8987C40.081 43.7762 37.8945 45.2509 35.4596 46.2806C32.9394 47.3459 30.2616 47.887 27.5013 47.887Z" fill="#124268"/>
<path d="M29.853 43.3033C29.7157 43.3033 29.5949 43.2027 29.574 43.0626C29.5508 42.9084 29.657 42.7644 29.8112 42.7413C36.4603 41.7443 41.8023 36.4045 42.8026 29.756C42.8258 29.6018 42.9693 29.4956 43.124 29.5188C43.2782 29.542 43.3844 29.686 43.3612 29.8402C42.849 33.2438 41.2855 36.3356 38.8387 38.7813C36.3919 41.227 33.2995 42.7893 29.8948 43.2999C29.8812 43.3021 29.8671 43.3033 29.853 43.3033Z" fill="#124268"/>
<path d="M43.0841 25.3688C42.9463 25.3688 42.826 25.2683 42.8051 25.1282C41.6833 17.6183 35.102 11.9554 27.4961 11.9554C24.3416 11.9554 21.3068 12.8981 18.72 14.6818C18.5917 14.7705 18.4155 14.7383 18.3274 14.6095C18.2387 14.4813 18.2709 14.3051 18.3997 14.217C21.0815 12.3678 24.227 11.3906 27.4967 11.3906C31.3646 11.3906 35.1003 12.7863 38.0159 15.3201C40.9027 17.829 42.8022 21.2823 43.3642 25.0452C43.3874 25.1994 43.2806 25.3434 43.1264 25.366C43.1118 25.3677 43.0976 25.3688 43.0841 25.3688Z" fill="#124268"/>
<path d="M25.1458 43.3049C25.1317 43.3049 25.1176 43.3038 25.1035 43.3016C21.3412 42.739 17.8879 40.8395 15.3801 37.9527C12.8468 35.0371 11.4512 31.3014 11.4512 27.4346C11.4512 25.5939 11.7601 23.7887 12.3701 22.0699C12.9592 20.4082 13.8161 18.8629 14.9158 17.4751C15.0124 17.3531 15.1903 17.3322 15.3123 17.4294C15.4343 17.5265 15.4552 17.7039 15.358 17.8259C13.1716 20.5839 12.0154 23.9067 12.0154 27.4346C12.0154 35.0394 17.6778 41.6201 25.1865 42.7429C25.3407 42.7661 25.4469 42.9096 25.4243 43.0643C25.4034 43.2044 25.2831 43.3049 25.1458 43.3049Z" fill="#124268"/>
<path d="M27.4783 39.3003C20.9405 39.3003 15.6216 33.9813 15.6216 27.443C15.6216 21.7631 19.664 16.8656 25.2337 15.7981C25.3868 15.7687 25.5348 15.8692 25.5641 16.0223C25.5935 16.1754 25.493 16.3234 25.3399 16.3527C20.0357 17.3694 16.1858 22.0331 16.1858 27.443C16.1858 33.6696 21.2517 38.7354 27.4777 38.7354C33.7043 38.7354 38.7702 33.6696 38.7702 27.443C38.7702 22.0439 34.9289 17.3813 29.637 16.3567C29.484 16.3273 29.384 16.1788 29.4134 16.0257C29.4433 15.8726 29.5913 15.7721 29.7444 15.802C35.3016 16.878 39.335 21.7733 39.335 27.443C39.3356 33.9808 34.0167 39.3003 27.4783 39.3003Z" fill="#124268"/>
<path d="M27.5385 34.5574C23.6723 34.5574 20.5273 31.4119 20.5273 27.5463C20.5273 23.6806 23.6728 20.5352 27.5385 20.5352C30.8969 20.5352 33.7927 22.9255 34.4242 26.2189C34.4536 26.372 34.353 26.52 34.2 26.5494C34.0469 26.5787 33.8989 26.4782 33.8695 26.3251C33.2889 23.2971 30.6269 21.0994 27.5385 21.0994C23.984 21.0994 21.0922 23.9913 21.0922 27.5457C21.0922 31.1001 23.984 33.992 27.5385 33.992C30.6207 33.992 33.2821 31.7994 33.8667 28.7787C33.8967 28.6257 34.0446 28.5257 34.1977 28.555C34.3508 28.585 34.4507 28.733 34.4214 28.886C33.7854 32.1727 30.8907 34.5574 27.5385 34.5574Z" fill="#124268"/>
<path d="M27.5 55C23.7874 55 20.1861 54.2731 16.7955 52.839C13.5207 51.4541 10.5797 49.471 8.05435 46.9457C5.52903 44.4203 3.54595 41.4793 2.161 38.2045C0.726924 34.8139 0 31.2126 0 27.5C0 23.7874 0.726924 20.1861 2.161 16.7955C3.54595 13.5207 5.52903 10.5797 8.05435 8.05435C10.5797 5.52903 13.5207 3.54595 16.7955 2.161C20.1861 0.726924 23.7874 0 27.5 0C31.2126 0 34.8139 0.726924 38.2045 2.161C41.4793 3.54595 44.4203 5.52903 46.9457 8.05435C49.471 10.5797 51.4541 13.5207 52.839 16.7955C54.2731 20.1861 55 23.7874 55 27.5C55 31.2126 54.2731 34.8139 52.839 38.2045C51.4541 41.4793 49.471 44.4203 46.9457 46.9457C44.4203 49.471 41.4793 51.4541 38.2045 52.839C34.8139 54.2731 31.212 55 27.5 55ZM27.5 0.563691C12.6475 0.563691 0.564256 12.6469 0.564256 27.4994C0.564256 42.352 12.6475 54.4352 27.5 54.4352C42.3525 54.4352 54.4358 42.352 54.4358 27.4994C54.4358 12.6469 42.3525 0.563691 27.5 0.563691Z" fill="#124268"/>
</svg>
