<svg width="57" height="57" viewBox="0 0 57 57" fill="none" xmlns="http://www.w3.org/2000/svg">
<path d="M56 28.4997C56 25.3214 54.7623 22.3335 52.515 20.0856C52.2688 19.8394 52.0135 19.606 51.7499 19.3841C51.8007 19.2948 51.8296 19.1919 51.8296 19.0826C51.8296 18.8009 51.6393 18.5637 51.3802 18.4917C51.6695 15.1134 50.525 11.6343 47.9454 9.05463C46.6009 7.71016 45.0089 6.73282 43.2124 6.15028C41.7046 5.66162 40.0907 5.47901 38.5064 5.61404C38.4318 5.35813 38.1958 5.17038 37.9168 5.17038C37.8049 5.17038 37.7001 5.2006 37.6101 5.25332C35.4259 2.65439 32.1525 1 28.5003 1C24.8475 1 21.5748 2.65504 19.3906 5.25332C19.2999 5.2006 19.1951 5.17038 19.0832 5.17038C18.8042 5.17038 18.5682 5.35813 18.4936 5.61339C18.1547 5.58446 17.8127 5.56903 17.4687 5.56903C14.2904 5.56903 11.3018 6.80677 9.05463 9.05463C7.70823 10.401 6.7309 11.9956 6.14835 13.794C5.66097 15.2999 5.47901 16.9112 5.61404 18.493C5.35813 18.5669 5.17038 18.8035 5.17038 19.0826C5.17038 19.1944 5.20124 19.2993 5.25332 19.3893C2.65439 21.5735 1 24.8469 1 28.499C1 32.1518 2.65503 35.4246 5.25332 37.6088C5.2006 37.6995 5.17038 37.8043 5.17038 37.9161C5.17038 38.1978 5.3607 38.435 5.61982 38.507C5.33048 41.8853 6.47499 45.3644 9.05463 47.9447C10.3997 49.2898 11.9931 50.2672 13.7902 50.8497C14.9758 51.2342 16.2271 51.429 17.4777 51.429C17.8165 51.429 18.156 51.4143 18.4936 51.386C18.5682 51.6419 18.8042 51.8296 19.0832 51.8296C19.1951 51.8296 19.2999 51.7994 19.3906 51.7467C21.5748 54.3456 24.8482 56 28.5003 56C32.1531 56 35.4259 54.345 37.6101 51.7467C37.7007 51.7994 37.8049 51.8296 37.9168 51.8296C38.1958 51.8296 38.4318 51.6419 38.5064 51.3866C38.8452 51.4155 39.1873 51.431 39.5313 51.431C42.7096 51.431 45.6981 50.1932 47.9454 47.946C49.2886 46.6028 50.2652 45.0114 50.8484 43.2175C51.3384 41.7091 51.521 40.0933 51.386 38.5077C51.6419 38.4331 51.8296 38.1971 51.8296 37.9181C51.8296 37.8062 51.7988 37.7014 51.7467 37.6107C54.3456 35.4252 56 32.1525 56 28.4997ZM43.5544 28.3299C41.4731 27.5841 39.2298 27.431 37.0603 27.8895C36.5312 28.0014 36.0129 28.1486 35.5088 28.3299C34.4923 27.9538 33.5304 27.4349 32.6501 26.7816C32.8109 25.6995 33.124 24.6489 33.5818 23.6561C36.0656 22.4782 38.0788 20.4643 39.2574 17.9811C40.78 17.2784 42.4086 16.9222 44.1003 16.9222C44.1003 16.9222 44.1003 16.9222 44.101 16.9222C46.462 16.9222 48.7144 17.6249 50.6208 18.9295C50.608 18.9784 50.6009 19.0298 50.6009 19.0826C50.6009 19.3076 50.723 19.505 50.9044 19.6117C50.4903 21.8275 49.4281 23.9442 47.7178 25.6551C46.5179 26.8549 45.1008 27.7583 43.5544 28.3299ZM43.0574 28.501C41.9322 28.8591 40.7465 29.0456 39.532 29.0456C38.3225 29.0456 37.1413 28.8604 36.0206 28.5055C38.2756 27.7892 40.7375 27.7622 43.0574 28.501ZM37.9174 50.6009C37.6898 50.6009 37.4905 50.7256 37.3844 50.9108C35.1095 50.4864 33.0166 49.3895 31.3449 47.7184C30.1444 46.518 29.241 45.1008 28.6694 43.5551C29.4166 41.4712 29.5683 39.2233 29.1079 37.052C28.9961 36.526 28.8495 36.011 28.6694 35.5095C29.0456 34.4923 29.5651 33.5304 30.2184 32.6495C32.6585 33.0108 34.9102 34.1386 36.6861 35.9145C38.8729 38.1013 40.0772 41.0089 40.0772 44.1016C40.0772 46.5173 39.3333 48.762 38.0627 50.6202C38.0164 50.6073 37.9676 50.6009 37.9174 50.6009ZM27.9538 39.5313C27.9538 38.3219 28.139 37.1413 28.4939 36.0206C29.2102 38.2756 29.2372 40.7382 28.4984 43.0568C28.1403 41.9316 27.9538 40.7459 27.9538 39.5313ZM28.4984 35.0594C28.146 34.1901 27.6921 33.3651 27.1436 32.6013C27.5905 32.5492 28.0432 32.5228 28.5003 32.5228C28.9568 32.5228 29.4095 32.5498 29.8564 32.6013C29.3047 33.3683 28.8495 34.1926 28.4984 35.0594ZM30.4421 32.3589C30.7212 32.0065 31.0221 31.6676 31.3449 31.3442C31.6676 31.0215 32.0065 30.7212 32.3601 30.4434C32.5125 31.3699 32.7736 32.2733 33.1394 33.1369C32.2785 32.7723 31.3744 32.5112 30.4421 32.3589ZM31.1179 31.1173C30.7418 31.4934 30.3952 31.8901 30.0769 32.3048C29.5587 32.2367 29.0321 32.2013 28.5003 32.2013C27.9679 32.2013 27.442 32.236 26.9231 32.3048C26.6042 31.8888 26.2576 31.4921 25.8827 31.1173C24.7369 29.9715 23.3983 29.0886 21.9406 28.4977C23.4079 27.9036 24.7466 27.0182 25.8827 25.8821C26.2589 25.506 26.6061 25.1086 26.925 24.6932C27.4407 24.762 27.9666 24.798 28.5003 24.798C29.0346 24.798 29.5606 24.762 30.0769 24.6932C30.3958 25.1099 30.743 25.5072 31.1179 25.8821C32.2637 27.0279 33.6024 27.9107 35.06 28.5016C33.5927 29.0957 32.254 29.9811 31.1179 31.1173ZM12.899 40.0772C10.4833 40.0772 8.23869 39.3333 6.38047 38.0627C6.39204 38.0158 6.39847 37.9669 6.39847 37.9168C6.39847 37.6917 6.27631 37.4943 6.09499 37.3876C6.50907 35.1719 7.57063 33.0552 9.2816 31.3442C10.482 30.1438 11.8998 29.2404 13.4455 28.6688C14.7412 29.133 16.0998 29.3683 17.4648 29.3683C18.2917 29.3683 19.1211 29.2822 19.9403 29.1092C20.4695 28.9973 20.9871 28.8501 21.4912 28.6688C22.5077 29.0449 23.469 29.5638 24.3492 30.2171C23.5121 35.8457 18.608 40.0778 12.899 40.0772ZM13.9432 28.4984C15.0684 28.1402 16.2541 27.9538 17.4687 27.9538C18.6781 27.9538 19.8587 28.139 20.98 28.4939C18.7244 29.2102 16.2625 29.2372 13.9432 28.4984ZM24.6405 30.4415C24.9929 30.7212 25.3323 31.0221 25.6551 31.3449C25.9773 31.667 26.2769 32.0059 26.5553 32.3589C25.6288 32.5106 24.7273 32.7729 23.8574 33.1426C24.2226 32.2804 24.4875 31.3744 24.6405 30.4415ZM19.0832 6.39847C19.3108 6.39847 19.5102 6.27309 19.6162 6.08856C21.8911 6.51292 23.984 7.60985 25.6558 9.28096C26.8562 10.4814 27.7596 11.8992 28.3312 13.4449C27.5841 15.5295 27.4323 17.7767 27.8933 19.9493C28.0046 20.4746 28.1518 20.989 28.3312 21.4899C27.9551 22.5064 27.4362 23.4677 26.7829 24.3479C21.2108 23.5159 16.9228 18.6981 16.9228 12.8977C16.9228 10.482 17.6667 8.2374 18.9373 6.37918C18.9836 6.39204 19.0324 6.39847 19.0832 6.39847ZM29.0462 17.468C29.0462 18.6768 28.861 19.858 28.5061 20.9781C27.7898 18.7231 27.7628 16.2612 28.501 13.9419C28.8597 15.0678 29.0462 16.2535 29.0462 17.468ZM28.5022 21.9393C28.8546 22.8086 29.3085 23.6329 29.8564 24.3962C29.4114 24.4482 28.9588 24.4759 28.5003 24.4759C28.0419 24.4759 27.5899 24.4482 27.1449 24.3962C27.6966 23.6304 28.1512 22.8061 28.5022 21.9393ZM26.5598 24.6386C26.2801 24.9916 25.9785 25.3311 25.6551 25.6545C25.3323 25.9773 24.9935 26.2775 24.6399 26.5553C24.4868 25.6256 24.2245 24.7196 23.8574 23.8541C24.7119 24.2181 25.6172 24.4836 26.5598 24.6386ZM31.3449 25.6551C31.0221 25.3324 30.7212 24.9922 30.4428 24.6386C31.3841 24.4836 32.2888 24.2181 33.1426 23.8548C32.7749 24.7215 32.5119 25.6281 32.3595 26.5585C32.0071 26.2788 31.6683 25.9779 31.3449 25.6551ZM47.7184 9.2816C50.235 11.7982 51.348 15.1945 51.0587 18.4897C50.9519 18.518 50.8568 18.5733 50.7809 18.6492C48.8256 17.3176 46.5186 16.6007 44.101 16.6007C44.101 16.6007 44.101 16.6007 44.1003 16.6007C42.4852 16.6007 40.9246 16.9177 39.4554 17.5426C40.0624 16.1152 40.3993 14.5457 40.3993 12.899C40.3993 10.4268 39.6413 8.12874 38.3456 6.22423C38.4254 6.14642 38.4833 6.04741 38.5115 5.93617C41.9406 5.62947 45.2667 6.82991 47.7184 9.2816ZM28.5003 1.32085C32.065 1.32085 35.2574 2.94052 37.3831 5.48158C37.3323 5.57096 37.3027 5.67383 37.3027 5.78378C37.3027 6.12263 37.5786 6.39783 37.9168 6.39783C37.9676 6.39783 38.0158 6.39076 38.0634 6.37918C39.3339 8.23676 40.0778 10.482 40.0778 12.8977C40.0778 18.6968 35.7924 23.5134 30.2216 24.3473C29.569 23.4619 29.052 22.4942 28.6778 21.4777C29.1311 20.2078 29.3677 18.8556 29.3677 17.4668C29.3677 14.2885 28.13 11.2999 25.8821 9.0527C24.1692 7.3398 22.0261 6.21458 19.6966 5.77542C19.6953 5.66805 19.6664 5.56774 19.6169 5.4803C21.7426 2.94052 24.9356 1.32085 28.5003 1.32085ZM9.28224 9.2816C11.469 7.09482 14.3766 5.89052 17.4687 5.89052C17.8114 5.89052 18.1509 5.90595 18.4885 5.93553C18.5167 6.04676 18.5746 6.14578 18.655 6.22423C17.3594 8.12874 16.6013 10.4274 16.6013 12.899C16.6013 14.5457 16.9376 16.1152 17.5452 17.5426C16.076 16.9183 14.5155 16.6007 12.8997 16.6007C10.4274 16.6007 8.12938 17.3587 6.22423 18.6543C6.14642 18.5746 6.0474 18.5167 5.93617 18.4885C5.62947 15.0594 6.82991 11.7339 9.28224 9.2816ZM1.32149 28.4997C1.32149 24.935 2.94116 21.7426 5.48222 19.6169C5.5716 19.6677 5.67448 19.6973 5.78443 19.6973C6.12328 19.6973 6.39847 19.4214 6.39847 19.0832C6.39847 19.0324 6.3914 18.9842 6.38047 18.9373C8.23869 17.6667 10.4833 16.9228 12.899 16.9228C14.5907 16.9228 16.2194 17.2796 17.7426 17.9818C18.9205 20.4656 20.9344 22.4788 23.4182 23.6574C23.8754 24.6489 24.1885 25.6976 24.3492 26.7784C23.4638 27.431 22.4962 27.9486 21.4802 28.3229C20.2097 27.8696 18.8575 27.6329 17.4687 27.6329C14.2904 27.6329 11.3018 28.8707 9.05463 31.1179C7.30315 32.8694 6.21329 35.0356 5.78443 37.3034C5.67448 37.3034 5.5716 37.333 5.48287 37.3838C2.94116 35.2568 1.32149 32.0644 1.32149 28.4997ZM9.28224 47.7178C6.76562 45.2011 5.65261 41.8049 5.94196 38.5096C6.05062 38.4807 6.14771 38.4235 6.22423 38.345C8.12874 39.6406 10.4274 40.3987 12.899 40.3987C14.5084 40.3987 16.085 40.0733 17.542 39.4561C16.9177 40.9253 16.6007 42.4852 16.6007 44.1003C16.6007 46.5726 17.3587 48.8706 18.6543 50.7758C18.5746 50.8536 18.5167 50.9526 18.4878 51.0638C15.0601 51.3705 11.7339 50.1694 9.28224 47.7178ZM28.5003 55.6785C24.9356 55.6785 21.7432 54.0588 19.6175 51.5178C19.6683 51.4284 19.6979 51.3255 19.6979 51.2156C19.6979 50.8767 19.4221 50.6015 19.0839 50.6015C19.0331 50.6015 18.9848 50.6086 18.9379 50.6202C17.6674 48.762 16.9234 46.5173 16.9234 44.1016C16.9234 42.4112 17.2796 40.7832 17.9818 39.2606C18.9739 38.7919 19.9037 38.1856 20.7415 37.4513C21.9805 36.3653 22.9694 35.0446 23.6612 33.5818C24.6585 33.1221 25.7021 32.8115 26.7784 32.6514C27.431 33.5368 27.9486 34.5051 28.3229 35.5217C27.8696 36.7916 27.6329 38.1444 27.6329 39.5326C27.6329 42.7109 28.8707 45.6988 31.1185 47.9467C32.8314 49.6596 34.9745 50.7848 37.304 51.2239C37.3053 51.3313 37.3342 51.4316 37.3838 51.5191C35.2574 54.0588 32.0644 55.6785 28.5003 55.6785ZM47.7184 47.7178C45.5316 49.9045 42.6241 51.1088 39.532 51.1088C39.1892 51.1088 38.8498 51.0934 38.5122 51.0638C38.4839 50.9526 38.4254 50.8529 38.3456 50.7751C39.6413 48.8706 40.3993 46.572 40.3993 44.1003C40.3993 42.4794 40.0772 40.9092 39.4638 39.4606C40.9304 40.083 42.4884 40.3987 44.101 40.3987C46.5732 40.3987 48.8713 39.6406 50.7758 38.345C50.8536 38.4247 50.9526 38.4826 51.0638 38.5109C51.3705 41.9399 50.1701 45.2667 47.7184 47.7178ZM51.5178 37.3825C51.4284 37.3317 51.3255 37.3021 51.2156 37.3021C50.8767 37.3021 50.6015 37.5779 50.6015 37.9161C50.6015 37.9669 50.6086 38.0152 50.6202 38.0621C48.7626 39.3326 46.5173 40.0766 44.1016 40.0766C42.4144 40.0766 40.789 39.7216 39.269 39.0227C38.6909 37.7991 37.9001 36.6713 36.9144 35.6863C35.9287 34.7012 34.8015 33.9097 33.5773 33.3317C33.1227 32.3434 32.8115 31.2979 32.6508 30.2209C33.5361 29.5683 34.5038 29.0507 35.5197 28.6765C36.7903 29.1298 38.1425 29.3664 39.5313 29.3664C42.7096 29.3664 45.6981 28.1287 47.9454 25.8808C49.6968 24.1293 50.7867 21.9631 51.2156 19.6953C51.3274 19.6953 51.4323 19.6645 51.5229 19.6117C51.7865 19.8323 52.0418 20.065 52.2874 20.3113C54.4742 22.4981 55.6785 25.4057 55.6785 28.4977C55.6785 32.0644 54.0595 35.2568 51.5178 37.3825Z" fill="#6237A0" stroke="#6237A0" stroke-width="0.2"/>
</svg>
