<svg width="55" height="55" viewBox="0 0 55 55" fill="none" xmlns="http://www.w3.org/2000/svg">
<path d="M4.93604 42.48H50.0642V12.6924H4.93604V42.48ZM32.971 16.128C32.9721 16.1269 32.9731 16.1254 32.9742 16.1243C32.9752 16.1233 32.9768 16.1223 32.9779 16.1212C34.8068 14.2429 37.2688 13.2087 39.9108 13.2087C45.2057 13.2087 49.5135 17.4492 49.5135 22.6613C49.5135 27.7424 45.501 31.8709 40.3603 32.1032L37.111 28.7498C37.9748 29.1292 38.9305 29.3404 39.936 29.3404C43.7717 29.3404 46.892 26.2689 46.892 22.493C46.892 18.7173 43.7717 15.6457 39.936 15.6457C36.1002 15.6457 32.98 18.7173 32.98 22.493C32.98 24.3379 33.7253 26.0143 34.9342 27.2467C34.9406 27.255 34.9464 27.2643 34.9542 27.272L49.1894 41.9637H5.84658L32.971 16.128ZM40.8313 32.5891C43.2493 32.3748 45.4905 31.3225 47.1925 29.5892C48.2741 28.488 49.0692 27.1802 49.5397 25.7597V41.577L40.8313 32.5891ZM33.5044 22.493C33.5044 19.0023 36.3898 16.162 39.936 16.162C43.4822 16.162 46.3675 19.0023 46.3675 22.493C46.3675 25.9838 43.4822 28.8241 39.936 28.8241C36.3898 28.8241 33.5044 25.9838 33.5044 22.493ZM5.46054 41.6127V13.5954L19.5793 28.1647L5.46054 41.6127ZM19.9564 27.8059L5.81092 13.2087H15.4398L25.3604 22.6582L19.9564 27.8059ZM49.5397 13.2087V19.5728C48.5474 16.5823 46.1556 14.2098 43.1292 13.2087H49.5397ZM32.6039 15.7593L25.738 22.2989L16.1946 13.2087H36.6735C35.1462 13.7131 33.7557 14.5775 32.6039 15.7593Z" fill="#6237A0"/>
<path d="M5.06787 42.3508H49.9338V12.8213H5.06787V42.3508ZM32.8805 16.0348C32.881 16.0343 32.8815 16.0333 32.8821 16.0328C32.8826 16.0322 32.8831 16.0317 32.8841 16.0312C34.7378 14.1276 37.2339 13.0789 39.9121 13.0789C45.2794 13.0789 49.6459 17.3773 49.6459 22.6607C49.6459 27.8311 45.5474 32.0281 40.3081 32.2342L36.4781 28.2813C37.493 28.8709 38.6758 29.2102 39.9372 29.2102C43.7006 29.2102 46.7621 26.1964 46.7621 22.4918C46.7621 18.7873 43.7006 15.7736 39.9372 15.7736C36.1738 15.7736 33.1123 18.7873 33.1123 22.4918C33.1123 24.3036 33.8451 25.9496 35.0331 27.1594C35.0378 27.1671 35.0436 27.1748 35.0503 27.1815L49.4969 42.0917H5.52314L32.8805 16.0348ZM40.5467 32.4815C43.037 32.3282 45.3554 31.2759 47.0994 29.4998C48.3975 28.1775 49.2776 26.5552 49.6721 24.7972V41.8996L40.5467 32.4815ZM33.374 22.4929C33.374 18.9309 36.3181 16.0328 39.9367 16.0328C43.5552 16.0328 46.4994 18.9309 46.4994 22.4929C46.4994 26.0549 43.5552 28.953 39.9367 28.953C36.3181 28.953 33.374 26.0549 33.374 22.4929ZM5.33012 41.9171V13.2726L19.7646 28.1682L5.33012 41.9171ZM19.9529 27.989L5.50479 13.08H15.493L25.5499 22.6581L19.9529 27.989ZM49.6715 13.0795V20.5345C48.8439 16.8517 45.9145 13.9376 42.19 13.08H49.6715V13.0795ZM32.698 15.8495L25.7382 22.4784L15.8706 13.0795H37.6162C35.7553 13.5065 34.0585 14.4539 32.698 15.8495Z" fill="#6237A0"/>
<path d="M52.8396 16.7953C51.4546 13.5206 49.4715 10.5795 46.9462 8.05426C44.4209 5.52897 41.4799 3.54591 38.205 2.16099C34.8144 0.726917 31.2131 0 27.5006 0C23.788 0 20.1867 0.726917 16.7961 2.16099C13.5207 3.54591 10.5797 5.52841 8.05433 8.05426C5.52903 10.5795 3.54594 13.5206 2.16101 16.7953C0.726924 20.1859 0 23.7872 0 27.4997C0 31.2122 0.726924 34.8135 2.16101 38.2041C3.54594 41.4789 5.52903 44.4199 8.05433 46.9452C10.5797 49.4705 13.5207 51.4536 16.7955 52.8384C20.1861 54.2725 23.7874 55 27.5 55C31.2126 55 34.8139 54.2725 38.2045 52.8384C41.4793 51.4536 44.4203 49.4705 46.9457 46.9452C49.4709 44.4199 51.4541 41.4789 52.839 38.2041C54.2731 34.8135 55 31.2122 55 27.4997C55 23.7872 54.2736 20.1859 52.8396 16.7953ZM27.5 54.4352C12.6475 54.4352 0.564256 42.3521 0.564256 27.4997C0.564256 12.6473 12.6475 0.564251 27.5 0.564251C42.3525 0.564251 54.4358 12.6473 54.4358 27.4997C54.4358 42.3521 42.3525 54.4352 27.5 54.4352Z" fill="#6237A0"/>
</svg>
