<svg width="55" height="55" viewBox="0 0 55 55" fill="none" xmlns="http://www.w3.org/2000/svg">
<path d="M51.6738 27.0356L47.2247 19.3297L44.9214 10.7349C44.8361 10.4152 44.5842 10.1638 44.2645 10.078L35.6696 7.7752L27.9638 3.3261C27.6819 3.16343 27.317 3.16343 27.0346 3.3261L19.3293 7.7752L10.735 10.078C10.4153 10.1633 10.1634 10.4152 10.0781 10.7349L7.77536 19.3297L3.32627 27.0356C3.16078 27.322 3.16078 27.6778 3.32627 27.9642L7.77536 35.6694L10.0781 44.2649C10.164 44.5846 10.4153 44.8359 10.735 44.9212L19.3299 47.224L27.0363 51.6731C27.1775 51.7544 27.3379 51.7979 27.5012 51.7979C27.6638 51.7979 27.8248 51.755 27.9655 51.6731L35.6713 47.224L44.2656 44.9212C44.5853 44.8354 44.8367 44.5834 44.9225 44.2643L47.2253 35.67L51.6744 27.9636C51.8393 27.6778 51.8393 27.322 51.6738 27.0356ZM44.1188 10.6236C44.2442 10.6569 44.3424 10.7558 44.3763 10.8811L46.134 17.4398L45.9934 17.1964C45.8279 16.91 45.5195 16.7321 45.1891 16.7321H40.9744L40.5163 15.023C40.4457 14.7609 40.239 14.5542 39.9769 14.4841L38.2684 14.0261V9.81138C38.2684 9.48096 38.0904 9.17256 37.8041 9.00707L37.5601 8.86643L44.1188 10.6236ZM47.3168 21.8551C47.3501 21.9799 47.3145 22.1149 47.223 22.2064L44.3498 25.0796L42.2249 21.3998L41.1258 17.2964H45.1891C45.3185 17.2964 45.4393 17.3659 45.5043 17.4783L46.6989 19.5472L47.3168 21.8551ZM47.3168 33.1441L46.6983 35.4526L45.5043 37.5209C45.4393 37.6333 45.3185 37.7028 45.1891 37.7028H41.1258L42.2255 33.5988L44.3503 29.919L47.2236 32.7922C47.3145 32.8843 47.3501 33.0193 47.3168 33.1441ZM35.4527 46.6981L33.1449 47.3166C33.02 47.3499 32.8845 47.3138 32.793 47.2223L29.9197 44.349L33.5984 42.2248L37.7035 41.125V45.1884C37.7035 45.3177 37.6335 45.4386 37.5217 45.5035L35.4527 46.6981ZM17.4784 45.5041C17.366 45.4392 17.2966 45.3183 17.2966 45.1889V41.1256L21.4005 42.2253L25.0798 44.3496L22.2065 47.2229C22.115 47.3144 21.9806 47.3511 21.8552 47.3172L19.5468 46.6987L17.4784 45.5041ZM7.68273 33.1447C7.64941 33.0193 7.68556 32.8843 7.77706 32.7928L10.6503 29.9196L12.7746 33.5994L13.8737 37.7034H9.81041C9.6805 37.7034 9.5602 37.6339 9.49524 37.5215L8.30008 35.452L7.68273 33.1447ZM7.68273 21.8556L8.30121 19.5483L9.49581 17.4788C9.56076 17.3664 9.68107 17.2969 9.81098 17.2969H13.8743L12.7746 21.4009L10.6503 25.0807L7.77706 22.2075C7.68556 22.1154 7.64941 21.9804 7.68273 21.8556ZM19.5474 8.30161L21.8552 7.68313C21.8857 7.67466 21.9179 7.67071 21.9495 7.67071C22.0467 7.67071 22.1382 7.70855 22.2071 7.77746L25.0798 10.6507L21.4011 12.775L17.2966 13.8747V9.81138C17.2966 9.68203 17.3666 9.56116 17.4784 9.49621L19.5474 8.30161ZM37.5211 9.49564C37.6335 9.5606 37.703 9.68147 37.703 9.81081V13.8741L33.599 12.7744L29.9197 10.6507L32.793 7.77746C32.8619 7.70855 32.9534 7.67071 33.0505 7.67071C33.0822 7.67071 33.1138 7.67466 33.1449 7.68313L35.4527 8.30161L37.5211 9.49564ZM42.1555 23.3247C42.1735 23.3925 42.1543 23.4659 42.1046 23.5156L40.4243 25.196L39.5883 24.36C39.4132 24.1849 39.18 24.0884 38.9315 24.0884C38.8507 24.0884 38.7699 24.0991 38.6914 24.12L30.1118 26.4188L37.8041 21.9776C38.0904 21.8121 38.2684 21.5037 38.2684 21.1733V19.9911H40.6446C40.7152 19.9911 40.7807 20.029 40.8163 20.09L41.6991 21.6184L42.1555 23.3247ZM42.156 31.6756L41.6991 33.3814L40.8163 34.9103C40.7807 34.9713 40.7152 35.0092 40.6451 35.0092H38.2684V33.827C38.2684 33.496 38.0904 33.1882 37.8041 33.0227L30.1118 28.5815L38.6914 30.8803C38.7699 30.9012 38.8507 30.912 38.9315 30.912C39.18 30.912 39.4132 30.8154 39.5883 30.6397L40.4243 29.8038L42.1046 31.4841C42.1543 31.5344 42.1741 31.6078 42.156 31.6756ZM34.9105 40.8155L33.3804 41.6989L31.6752 42.1558C31.6069 42.1739 31.5334 42.1542 31.4837 42.1045L29.8034 40.4241L30.6393 39.5882C30.8732 39.3549 30.9652 39.0109 30.8794 38.6912L28.5811 30.111L33.0229 37.8039C33.1884 38.0903 33.4967 38.2682 33.8272 38.2682H35.0093V40.6444C35.0093 40.715 34.9715 40.7805 34.9105 40.8155ZM23.3243 42.1558L21.6186 41.6989L20.089 40.8161C20.028 40.7811 19.9902 40.7156 19.9902 40.645V38.2687H21.1724C21.5028 38.2687 21.8112 38.0908 21.9767 37.8045L26.4173 30.1127L24.1185 38.6918C24.0332 39.0115 24.1252 39.3549 24.3591 39.5887L25.195 40.4247L23.5152 42.1045C23.4661 42.1542 23.3938 42.1745 23.3243 42.1558ZM12.8441 31.6756C12.826 31.6073 12.8452 31.5344 12.8955 31.4847L14.5758 29.8043L15.4117 30.6403C15.5874 30.8159 15.8207 30.9125 16.0686 30.9125C16.1494 30.9125 16.2302 30.9018 16.3087 30.8809L24.8877 28.5821L17.196 33.0233C16.9096 33.1887 16.7317 33.4966 16.7317 33.8276V35.0097H14.355C14.2849 35.0097 14.2194 34.9719 14.1844 34.9109L13.3016 33.3819L12.8441 31.6756ZM12.8441 23.3242L13.301 21.6184L14.1838 20.0889C14.2188 20.0279 14.2849 19.99 14.3555 19.99H16.7317V21.1722C16.7317 21.5026 16.9096 21.811 17.196 21.9765L24.8877 26.4177L16.3081 24.1189C16.2296 24.098 16.1488 24.0872 16.0681 24.0872C15.8201 24.0872 15.5863 24.1838 15.4112 24.3595L14.5752 25.1954L12.8949 23.5151C12.8452 23.4654 12.826 23.3925 12.8441 23.3242ZM20.0896 14.1842L21.6191 13.3008L23.3238 12.8439C23.3407 12.8394 23.3576 12.8371 23.3752 12.8371C23.4282 12.8371 23.478 12.8575 23.5152 12.8953L25.1956 14.5756L24.3596 15.4116C24.1258 15.6454 24.0337 15.9888 24.119 16.3091L26.4178 24.8881L21.9772 17.1964C21.8117 16.91 21.5033 16.7321 21.1729 16.7321H19.9907V14.3559C19.9907 14.2853 20.0286 14.2192 20.0896 14.1842ZM31.6758 12.8445L33.3815 13.3014L34.9111 14.1842C34.9721 14.2192 35.0099 14.2853 35.0099 14.3554V16.7316H33.8277C33.4973 16.7316 33.1889 16.9095 33.0234 17.1958L28.5822 24.8881L30.8811 16.3085C30.9669 15.9888 30.8748 15.6454 30.641 15.4116L29.8051 14.5756L31.4854 12.8953C31.5227 12.858 31.5724 12.8371 31.6255 12.8371C31.6413 12.8377 31.6588 12.8399 31.6758 12.8445ZM35.0093 35.0092H32.2016C32.131 35.0092 32.0649 34.9713 32.0299 34.9103L28.0959 28.0958L34.9099 32.0297C34.9715 32.0653 35.0093 32.1308 35.0093 32.2014V35.0092ZM19.9907 19.9906H22.7985C22.8685 19.9906 22.9346 20.0284 22.9696 20.0894L26.9047 26.9046L20.0902 22.97C20.0292 22.9344 19.9907 22.8689 19.9907 22.7983V19.9906ZM34.9105 22.9694L28.0959 26.904L32.0293 20.09C32.0649 20.0284 32.131 19.9906 32.201 19.9906H35.0088V22.7989C35.0093 22.8689 34.9715 22.9344 34.9105 22.9694ZM29.5368 19.0564L27.5 26.6583L25.4633 19.0569C25.4452 18.9886 25.4644 18.9157 25.5147 18.8655L27.5 16.8801L29.4854 18.8655C29.5351 18.9152 29.5549 18.9886 29.5368 19.0564ZM19.0051 25.4569C19.0226 25.4569 19.0396 25.4592 19.0565 25.4637L26.6573 27.5004L19.0571 29.5372C18.9893 29.5553 18.9142 29.5349 18.8656 29.4863L16.8803 27.501L18.8662 25.5151C18.9023 25.4778 18.9532 25.4569 19.0051 25.4569ZM20.089 32.0303L26.9047 28.0958L22.9702 34.9109C22.9346 34.9719 22.8691 35.0103 22.7979 35.0103H19.9907V32.2026C19.9907 32.1308 20.0286 32.0653 20.089 32.0303ZM25.4633 35.9434L27.4995 28.3426L29.5362 35.9428C29.5543 36.0112 29.5351 36.084 29.4848 36.1343L27.4995 38.1196L25.5141 36.1343C25.465 36.0846 25.4452 36.0117 25.4633 35.9434ZM35.9435 29.5366L28.3428 27.4999L35.9435 25.4631C35.9605 25.4586 35.978 25.4564 35.9949 25.4564C36.048 25.4564 36.0977 25.4767 36.135 25.5145L38.1204 27.4999L36.135 29.4852C36.0848 29.5349 36.0113 29.5553 35.9435 29.5366ZM35.5742 19.9906H37.7035V21.1728C37.7035 21.3021 37.6335 21.423 37.5217 21.4879L35.5747 22.6119V19.9906H35.5742ZM35.5742 19.4258V17.2969H37.7035V19.4258H35.5742ZM35.0093 19.4258H32.388L33.512 17.4788C33.5769 17.3664 33.6978 17.2969 33.8272 17.2969H35.0093V19.4258ZM30.2406 15.8115C30.3321 15.903 30.3682 16.0374 30.3343 16.1628L29.7525 18.334L27.8988 16.4802L29.4041 14.975L30.2406 15.8115ZM27.5 16.0809L25.9942 14.5756L27.4995 13.0704L29.0047 14.5756L27.5 16.0809ZM27.1007 16.4802L25.2464 18.3345L24.6646 16.1628C24.6313 16.0374 24.6675 15.9024 24.759 15.8109L25.5949 14.975L27.1007 16.4802ZM21.1729 17.2969C21.3023 17.2969 21.4231 17.367 21.4881 17.4788L22.6121 19.4258H19.9907V17.2969H21.1729ZM19.4259 19.4258H17.2966V17.2969H19.4259V19.4258ZM19.4259 19.9906V22.6125L17.479 21.4885C17.3666 21.4235 17.2971 21.3027 17.2971 21.1733V19.9911H19.4259V19.9906ZM15.8111 24.7594C15.88 24.6905 15.9715 24.6526 16.0686 24.6526C16.1003 24.6526 16.1319 24.6566 16.163 24.665L18.3347 25.2468L16.4809 27.1005L14.9757 25.5947L15.8111 24.7594ZM16.0811 27.4999L14.5758 29.0051L13.0706 27.4993L14.5758 25.9941L16.0811 27.4999ZM16.4804 27.8992L18.3341 29.7529L16.163 30.3347C16.0376 30.3686 15.902 30.3319 15.8111 30.2404L14.9751 29.4045L16.4804 27.8992ZM17.2966 33.827C17.2966 33.6977 17.366 33.5768 17.4784 33.5118L19.4254 32.3878V35.0092H17.296V33.827H17.2966ZM19.4259 35.5746V37.7034H17.2966V35.5746H19.4259ZM19.9907 35.5746H22.6121L21.4881 37.5215C21.4231 37.6339 21.3023 37.7034 21.1729 37.7034H19.9907V35.5746ZM24.759 39.1888C24.6675 39.0973 24.6313 38.9624 24.6646 38.837L25.2464 36.6652L27.1001 38.519L25.5949 40.0242L24.759 39.1888ZM27.5 38.9189L29.0053 40.4241L27.5 41.9294L25.9948 40.4241L27.5 38.9189ZM27.8994 38.5195L29.7531 36.6658L30.3349 38.8375C30.3682 38.9629 30.3326 39.0979 30.2411 39.1894L29.4052 40.0253L27.8994 38.5195ZM33.8272 37.7034C33.6978 37.7034 33.5769 37.6339 33.512 37.5215L32.388 35.5746H35.0093V37.7039H33.8272V37.7034ZM35.5742 35.574H37.7035V37.7034H35.5742V35.574ZM35.5742 35.0092V32.3878L37.5211 33.5118C37.6335 33.5768 37.703 33.6971 37.703 33.827V35.0092H35.5742ZM39.1884 30.241C39.1201 30.3099 39.0286 30.3471 38.9315 30.3471C38.8998 30.3471 38.8682 30.3432 38.8377 30.3347L36.666 29.7529L38.5197 27.8992L40.0249 29.4045L39.1884 30.241ZM38.919 27.4999L40.4243 25.9946L41.9295 27.4999L40.4243 29.0051L38.919 27.4999ZM38.5197 27.1005L36.666 25.2468L38.8371 24.665C38.8682 24.6566 38.8998 24.6526 38.9315 24.6526C39.0286 24.6526 39.1201 24.6905 39.189 24.7588L40.0249 25.5947L38.5197 27.1005ZM40.6446 19.4258H38.2684V17.2969H40.5412L41.167 19.6336C41.0269 19.5026 40.8405 19.4258 40.6446 19.4258ZM38.2684 16.7321V14.6107L39.8312 15.0292C39.899 15.0473 39.9526 15.1009 39.9713 15.1693L40.3898 16.7321H38.2684ZM37.7035 16.7321H35.5742V14.3559C35.5742 14.1594 35.4973 13.9735 35.3663 13.8335L37.703 14.4593V16.7321H37.7035ZM31.6018 12.274C31.4069 12.2796 31.2239 12.3576 31.085 12.496L29.4046 14.1763L27.8994 12.6711L29.5063 11.0642L31.6018 12.274ZM27.5 12.2717L26.0004 10.7721L27.4018 9.96331C27.4317 9.9458 27.4656 9.93677 27.5006 9.93677C27.5351 9.93677 27.5695 9.9458 27.5994 9.96331L29.0002 10.7721L27.5 12.2717ZM27.1001 12.6711L25.5949 14.1763L23.9146 12.496C23.7762 12.357 23.5932 12.2796 23.3977 12.2734L25.4927 11.0636L27.1001 12.6711ZM19.6338 13.8329C19.5027 13.9724 19.4259 14.1594 19.4259 14.3554V16.7316H17.2966V14.4587L19.6338 13.8329ZM16.7317 16.7321H14.6103L15.0288 15.1698C15.0469 15.1015 15.1011 15.0478 15.1689 15.0298L16.7312 14.6112V16.7321H16.7317ZM16.7317 17.2969V19.4258H14.3555C14.159 19.4258 13.9726 19.5026 13.8331 19.6336L14.4589 17.2969H16.7317ZM12.2736 23.3987C12.2798 23.5902 12.3572 23.7766 12.4961 23.915L14.1765 25.5953L12.6712 27.1005L11.0643 25.4936L12.2736 23.3987ZM12.2713 27.4999L10.7717 29L9.96291 27.5987C9.9279 27.5383 9.9279 27.4626 9.96291 27.4016L10.7717 26.0008L12.2713 27.4999ZM12.6707 27.8992L14.1759 29.4045L12.4956 31.0848C12.3566 31.2237 12.2792 31.4096 12.273 31.601L11.0632 29.5061L12.6707 27.8992ZM13.8331 35.3667C13.9726 35.4977 14.159 35.5746 14.3555 35.5746H16.7317V37.7034H14.4589L13.8331 35.3667ZM16.7317 38.2682V40.3897L15.1694 39.9711C15.1011 39.953 15.0474 39.8988 15.0294 39.831L14.6108 38.2682H16.7317ZM17.2966 38.2682H19.4259V40.6444C19.4259 40.8409 19.5027 41.0273 19.6338 41.1668L17.2971 40.541V38.2682H17.2966ZM23.3983 42.7263C23.5932 42.7207 23.7756 42.6427 23.9146 42.5043L25.5949 40.824L27.1001 42.3292L25.4932 43.9362L23.3983 42.7263ZM27.5 42.7286L29.0002 44.2287L27.5989 45.0376C27.539 45.072 27.4616 45.072 27.4012 45.0376L26.0004 44.2287L27.5 42.7286ZM27.8994 42.3292L29.4046 40.824L31.085 42.5043C31.2233 42.6433 31.4063 42.7207 31.6012 42.7269L29.5063 43.9362L27.8994 42.3292ZM35.3663 41.1668C35.4973 41.0273 35.5742 40.8409 35.5742 40.6444V38.2682H37.7035V40.541L35.3663 41.1668ZM38.2684 38.2682H40.3898L39.9713 39.8305C39.9526 39.8988 39.899 39.9525 39.8312 39.9706L38.2684 40.3891V38.2682ZM38.2684 37.7034V35.574H40.6451C40.8411 35.574 41.0275 35.4972 41.167 35.3661L40.5412 37.7034H38.2684ZM42.7265 31.6016C42.7203 31.4101 42.6429 31.2237 42.5039 31.0848L40.8236 29.4045L42.3288 27.8992L43.9363 29.5067L42.7265 31.6016ZM42.7282 27.4999L44.2283 25.9997L45.0372 27.4005C45.0722 27.4615 45.0722 27.5377 45.0372 27.5987L44.2283 28.9995L42.7282 27.4999ZM42.3288 27.1005L40.8236 25.5953L42.5039 23.915C42.6429 23.776 42.7203 23.5902 42.7265 23.3987L43.9363 25.4936L42.3288 27.1005ZM27.3182 3.81524C27.3735 3.78361 27.4362 3.76666 27.5 3.76666C27.5639 3.76666 27.6266 3.78361 27.6819 3.81524L33.5623 7.21038L33.2906 7.13751C33.2121 7.11662 33.1313 7.10588 33.0505 7.10588C32.8026 7.10588 32.5693 7.20247 32.3937 7.37813L29.4137 10.3581L27.8819 9.47361C27.6503 9.33975 27.3504 9.33975 27.1188 9.47361L25.587 10.3581L22.6064 7.37756C22.4308 7.20247 22.1975 7.10588 21.9495 7.10588C21.8682 7.10588 21.7874 7.11662 21.7089 7.13751L21.4373 7.21038L27.3182 3.81524ZM10.6232 10.8811C10.6565 10.7558 10.7554 10.6575 10.8807 10.6242L17.4394 8.867L17.196 9.00764C16.9096 9.17313 16.7317 9.48152 16.7317 9.81194V14.0266L15.0231 14.4847C14.7611 14.5547 14.5543 14.7615 14.4837 15.0241L14.0257 16.7333H9.81098C9.47999 16.7333 9.1716 16.9112 9.00667 17.1975L8.86603 17.4415L10.6232 10.8811ZM3.81484 27.6823C3.74988 27.5699 3.74988 27.4304 3.81484 27.318L7.20998 21.4377L7.13712 21.7093C7.05183 22.029 7.14389 22.3724 7.37773 22.6063L10.3583 25.5868L9.47378 27.1186C9.33709 27.3542 9.33766 27.6467 9.47378 27.8817L10.3583 29.4135L7.37829 32.3935C7.14446 32.6273 7.05239 32.9707 7.13768 33.291L7.21054 33.5621L3.81484 27.6823ZM10.8807 44.3762C10.7559 44.3428 10.6571 44.244 10.6232 44.1192L8.86547 37.5599L9.00667 37.8039C9.17217 38.0903 9.47999 38.2682 9.81098 38.2682H14.0257L14.4837 39.9773C14.5543 40.2394 14.7611 40.4461 15.0231 40.5162L16.7317 40.9742V45.1889C16.7317 45.5194 16.9096 45.8277 17.196 45.9932L17.4389 46.1333L10.8807 44.3762ZM27.6819 51.1845C27.5718 51.2483 27.4289 51.2483 27.3182 51.1845L21.4373 47.7894L21.7089 47.8622C21.7874 47.8831 21.8682 47.8939 21.9495 47.8939C22.1975 47.8939 22.4308 47.7973 22.6064 47.6216L25.5864 44.6416L27.1182 45.5261C27.234 45.5933 27.3662 45.6284 27.5 45.6284C27.6339 45.6284 27.7661 45.5928 27.8813 45.5261L29.4137 44.6416L32.3937 47.6216C32.5693 47.7973 32.8026 47.8939 33.0505 47.8939C33.1313 47.8939 33.2126 47.8831 33.2906 47.8622L33.5628 47.7894L27.6819 51.1845ZM44.3763 44.1192C44.343 44.244 44.2442 44.3428 44.1188 44.3762L37.5606 46.1333L37.8041 45.9927C38.0904 45.8272 38.2684 45.5188 38.2684 45.1884V40.9737L39.9769 40.5156C40.239 40.4456 40.4457 40.2388 40.5163 39.9762L40.9744 38.2676H45.1891C45.5195 38.2676 45.8279 38.0897 45.9934 37.8033L46.134 37.5605L44.3763 44.1192ZM51.1847 27.6817L47.7895 33.5627L47.8624 33.2904C47.9483 32.9713 47.8562 32.6273 47.6224 32.3935L44.6424 29.4135L45.5269 27.8811C45.6624 27.6462 45.6624 27.3542 45.5269 27.1186L44.6424 25.5863L47.6229 22.6057C47.8568 22.3713 47.9488 22.0279 47.863 21.7088L47.7901 21.4371L51.1852 27.3174C51.2496 27.4304 51.2496 27.5693 51.1847 27.6817Z" fill="#274AFF"/>
<path d="M52.839 16.7955C51.4541 13.5207 49.471 10.5797 46.9457 8.05435C44.4203 5.52903 41.4793 3.54595 38.2045 2.16101C34.8139 0.726925 31.2126 0 27.5 0C23.7874 0 20.1861 0.726925 16.7955 2.16101C13.5207 3.54595 10.5797 5.52903 8.05435 8.05435C5.52903 10.5797 3.54595 13.5207 2.161 16.7955C0.726924 20.1861 0 23.7874 0 27.5C0 31.2126 0.726924 34.8139 2.161 38.2045C3.54595 41.4793 5.52903 44.4203 8.05435 46.9457C10.5797 49.471 13.5207 51.4541 16.7955 52.839C20.1861 54.2731 23.7874 55 27.5 55C31.2126 55 34.8139 54.2731 38.2045 52.839C41.4793 51.4541 44.4203 49.471 46.9457 46.9457C49.471 44.4203 51.4541 41.4793 52.839 38.2045C54.2731 34.8139 55 31.2126 55 27.5C55.0006 23.7874 54.2731 20.1861 52.839 16.7955ZM27.5 54.4357C12.6475 54.4357 0.564256 42.3525 0.564256 27.5C0.564256 12.6475 12.6475 0.564256 27.5 0.564256C42.3525 0.564256 54.4357 12.6475 54.4357 27.5C54.4357 42.3525 42.3525 54.4357 27.5 54.4357Z" fill="#274AFF"/>
</svg>
