<svg width="55" height="55" viewBox="0 0 55 55" fill="none" xmlns="http://www.w3.org/2000/svg">
<path d="M52.839 16.7955C51.4541 13.5207 49.471 10.5797 46.9457 8.05435C44.4203 5.52903 41.4793 3.54595 38.2045 2.16101C34.8139 0.726925 31.2126 0 27.5 0C23.7874 0 20.1861 0.726925 16.7955 2.16101C13.5207 3.54595 10.5797 5.52903 8.05435 8.05435C5.52903 10.5797 3.54595 13.5207 2.161 16.7955C0.726924 20.1861 0 23.7874 0 27.5C0 31.2126 0.726924 34.8139 2.161 38.2045C3.54595 41.4793 5.52903 44.4203 8.05435 46.9457C10.5797 49.471 13.5207 51.4541 16.7955 52.839C20.1861 54.2731 23.7874 55 27.5 55C31.2126 55 34.8139 54.2731 38.2045 52.839C41.4793 51.4541 44.4203 49.471 46.9457 46.9457C49.471 44.4203 51.4541 41.4793 52.839 38.2045C54.2731 34.8139 55 31.2126 55 27.5C55.0006 23.7874 54.2731 20.1861 52.839 16.7955ZM53.4976 34.5591C45.2664 36.4151 39.3381 43.4822 38.9851 51.8624C38.8111 51.9449 38.6354 52.0257 38.4592 52.1042C38.1135 50.63 37.9379 49.1089 37.9379 47.5766C37.9379 37.9769 45.0015 29.6876 54.4278 28.1439C54.3753 30.358 54.0551 32.5066 53.4976 34.5591ZM54.4352 27.5712C49.7686 28.3116 45.4901 30.6799 42.3633 34.262C39.1455 37.9486 37.3731 42.6773 37.3731 47.5766C37.3731 49.1863 37.5612 50.7853 37.9328 52.3329C37.8837 52.3538 37.834 52.3742 37.7848 52.3945C35.9994 48.9191 35.094 45.4766 35.094 42.1582C35.094 31.3131 42.7688 22.0461 53.3801 20.0223C54.0675 22.3974 54.4363 24.9063 54.4363 27.4994C54.4357 27.5237 54.4352 27.5474 54.4352 27.5712ZM53.2163 19.479C48.0736 20.4753 43.3828 23.2266 39.9792 27.2537C38.2542 29.2944 36.9082 31.5927 35.9785 34.0847C35.0161 36.6642 34.5286 39.3804 34.5286 42.1588C34.5286 45.5528 35.447 49.066 37.2584 52.6069C37.1686 52.6419 37.0782 52.6769 36.9873 52.7108C33.8429 48.3442 32.1129 43.0416 32.1129 37.7532C32.1129 26.4974 39.6081 16.4724 50.3707 13.2835C51.567 15.2016 52.5289 17.2801 53.2163 19.479ZM11.3201 49.0214C13.1197 46.901 14.5537 44.6169 15.4767 42.3983C16.1866 40.6914 16.7238 38.9738 17.0847 37.2595C20.8639 31.8316 26.9922 28.2778 33.5639 27.6824C33.3487 28.1959 33.1493 28.7166 32.9675 29.2447C32.2886 31.2137 31.8519 33.251 31.661 35.3273C28.4687 35.7509 25.6033 36.8026 23.1418 38.4547C21.1074 39.8204 19.34 41.5991 17.889 43.742C15.7828 46.8525 14.9079 49.8878 14.613 51.1474C13.4619 50.5181 12.3617 49.8065 11.3201 49.0214ZM11.4371 29.517C10.6898 27.0928 9.53079 24.8165 7.99222 22.751C6.47906 20.7199 4.63266 18.9424 2.50442 17.4626C3.20084 15.7337 4.07179 14.0934 5.09525 12.5633C15.9522 18.3889 19.9167 30.2569 14.9553 42.1814C14.0516 44.3537 12.6413 46.5938 10.8711 48.6757C10.3221 48.2436 9.79004 47.7901 9.27662 47.3173C9.83749 46.3317 10.2588 45.5121 10.5311 44.8784C11.6138 42.3542 12.234 39.7295 12.3735 37.0771C12.508 34.5139 12.1928 31.97 11.4371 29.517ZM10.6559 6.49488C14.6368 3.9385 19.2903 2.45302 23.775 2.31068C32.8404 2.02319 41.4144 6.60558 46.2272 14.2894C45.0744 14.8508 43.9606 15.4976 42.8948 16.2284C42.2068 16.7006 41.5437 17.2039 40.9066 17.7371C36.8997 9.6189 28.5178 4.57787 19.4485 4.86537C16.0454 4.97325 12.5452 5.92667 9.38507 7.58272C9.79738 7.20711 10.221 6.8445 10.6559 6.49488ZM33.8186 27.0945C30.4416 27.3537 27.1001 28.3794 24.1433 30.0671C21.5112 31.569 19.1734 33.6006 17.3202 35.9864C17.4716 35.037 17.5693 34.0898 17.6111 33.1476C17.6738 31.7373 17.6117 30.3478 17.4292 28.9883C22.6442 23.0701 30.3529 19.8772 38.1825 20.3725C37.7396 20.8684 37.3138 21.3813 36.9082 21.9111C35.6752 23.522 34.6416 25.2582 33.8186 27.0945ZM27.0052 21.5858C25.6542 18.0794 23.2492 15.1084 20.0353 12.9818C16.7153 10.7847 12.831 9.69176 8.80217 9.81941C8.22436 9.83749 7.62339 9.91374 7.04896 10.0013C9.28904 9.0473 11.6748 8.52315 14.1409 8.4452C22.1856 8.18821 29.4424 12.7328 32.7302 20.0478C30.7731 20.3403 28.8482 20.856 27.0052 21.5858ZM38.6705 19.8416C36.8868 19.697 35.0884 19.7405 33.312 19.9664C31.7181 16.3454 29.1188 13.2914 25.7835 11.1258C22.3099 8.87051 18.2776 7.74821 14.1233 7.88038C12.0205 7.94703 9.97474 8.32885 8.02328 9.0168C11.5043 6.8253 15.5529 5.55445 19.4666 5.43019C28.3614 5.14834 36.5795 10.121 40.4632 18.1161C39.8379 18.6617 39.2404 19.2384 38.6705 19.8416ZM6.49036 10.6621C7.22971 10.5401 8.05604 10.408 8.82081 10.3837C16.6961 10.134 23.7569 14.7113 26.4828 21.7998C24.9459 22.4477 23.4711 23.2446 22.0851 24.1726C21.091 20.5352 19.1333 17.3835 16.4052 15.0395C13.6884 12.7051 10.256 11.2151 6.45139 10.7113C6.46438 10.6949 6.4768 10.6785 6.49036 10.6621ZM21.5908 24.5121C20.0365 25.6045 18.6007 26.864 17.3214 28.2631C17.1118 27.0165 16.7989 25.7965 16.3821 24.6098C15.445 21.9416 14.007 19.4999 12.1081 17.353C10.2571 15.2603 8.00634 13.4936 5.4155 12.0956C5.62053 11.8025 5.83121 11.5139 6.04697 11.2298C13.8528 12.1357 19.6433 17.0841 21.5908 24.5121ZM18.3561 44.0589C21.4931 39.4262 25.953 36.6851 31.613 35.9045C31.5701 36.5179 31.5475 37.1342 31.5475 37.7526C31.5475 39.1178 31.6605 40.4841 31.8808 41.8352C28.6878 42.0549 25.6107 43.0874 22.9645 44.8298C20.2437 46.6214 18.028 49.1349 16.547 52.1064C16.0669 51.8918 15.5941 51.6636 15.1293 51.4224C15.3784 50.3052 16.2126 47.2252 18.3561 44.0589ZM31.9785 42.3955C32.2191 43.6923 32.5591 44.9733 32.9934 46.2249C30.2512 46.1092 27.4458 46.6457 24.8555 47.7872C22.2681 48.927 19.9461 50.6418 18.1274 52.7531C17.7698 52.6199 17.4163 52.4798 17.0661 52.3324C19.9749 46.5124 25.5231 42.8162 31.9785 42.3955ZM33.1996 46.8011C33.7074 48.1634 34.3287 49.4874 35.0556 50.7542C32.6195 50.2679 30.1179 50.2527 27.6101 50.7108C25.0662 51.1756 22.59 52.1386 20.4375 53.4964C19.8495 53.3366 19.2694 53.157 18.6978 52.9587C22.333 48.8429 27.8389 46.5 33.1996 46.8011ZM27.5 0.564256C36.928 0.564256 45.2399 5.43301 50.0539 12.7881C48.9197 13.1315 47.8144 13.5517 46.7412 14.0454C44.3876 10.2662 41.0907 7.13369 37.1923 4.9772C33.1013 2.71396 28.4557 1.59675 23.7575 1.74586C20.8848 1.8368 17.9449 2.46714 15.1502 3.56628C18.8515 1.64871 23.0509 0.564256 27.5 0.564256ZM0.564256 27.5C0.564256 27.0978 0.573858 26.6985 0.591368 26.3009C5.65951 30.8528 8.19329 38.2169 7.0179 44.9744C2.99581 40.2672 0.564256 34.1626 0.564256 27.5ZM7.49178 45.5144C8.1916 41.9837 7.90806 38.222 6.66828 34.6241C5.42962 31.0284 3.34374 27.9067 0.632035 25.5858C0.81899 22.9351 1.39115 20.3895 2.29261 18.0042C10.9705 24.1116 14.1476 35.0172 10.0115 44.657C9.75841 45.2461 9.36925 46.0064 8.85244 46.9202C8.38251 46.4678 7.92839 45.999 7.49178 45.5144ZM21.2006 53.6919C25.4898 51.1479 30.6381 50.3193 35.4476 51.4168C35.7594 51.9257 36.0892 52.4244 36.436 52.9124C33.6385 53.8992 30.6302 54.4363 27.4994 54.4363C25.3311 54.4357 23.222 54.1776 21.2006 53.6919ZM40.9009 50.8593C42.6536 46.0945 46.4034 42.2655 51.1344 40.4118C48.748 44.7621 45.1958 48.3859 40.9009 50.8593ZM51.5297 39.6629C46.1645 41.5499 41.9329 45.8714 40.1605 51.2705C39.9633 51.3761 39.7645 51.4789 39.5646 51.58C40.0306 43.6917 45.5957 37.059 53.3208 35.181C52.8565 36.7376 52.2544 38.2367 51.5297 39.6629Z" fill="#C04343"/>
</svg>
