<svg width="78" height="78" viewBox="0 0 78 78" fill="none" xmlns="http://www.w3.org/2000/svg">
<path d="M39 78C33.7353 78 28.6276 76.9686 23.8195 74.9349C19.1755 72.9704 15.005 70.1589 11.423 66.577C7.84187 62.9958 5.02958 58.8245 3.06509 54.1805C1.03136 49.3724 0 44.2647 0 39C0 33.7353 1.03136 28.6276 3.06509 23.8195C5.02958 19.1755 7.84106 15.005 11.423 11.423C15.0042 7.84187 19.1755 5.02958 23.8195 3.06509C28.6276 1.03136 33.7353 0 39 0C44.2647 0 49.3724 1.03136 54.1805 3.06509C58.8245 5.02958 62.995 7.84106 66.577 11.423C70.1589 15.0042 72.9704 19.1755 74.9349 23.8195C76.9686 28.6276 78 33.7353 78 39C78 44.2647 76.9686 49.3724 74.9349 54.1805C72.9704 58.8245 70.1589 62.995 66.577 66.577C62.9958 70.1581 58.8245 72.9704 54.1805 74.9349C49.3715 76.9686 44.2647 78 39 78ZM39 0.40417C17.7175 0.40417 0.403365 17.7183 0.403365 39.0008C0.403365 60.2833 17.7175 77.5974 39 77.5974C60.2825 77.5974 77.5966 60.2833 77.5966 39.0008C77.5966 17.7191 60.2817 0.40417 39 0.40417Z" fill="#D51420"/>
<path d="M12.0143 60.2572C14.158 60.2572 15.8958 58.5194 15.8958 56.3757C15.8958 54.232 14.158 52.4941 12.0143 52.4941C9.87063 52.4941 8.13281 54.232 8.13281 56.3757C8.13281 58.5194 9.87063 60.2572 12.0143 60.2572Z" stroke="#D51420" stroke-width="0.6" stroke-miterlimit="10" stroke-linecap="round" stroke-linejoin="round"/>
<path d="M38.9987 13.6766C41.1424 13.6766 42.8802 12.0215 42.8802 9.97989C42.8802 7.93826 41.1424 6.2832 38.9987 6.2832C36.855 6.2832 35.1172 7.93826 35.1172 9.97989C35.1172 12.0215 36.855 13.6766 38.9987 13.6766Z" stroke="#D51420" stroke-width="0.6" stroke-miterlimit="10" stroke-linecap="round" stroke-linejoin="round"/>
<path d="M38.9987 42.8822C41.1424 42.8822 42.8802 41.1444 42.8802 39.0007C42.8802 36.857 41.1424 35.1191 38.9987 35.1191C36.855 35.1191 35.1172 36.857 35.1172 39.0007C35.1172 41.1444 36.855 42.8822 38.9987 42.8822Z" stroke="#D51420" stroke-width="0.6" stroke-miterlimit="10" stroke-linecap="round" stroke-linejoin="round"/>
<path d="M65.987 60.2572C68.1307 60.2572 69.8685 58.5194 69.8685 56.3757C69.8685 54.232 68.1307 52.4941 65.987 52.4941C63.8433 52.4941 62.1055 54.232 62.1055 56.3757C62.1055 58.5194 63.8433 60.2572 65.987 60.2572Z" stroke="#D51420" stroke-width="0.6" stroke-miterlimit="10" stroke-linecap="round" stroke-linejoin="round"/>
<path d="M41.0312 13.3086L63.9507 52.8631L41.0312 13.3086Z" stroke="#D51420" stroke-width="0.6" stroke-miterlimit="10" stroke-linecap="round" stroke-linejoin="round"/>
<path d="M15.8945 56.1895H62.1031H15.8945Z" stroke="#D51420" stroke-width="0.6" stroke-miterlimit="10" stroke-linecap="round" stroke-linejoin="round"/>
<path d="M14.0469 52.8631L36.9663 13.3086L14.0469 52.8631Z" stroke="#D51420" stroke-width="0.6" stroke-miterlimit="10" stroke-linecap="round" stroke-linejoin="round"/>
<path d="M42.1406 41.0332L62.842 54.3413L42.1406 41.0332Z" stroke="#D51420" stroke-width="0.6" stroke-miterlimit="10" stroke-linecap="round" stroke-linejoin="round"/>
<path d="M15.1562 54.3413L35.8577 41.0332L15.1562 54.3413Z" stroke="#D51420" stroke-width="0.6" stroke-miterlimit="10" stroke-linecap="round" stroke-linejoin="round"/>
<path d="M38.8164 35.1185V13.6777V35.1185Z" stroke="#D51420" stroke-width="0.6" stroke-miterlimit="10" stroke-linecap="round" stroke-linejoin="round"/>
</svg>
