<svg width="77" height="77" viewBox="0 0 77 77" fill="none" xmlns="http://www.w3.org/2000/svg">
<path d="M76.7412 19.3479C76.7175 19.3115 76.6801 19.2854 76.6382 19.268L38.6135 0.225812C38.5961 0.217114 38.577 0.209997 38.5579 0.206044C38.5004 0.192601 38.4375 0.198927 38.3846 0.225812L0.358991 19.268C0.317058 19.2846 0.279681 19.3115 0.25598 19.3471C0.234101 19.3803 0.224985 19.4182 0.226808 19.4554V57.5453C0.224985 57.5824 0.23319 57.6204 0.25598 57.6536C0.280593 57.6908 0.318881 57.7177 0.361726 57.7343L38.3846 76.7756C38.4202 76.793 38.4594 76.8017 38.4986 76.8017C38.5187 76.8017 38.5387 76.7994 38.5579 76.7946C38.5679 76.7923 38.5779 76.7875 38.587 76.7843C38.5952 76.7812 38.6043 76.7796 38.6116 76.7756L76.6555 57.7232C76.7257 57.6876 76.7695 57.6228 76.7695 57.5516V19.4546C76.7722 19.4182 76.7631 19.3811 76.7412 19.3479ZM63.8612 38.8961L76.1496 57.3579L51.5673 57.3666L63.8612 38.8961ZM38.4986 76.2095L19.7242 48.0036L25.8219 38.8827L38.2634 57.5737C38.3044 57.6346 38.3792 57.6726 38.4603 57.6726C38.5414 57.6726 38.6171 57.6346 38.6581 57.5737L57.6814 29.0192C57.7225 28.9583 57.7225 28.8824 57.6814 28.8215L51.5728 19.6436H76.1487L38.4986 76.2095ZM13.1077 38.1481L0.846696 19.6444H25.4235L13.1077 38.1481ZM38.4986 0.791969L57.2211 28.9211L51.0778 38.1417L38.6581 19.4854C38.6171 19.4246 38.5424 19.3866 38.4612 19.3866C38.3801 19.3866 38.3053 19.4238 38.2643 19.4854L19.2638 47.904C19.2228 47.9649 19.2228 48.0408 19.2638 48.1017L25.4244 57.3571H0.847609L38.4986 0.791969ZM44.6401 47.8052H32.2879L26.0862 38.4881L32.3134 29.1734H44.5817L50.8153 38.5363L44.6401 47.8052ZM44.3766 48.2005L38.4612 57.0795L32.5513 48.2005H44.3766ZM32.5777 28.778L38.4603 19.9788L44.3183 28.778H32.5777ZM51.3093 19.249L39.1212 0.936671L75.6874 19.249H51.3093ZM25.6869 19.249H1.30888L37.876 0.936671L25.6869 19.249ZM12.8443 38.5442L0.682609 56.8154V20.1892L12.8443 38.5442ZM25.6879 57.7532L37.8769 76.0656L1.30979 57.7532H25.6879ZM51.3039 57.7619L75.6865 57.7532L39.1212 76.0648L51.3039 57.7619ZM64.1237 38.5007L76.3137 20.186V56.8147L64.1237 38.5007Z" fill="#E13600"/>
<path d="M76.9399 19.248C76.8915 19.1761 76.8186 19.1207 76.7347 19.0867L38.7291 0.0540112C38.7118 0.0453133 38.6927 0.0374064 38.6744 0.0302899C38.6672 0.0279177 38.6589 0.0255452 38.6507 0.0231731C38.6398 0.0200102 38.6289 0.0160564 38.6179 0.0136842C38.6033 0.0105213 38.5888 0.00814925 38.5733 0.00577708C38.5687 0.00498636 38.5641 0.00419573 38.5596 0.00340501C38.4611 -0.0076651 38.3599 0.00814956 38.2715 0.05243L0.26591 19.0867C0.181131 19.1199 0.108203 19.1753 0.0607999 19.248C0.0161314 19.3152 -0.00301261 19.3903 0.000633796 19.4647V57.5356C-0.00392421 57.6099 0.0161305 57.685 0.0598874 57.7522C0.109114 57.8266 0.183865 57.8827 0.270467 57.9159L38.2715 76.947C38.3417 76.9826 38.421 77 38.4994 77C38.5395 77 38.5796 76.9953 38.6179 76.9866C38.6234 76.985 38.6289 76.9834 38.6352 76.9818C38.648 76.9787 38.6617 76.9747 38.6744 76.97C38.6899 76.9644 38.7054 76.9573 38.72 76.951C38.7228 76.9494 38.7255 76.9486 38.7273 76.9478L76.7712 57.8961C76.9125 57.8258 76.9991 57.6953 76.9991 57.5538V19.4647C77.0046 19.3903 76.9845 19.3144 76.9399 19.248ZM63.8629 39.2905L75.7566 57.1592L51.9638 57.1679L63.8629 39.2905ZM38.5003 75.8131L19.9893 48.0026L25.8236 39.2762L38.0682 57.6716C38.1494 57.7941 38.2998 57.8693 38.463 57.8693C38.6261 57.8693 38.7765 57.7941 38.8577 57.6716L57.881 29.117C57.9621 28.9945 57.9621 28.8442 57.881 28.7217L51.9692 19.8403H75.7557L38.5003 75.8131ZM13.1095 37.7509L1.24224 19.841H25.0305L13.1095 37.7509ZM38.5003 1.18633L56.9594 28.9201L51.0795 37.7454L38.8568 19.3856C38.7756 19.263 38.6252 19.1879 38.463 19.1879C38.3007 19.1879 38.1503 19.263 38.0691 19.3848L19.0686 47.8034C18.9866 47.9259 18.9866 48.077 19.0686 48.1995L25.0323 57.1584H1.24406L38.5003 1.18633ZM44.5096 47.6065H32.4209L26.3505 38.4871L32.4455 29.37H44.4513L50.5526 38.5353L44.5096 47.6065ZM43.9827 48.3972L38.462 56.6832L32.9468 48.3972H43.9827ZM32.9742 28.5793L38.4611 20.3724L43.9253 28.5793H32.9742ZM51.4433 19.0503L39.7456 1.47573L74.8386 19.0503H51.4433ZM25.5574 19.0503H2.16113L37.2551 1.47573L25.5574 19.0503ZM12.5826 38.5424L0.912236 56.0767V20.9291L12.5826 38.5424ZM25.5574 57.9499L37.2551 75.5245L2.16204 57.9499H25.5574ZM51.4369 57.9586L74.8368 57.9499L39.7456 75.5229L51.4369 57.9586ZM64.3889 38.4997L76.0884 20.9228V56.0767L64.3889 38.4997Z" fill="#796122"/>
</svg>
