<svg width="77" height="77" viewBox="0 0 77 77" fill="none" xmlns="http://www.w3.org/2000/svg">
<path d="M77 19.25L38.5 0L0 19.25V57.75L38.5 77L77 57.75V19.25ZM10.8627 62.2706L31.3074 52.0831L37.5674 55.2039L17.1146 65.3962L10.8627 62.2706ZM3.72757 58.7029L24.1613 48.5201L30.394 51.6268L9.95022 61.8143L3.72757 58.7029ZM0.91161 36.9305L8.9675 40.9458L0.91161 44.9604V36.9305ZM0.91161 45.8706L9.88094 41.4014L16.1109 44.5072L0.910697 52.0815L0.91161 45.8706ZM10.3085 40.7034V15.0073L16.5576 11.8825V43.8188L10.3085 40.7034ZM17.4692 11.427L18.5585 10.8823L23.7192 13.4544V47.3888L17.4692 44.2735V11.427ZM64.7361 14.0291L45.7145 23.5085L39.4535 20.3876L58.4843 10.9044L64.7361 14.0291ZM71.8704 17.5968L52.8597 27.0706L46.627 23.964L65.6468 14.4855L71.8704 17.5968ZM31.7915 51.4128V17.4784L38.0406 20.5937V54.5281L31.7915 51.4128ZM30.8799 50.9581L24.6299 47.8428V13.9091L30.879 17.0244L30.8799 50.9581ZM38.9549 21.05L45.204 24.1653V58.0997L38.9549 54.9844V21.05ZM46.1165 24.6193L52.3656 27.7346V61.669L46.1165 58.5537V24.6193ZM53.2772 28.1893L59.5263 31.3046V65.2383L53.2772 62.123V28.1893ZM38.9522 19.7261V1.13765L57.5718 10.4472L38.9522 19.7261ZM38.0406 19.6826L31.7915 16.5673V4.26558L38.0415 1.1408L38.0406 19.6826ZM30.8799 16.1134L24.6308 12.9981V7.8459L30.8799 4.72112V16.1134ZM23.7192 12.5433L19.4711 10.4259L23.7192 8.30222V12.5433ZM38.0433 55.8773V75.8608L18.0271 65.8525L38.0433 55.8773ZM38.9549 55.8947L45.204 59.01V72.7368L38.9549 75.8616V55.8947ZM46.1165 59.464L52.3656 62.5793V69.1549L46.1165 72.2797V59.464ZM53.2772 63.034L58.952 65.8627L53.2772 68.7002V63.034ZM60.4379 31.7586L66.687 34.8739V61.9951L60.4379 65.1198V31.7586ZM60.911 31.0836L76.0884 23.5203V29.7312L67.141 34.1894L60.911 31.0836ZM76.0884 30.6415V38.6492L68.0553 34.6449L76.0884 30.6415ZM76.0884 22.6093L59.9967 30.6281L53.774 27.5262L72.7829 18.0531L76.0875 19.7055L76.0884 22.6093ZM9.39687 15.4628V40.2495L0.91161 36.0194V19.7055L9.39687 15.4628ZM0.91161 52.9926L17.0252 44.9627L23.2479 48.0646L2.81596 58.2466L0.91161 57.2945V52.9926ZM67.5995 61.5387V35.3279L76.0884 39.5595V57.2937L67.5995 61.5387Z" fill="#593281"/>
</svg>
