<svg width="77" height="77" viewBox="0 0 77 77" fill="none" xmlns="http://www.w3.org/2000/svg">
<path d="M38.8265 0.561954L38.5455 0L7.74609 61.5988H69.3449L38.8265 0.561954ZM25.3289 52.3994H51.7627L67.5955 60.9696H9.49545L25.3289 52.3994ZM38.8598 26.7626L51.1574 51.3572L38.8598 44.7005V26.7626ZM38.2312 26.7714V44.7012L25.9336 51.3579L38.2312 26.7714ZM38.5455 45.2455L50.6011 51.7708H26.4899L38.5455 45.2455ZM52.121 51.879L38.8994 25.4357L44.7314 13.7767L68.1097 60.5333L52.121 51.879ZM44.38 13.0739L38.548 24.7329L38.5455 24.7285L24.9712 51.8752L24.9718 51.8758L24.9699 51.879L8.98126 60.5333L38.5455 1.40489L44.38 13.0739Z" fill="#B4710D"/>
<path d="M38.5454 0.353516L8.11377 61.2162L8 61.4438H69.0902L38.5454 0.353516ZM25.2886 52.245H51.8023L68.2159 61.1295H8.87499L25.2886 52.245ZM38.7026 26.0991L51.5207 51.7346L38.7026 44.7969V26.0991ZM38.3883 26.1079V44.7963L25.5702 51.7346L38.3883 26.1079ZM38.5454 45.0691L51.2215 51.9308H25.8694L38.5454 45.0691ZM52.0022 51.9955L38.7233 25.4378L44.7307 13.4274L68.4723 60.9113L52.0022 51.9955ZM44.5553 13.0761L38.5473 25.0864L38.5448 25.082L25.112 51.9477L25.1126 51.9484L25.0887 51.9961L8.6179 60.9113L38.5454 1.05627L44.5553 13.0761Z" fill="#B4710D"/>
<path d="M73.9754 23.5135C72.0365 18.9288 69.2601 14.8114 65.7247 11.276C62.1893 7.74056 58.0718 4.96427 53.4871 3.02538C48.7402 1.01768 43.6984 0 38.5008 0C33.3032 0 28.2614 1.01768 23.5145 3.02538C18.929 4.96427 14.8115 7.73977 11.2761 11.276C7.74064 14.8114 4.96432 18.9288 3.02541 23.5135C1.01769 28.2603 0 33.3021 0 38.4996C0 43.6971 1.01769 48.7389 3.02541 53.4857C4.96432 58.0705 7.74064 62.1878 11.2761 65.7232C14.8115 69.2586 18.929 72.0349 23.5137 73.9738C28.2606 75.9815 33.3024 77 38.5 77C43.6976 77 48.7394 75.9815 53.4863 73.9738C58.071 72.0349 62.1885 69.2586 65.7239 65.7232C69.2593 62.1878 72.0357 58.0705 73.9746 53.4857C75.9823 48.7389 77 43.6971 77 38.4996C77 33.3021 75.9831 28.2603 73.9754 23.5135ZM38.5 76.2093C17.7065 76.2093 0.789959 59.2929 0.789959 38.4996C0.789959 17.7063 17.7065 0.789951 38.5 0.789951C59.2935 0.789951 76.21 17.7063 76.21 38.4996C76.21 59.2929 59.2935 76.2093 38.5 76.2093Z" fill="#B4710D"/>
</svg>
