<svg width="55" height="55" viewBox="0 0 55 55" fill="none" xmlns="http://www.w3.org/2000/svg">
<path d="M27.7333 0.401396L27.5325 0L5.53296 43.9991H49.5321L27.7333 0.401396ZM18.0921 37.4281H36.9734L48.2825 43.5497H6.7825L18.0921 37.4281ZM27.757 19.1161L36.541 36.6837L27.757 31.9289V19.1161ZM27.308 19.1224V31.9294L18.524 36.6842L27.308 19.1224ZM27.5325 32.3182L36.1437 36.9791H18.9214L27.5325 32.3182ZM37.2293 37.0564L27.7853 18.1684L31.951 9.8405L48.6498 43.2381L37.2293 37.0564ZM31.7 9.3385L27.5343 17.6664L27.5325 17.6632L17.8366 37.0537L17.837 37.0541L17.8357 37.0564L6.41522 43.2381L27.5325 1.00349L31.7 9.3385Z" fill="#8205A2"/>
<path d="M27.5325 0.251953L5.79562 43.7253L5.71436 43.8879H49.3502L27.5325 0.251953ZM18.0634 37.3173H37.0017L48.7257 43.6634H6.33935L18.0634 37.3173ZM27.6448 18.6417L36.8006 36.9527L27.6448 31.9973V18.6417ZM27.4203 18.6479V31.9968L18.2645 36.9527L27.4203 18.6479ZM27.5325 32.1917L36.5869 37.0929H18.4782L27.5325 32.1917ZM37.1445 37.1391L27.6596 18.1693L31.9506 9.59044L48.9089 43.5075L37.1445 37.1391ZM31.8253 9.33951L27.5339 17.9183L27.5321 17.9152L17.9372 37.1049L17.9376 37.1054L17.9206 37.1395L6.15571 43.5075L27.5325 0.75392L31.8253 9.33951Z" fill="#8205A2"/>
<path d="M52.8396 16.7954C51.4546 13.5206 49.4715 10.5796 46.9462 8.05429C44.4209 5.52897 41.4799 3.54591 38.2051 2.16099C34.8144 0.726914 31.2131 0 27.5006 0C23.788 0 20.1867 0.726914 16.7961 2.16099C13.5207 3.54591 10.5796 5.52841 8.05436 8.05429C5.52903 10.5796 3.54594 13.5206 2.16101 16.7954C0.726921 20.1859 0 23.7872 0 27.4997C0 31.2122 0.726921 34.8135 2.16101 38.2041C3.54594 41.4789 5.52903 44.4199 8.05436 46.9451C10.5796 49.4704 13.5207 51.4535 16.7955 52.8384C20.1861 54.2725 23.7874 55 27.5 55C31.2126 55 34.8139 54.2725 38.2045 52.8384C41.4793 51.4535 44.4204 49.4704 46.9456 46.9451C49.4709 44.4199 51.4541 41.4789 52.839 38.2041C54.2731 34.8135 55 31.2122 55 27.4997C55 23.7872 54.2736 20.1859 52.8396 16.7954ZM27.5 54.4352C12.6475 54.4352 0.564256 42.3521 0.564256 27.4997C0.564256 12.6474 12.6475 0.564251 27.5 0.564251C42.3525 0.564251 54.4357 12.6474 54.4357 27.4997C54.4357 42.3521 42.3525 54.4352 27.5 54.4352Z" fill="#8205A2"/>
</svg>