<svg width="12" height="11" viewBox="0 0 12 11" fill="none" xmlns="http://www.w3.org/2000/svg">
<path fill-rule="evenodd" clip-rule="evenodd" d="M5.86681 0.355371C5.80277 0.371188 5.6925 0.410016 5.62177 0.44163C5.55102 0.473244 4.42104 1.05318 3.11073 1.73039C1.55997 2.53186 0.695393 2.9898 0.633932 3.04229C0.582006 3.08666 0.511278 3.17338 0.476793 3.23505C0.422572 3.33196 0.414196 3.36968 0.41502 3.51334C0.416825 3.82672 0.528921 3.95255 1.05255 4.22884C1.24661 4.33125 1.40537 4.41862 1.40537 4.42304C1.40537 4.42744 1.25752 4.50725 1.07679 4.60035C0.707512 4.79064 0.562291 4.9009 0.474321 5.05786C0.423151 5.14916 0.414062 5.19047 0.414062 5.33157C0.414062 5.64409 0.541262 5.78416 1.07831 6.06295C1.25872 6.15662 1.40107 6.24075 1.39463 6.24988C1.3882 6.25903 1.2462 6.33549 1.07909 6.4198C0.718182 6.60185 0.562001 6.71914 0.476437 6.87238C0.423307 6.9675 0.414285 7.00771 0.414174 7.14981C0.414085 7.29259 0.422906 7.33177 0.476793 7.4281C0.511278 7.48976 0.581894 7.57641 0.633687 7.62063C0.690404 7.66906 1.16171 7.92678 1.81845 8.26847C3.22922 9.00247 5.49045 10.1635 5.63081 10.2259C5.90762 10.349 6.17951 10.366 6.44964 10.2769C6.70787 10.1918 11.4485 7.73495 11.584 7.61602C11.6332 7.57281 11.7014 7.48763 11.7354 7.42673C11.7884 7.33198 11.7974 7.29198 11.7974 7.14981C11.7974 6.83774 11.6584 6.68514 11.1324 6.4198C10.9653 6.33549 10.8233 6.25903 10.8168 6.24988C10.8104 6.24075 10.9527 6.15662 11.1332 6.06295C11.5108 5.8669 11.6494 5.76222 11.7359 5.60773C11.7884 5.51383 11.7974 5.47347 11.7974 5.33157C11.7974 5.02016 11.6642 4.87318 11.1347 4.60035C10.9539 4.50725 10.8061 4.42744 10.8061 4.42304C10.8061 4.41862 10.9649 4.33125 11.1589 4.22884C11.6825 3.95255 11.7946 3.82672 11.7964 3.51334C11.7973 3.36968 11.7889 3.33196 11.7347 3.23505C11.7002 3.17338 11.6296 3.08679 11.5779 3.04261C11.4797 2.95871 10.5127 2.44959 7.98815 1.15242C7.20403 0.749537 6.51234 0.402352 6.45106 0.380905C6.30401 0.329447 6.02157 0.31711 5.86681 0.355371ZM6.33963 0.839863C6.46091 0.89351 8.78792 2.08903 10.1207 2.78238C10.7177 3.09301 11.2228 3.36795 11.2431 3.39337C11.3035 3.46913 11.2911 3.58565 11.2157 3.6505C11.1259 3.72769 6.49312 6.13023 6.29152 6.20415C6.19789 6.23848 6.01357 6.23848 5.91994 6.20415C5.71834 6.13023 1.08555 3.72769 0.995793 3.6505C0.920387 3.58569 0.907912 3.46913 0.968259 3.39351C1.00265 3.3504 5.77706 0.868309 5.91832 0.820097C6.06746 0.769186 6.19323 0.77509 6.33963 0.839863ZM3.09839 5.29257C4.86651 6.20728 5.62153 6.58944 5.75855 6.63908C5.95296 6.70946 6.2585 6.70946 6.45291 6.63908C6.59218 6.58864 7.35128 6.20409 9.20157 5.24664C9.78321 4.94568 10.2694 4.69957 10.282 4.69973C10.3244 4.70029 11.1508 5.13767 11.2157 5.19393C11.2662 5.23775 11.28 5.26721 11.28 5.33157C11.28 5.39591 11.2662 5.42546 11.2157 5.46935C11.1803 5.50008 10.7003 5.76001 10.1489 6.04694C8.92303 6.68493 6.44683 7.95707 6.32286 8.01257C6.20052 8.06735 6.01025 8.06704 5.88704 8.01187C5.76202 7.95589 3.29752 6.68972 2.06253 6.04696C1.51118 5.76001 1.03115 5.50008 0.995793 5.46935C0.94527 5.42546 0.931481 5.39591 0.931481 5.33157C0.931481 5.21634 0.983385 5.1778 1.49448 4.91353L1.92887 4.68891L2.02911 4.7401C2.08425 4.76823 2.56542 5.01686 3.09839 5.29257ZM2.87562 6.99833C4.54267 7.86242 5.64358 8.41962 5.76991 8.46326C5.94556 8.52395 6.2659 8.52395 6.44155 8.46326C6.56944 8.41909 7.71392 7.83955 9.33583 6.99762C9.8443 6.73371 10.2703 6.51806 10.2826 6.51845C10.3248 6.51978 11.1515 6.95774 11.2157 7.01278C11.2911 7.07747 11.3035 7.19399 11.2431 7.26977C11.2229 7.29519 10.6927 7.58317 10.065 7.90973C8.69108 8.6245 6.46783 9.76629 6.3285 9.82868C6.25991 9.85941 6.18956 9.87358 6.10573 9.87358C6.0219 9.87358 5.95155 9.85941 5.88296 9.82868C5.74362 9.76629 3.52038 8.6245 2.14647 7.90973C1.51876 7.58317 0.988598 7.29519 0.968326 7.26977C0.910251 7.19693 0.920454 7.07772 0.990001 7.01669C1.04888 6.96503 1.9192 6.50455 1.94001 6.51405C1.94613 6.51685 2.36716 6.73478 2.87562 6.99833Z" fill="#542493"/>
</svg>
