<svg width="18" height="13" viewBox="0 0 18 13" fill="none" xmlns="http://www.w3.org/2000/svg">
<path d="M5.39453 6.74968C5.39453 5.97613 5.74433 5.23426 6.36698 4.68728C6.98962 4.1403 7.83411 3.83301 8.71467 3.83301C9.59523 3.83301 10.4397 4.1403 11.0624 4.68728C11.685 5.23426 12.0348 5.97613 12.0348 6.74968C12.0348 7.52322 11.685 8.26509 11.0624 8.81207C10.4397 9.35905 9.59523 9.66634 8.71467 9.66634C7.83411 9.66634 6.98962 9.35905 6.36698 8.81207C5.74433 8.26509 5.39453 7.52322 5.39453 6.74968V6.74968ZM8.50716 4.22566C8.2291 4.30004 7.95311 4.52462 7.72402 4.90197C7.64855 5.02742 7.58363 5.15756 7.5298 5.29134H8.50716V4.22566ZM7.09195 5.29134C7.16112 5.09768 7.25002 4.90989 7.35756 4.73025C7.42932 4.61105 7.51219 4.49727 7.60533 4.39009C7.09112 4.57742 6.64872 4.89016 6.3304 5.29134H7.09195ZM6.85041 6.56738C6.86286 6.24764 6.90768 5.94103 6.9799 5.65592H6.08927C5.93452 5.94214 5.84217 6.25129 5.81702 6.56738H6.85041ZM7.40612 5.65592C7.32449 5.95481 7.27749 6.26019 7.26584 6.56738H8.50716V5.65592H7.40612ZM8.92218 5.65592V6.56738H10.1631C10.1516 6.2602 10.1047 5.95482 10.0232 5.65592H8.92218ZM7.26626 6.93197C7.27777 7.23915 7.32463 7.54453 7.40612 7.84343H8.50716V6.93197H7.26626ZM8.92218 6.93197V7.84343H10.0232C10.1008 7.56452 10.1502 7.25718 10.1635 6.93197H8.92218ZM7.5298 8.20801C7.58707 8.34874 7.65223 8.47926 7.72402 8.59738C7.95311 8.97473 8.22951 9.19895 8.50716 9.27369V8.20801H7.5298ZM7.60533 9.10926C7.51219 9.00208 7.42932 8.8883 7.35756 8.7691C7.25002 8.58946 7.16113 8.40167 7.09195 8.20801H6.3304C6.6487 8.6092 7.09111 8.92194 7.60533 9.10926V9.10926ZM6.9799 7.84343C6.90485 7.54376 6.8615 7.23864 6.85041 6.93197H5.81702C5.84275 7.25645 5.93779 7.56379 6.08927 7.84343H6.9799ZM9.82401 9.10926C10.3382 8.92194 10.7806 8.6092 11.0989 8.20801H10.3374C10.2682 8.40167 10.1793 8.58946 10.0718 8.7691C10 8.88831 9.91716 9.00209 9.82401 9.10926V9.10926ZM8.92218 8.20801V9.27369C9.20024 9.19931 9.47623 8.97473 9.70532 8.59738C9.77711 8.47926 9.84227 8.34874 9.89954 8.20801H8.92218ZM10.4494 7.84343H11.3401C11.4916 7.56379 11.5866 7.25645 11.6123 6.93197H10.5789C10.5678 7.23864 10.5245 7.54376 10.4494 7.84343ZM11.6123 6.56738C11.5872 6.25129 11.4948 5.94214 11.3401 5.65592H10.4494C10.5217 5.94103 10.5665 6.24764 10.5789 6.56738H11.6123ZM10.0718 4.73025C10.1743 4.89941 10.2635 5.08754 10.3374 5.29134H11.0989C10.7806 4.89015 10.3382 4.57741 9.82401 4.39009C9.91449 4.49363 9.99749 4.60811 10.0718 4.73025V4.73025ZM9.89954 5.29134C9.84572 5.15756 9.7808 5.02742 9.70532 4.90197C9.47623 4.52462 9.20024 4.3004 8.92218 4.22566V5.29134H9.89954Z" fill="#542493"/>
<path d="M4.98992 11.0562L5.19212 8.44362C5.19396 8.41999 5.19 8.39626 5.1805 8.37404C5.171 8.35181 5.15619 8.33162 5.13706 8.31482C5.11793 8.29801 5.09494 8.285 5.06965 8.27665C5.04435 8.26831 5.01734 8.26483 4.99044 8.26644L2.01688 8.44444C2.0079 8.44497 1.99931 8.44775 1.99211 8.45246C1.98491 8.45716 1.97942 8.4636 1.97628 8.47099C1.97315 8.47838 1.9725 8.48642 1.97443 8.49415C1.97635 8.50188 1.98076 8.50898 1.98712 8.51459L2.32535 8.81171C2.34456 8.82859 2.37123 8.83743 2.39871 8.83604L4.36027 8.71879L2.02235 10.7726C2.00409 10.7886 2.00417 10.815 2.02254 10.8311L2.27308 11.0512C2.29145 11.0673 2.32143 11.0674 2.3397 11.0514L4.67762 8.99757L4.54415 10.7207C4.54214 10.7445 4.55221 10.768 4.57184 10.7852L4.91006 11.0823C4.93846 11.1073 4.98712 11.0917 4.98992 11.0562Z" fill="#542493"/>
<path d="M12.9925 1.69773L12.7903 4.31029C12.7885 4.33392 12.7924 4.35765 12.8019 4.37987C12.8114 4.40209 12.8262 4.42229 12.8454 4.43909C12.8645 4.45589 12.8875 4.46891 12.9128 4.47725C12.9381 4.4856 12.9651 4.48908 12.992 4.48746L15.9655 4.30947C15.9745 4.30894 15.9831 4.30616 15.9903 4.30145C15.9975 4.29674 16.003 4.29031 16.0061 4.28292C16.0093 4.27553 16.0099 4.26749 16.008 4.25975C16.0061 4.25202 16.0017 4.24493 15.9953 4.23931L15.6571 3.94219C15.6379 3.92532 15.6112 3.91647 15.5837 3.91787L13.6221 4.03512L15.9601 1.98132C15.9783 1.96527 15.9783 1.93894 15.9599 1.9228L15.7093 1.70271C15.691 1.68657 15.661 1.68649 15.6427 1.70254L13.3048 3.75634L13.4383 2.03316C13.4403 2.00939 13.4302 1.98595 13.4106 1.96871L13.0724 1.67159C13.044 1.64665 12.9953 1.66225 12.9925 1.69773Z" fill="#542493"/>
<path d="M2.12538 4.42014L5.10566 4.3694C5.13262 4.36895 5.15918 4.36341 5.18356 4.35316C5.20793 4.34291 5.22954 4.32819 5.24693 4.30998C5.26431 4.29178 5.27707 4.27053 5.28433 4.24766C5.29159 4.2248 5.29318 4.20085 5.289 4.17746L4.82799 1.59072C4.82661 1.58291 4.82271 1.57563 4.81674 1.56974C4.81078 1.56385 4.803 1.55961 4.79435 1.55751C4.78569 1.55541 4.77652 1.55554 4.76792 1.5579C4.75932 1.56026 4.75166 1.56473 4.74584 1.57079L4.43838 1.89268C4.42092 1.91096 4.41322 1.93508 4.41719 1.959L4.72112 3.6654L2.18834 1.79842C2.16855 1.78383 2.13869 1.7862 2.12199 1.80369L1.89424 2.04212C1.87754 2.05961 1.88007 2.08585 1.89986 2.10044L4.43264 3.96742L2.46691 4.0008C2.43978 4.00112 2.41408 4.01197 2.39624 4.03065L2.08878 4.35254C2.06297 4.37956 2.08491 4.42079 2.12538 4.42014Z" fill="#542493"/>
<path d="M15.99 8.4453L13.0161 8.26768C12.9892 8.26606 12.9622 8.26954 12.9369 8.27788C12.9116 8.28623 12.8886 8.29924 12.8695 8.31604C12.8503 8.33285 12.8355 8.35304 12.826 8.37527C12.8165 8.39749 12.8126 8.42122 12.8144 8.44485L13.017 11.057C13.0176 11.0649 13.0208 11.0725 13.0262 11.0788C13.0315 11.0851 13.0388 11.0899 13.0472 11.0927C13.0557 11.0955 13.0648 11.096 13.0736 11.0943C13.0824 11.0926 13.0905 11.0888 13.0969 11.0832L13.4351 10.7861C13.4543 10.7692 13.4644 10.7457 13.4628 10.7216L13.3293 8.99843L15.6672 11.0522C15.6855 11.0683 15.7155 11.0682 15.7338 11.0521L15.9844 10.832C16.0027 10.8158 16.0028 10.7895 15.9846 10.7734L13.6467 8.71965L15.6082 8.8369C15.6353 8.83866 15.6619 8.82982 15.6816 8.81258L16.0198 8.51546C16.0482 8.49051 16.0304 8.44776 15.99 8.4453Z" fill="#542493"/>
</svg>
