<svg width="20" height="11" viewBox="0 0 20 11" fill="none" xmlns="http://www.w3.org/2000/svg">
<path d="M0.875 4.53418H1.13477C1.44922 4.53418 1.65885 4.45215 1.76367 4.28809C1.87305 4.12402 1.92773 3.93034 1.92773 3.70703C1.92773 3.44727 1.89355 3.16927 1.8252 2.87305L1.70898 2.37402C1.63151 2.0459 1.59277 1.736 1.59277 1.44434C1.59277 1.01595 1.74316 0.671875 2.04395 0.412109C2.34928 0.147786 2.71387 0.015625 3.1377 0.015625H3.89648V0.0361328H4.35449V9.79785H3.89648V9.80469H3.1377C2.71387 9.80469 2.34928 9.6748 2.04395 9.41504C1.74316 9.15527 1.59277 8.80892 1.59277 8.37598C1.59277 8.08431 1.63151 7.77669 1.70898 7.45312L1.8252 6.9541C1.89355 6.65332 1.92773 6.37305 1.92773 6.11328C1.92773 5.89453 1.87305 5.70312 1.76367 5.53906C1.65885 5.37044 1.44922 5.28613 1.13477 5.28613H0.875V4.53418ZM2.63184 0.986328C2.49056 1.1276 2.41992 1.33952 2.41992 1.62207C2.41992 1.71777 2.42904 1.7998 2.44727 1.86816L2.50195 2.10059L2.60449 2.68848C2.68197 3.12142 2.7207 3.41536 2.7207 3.57031C2.7207 3.82552 2.64095 4.08301 2.48145 4.34277C2.3265 4.59798 2.06901 4.78711 1.70898 4.91016C2.06901 5.03776 2.3265 5.23145 2.48145 5.49121C2.64095 5.74642 2.7207 6.00163 2.7207 6.25684C2.7207 6.40723 2.68197 6.70117 2.60449 7.13867L2.50195 7.72656L2.44727 7.95898C2.42904 8.03646 2.41992 8.11849 2.41992 8.20508C2.41992 8.48307 2.49056 8.69271 2.63184 8.83398C2.77767 8.97982 2.93945 9.05273 3.11719 9.05273H3.56152V0.774414H3.11719C2.93945 0.774414 2.77767 0.845052 2.63184 0.986328ZM10.4443 0.51C11.163 0.51 11.807 0.668666 12.3763 0.985999C12.9457 1.30333 13.389 1.74667 13.7063 2.316C14.033 2.88533 14.1963 3.54333 14.1963 4.29C14.1963 5.03667 14.033 5.69933 13.7063 6.278C13.389 6.84733 12.9457 7.29067 12.3763 7.608C11.807 7.92533 11.163 8.084 10.4443 8.084C9.91233 8.084 9.42233 7.98133 8.97433 7.776C8.53566 7.57067 8.16233 7.272 7.85433 6.88V10.716H6.51033V0.58H7.79833V1.756C8.09699 1.34533 8.47499 1.03733 8.93233 0.832C9.38966 0.617333 9.89366 0.51 10.4443 0.51ZM10.3323 6.908C10.8083 6.908 11.233 6.80067 11.6063 6.586C11.989 6.362 12.2877 6.054 12.5023 5.662C12.7263 5.26067 12.8383 4.80333 12.8383 4.29C12.8383 3.77667 12.7263 3.324 12.5023 2.932C12.2877 2.53067 11.989 2.22267 11.6063 2.008C11.233 1.79333 10.8083 1.686 10.3323 1.686C9.86566 1.686 9.44099 1.798 9.05833 2.022C8.68499 2.23667 8.38633 2.54 8.16233 2.932C7.94766 3.324 7.84033 3.77667 7.84033 4.29C7.84033 4.80333 7.94766 5.26067 8.16233 5.662C8.37699 6.054 8.67566 6.362 9.05833 6.586C9.44099 6.80067 9.86566 6.908 10.3323 6.908ZM19.1338 5.28613H18.874C18.5596 5.28613 18.3477 5.37044 18.2383 5.53906C18.1335 5.70312 18.0811 5.89453 18.0811 6.11328C18.0811 6.37305 18.1152 6.65332 18.1836 6.9541L18.2998 7.45312C18.3773 7.77669 18.416 8.08431 18.416 8.37598C18.416 8.80892 18.2633 9.15527 17.958 9.41504C17.6572 9.6748 17.2949 9.80469 16.8711 9.80469H16.1123V9.79785H15.6543V0.0361328H16.1123V0.015625H16.8711C17.2949 0.015625 17.6572 0.147786 17.958 0.412109C18.2633 0.671875 18.416 1.01595 18.416 1.44434C18.416 1.736 18.3773 2.0459 18.2998 2.37402L18.1836 2.87305C18.1152 3.16927 18.0811 3.44727 18.0811 3.70703C18.0811 3.93034 18.1335 4.12402 18.2383 4.28809C18.3477 4.45215 18.5596 4.53418 18.874 4.53418H19.1338V5.28613ZM17.377 0.986328C17.2311 0.845052 17.0693 0.774414 16.8916 0.774414H16.4473V9.05273H16.8916C17.0693 9.05273 17.2288 8.97982 17.3701 8.83398C17.516 8.69271 17.5889 8.48307 17.5889 8.20508C17.5889 8.11849 17.5798 8.03646 17.5615 7.95898L17.5068 7.72656L17.4043 7.13867C17.3268 6.70117 17.2881 6.40723 17.2881 6.25684C17.2881 6.00163 17.3656 5.74642 17.5205 5.49121C17.68 5.23145 17.9398 5.03776 18.2998 4.91016C17.9398 4.78711 17.68 4.59798 17.5205 4.34277C17.3656 4.08301 17.2881 3.82552 17.2881 3.57031C17.2881 3.41536 17.3268 3.12142 17.4043 2.68848L17.5068 2.10059L17.5615 1.86816C17.5798 1.7998 17.5889 1.71777 17.5889 1.62207C17.5889 1.33952 17.5182 1.1276 17.377 0.986328Z" fill="white"/>
</svg>
