<svg width="13" height="11" viewBox="0 0 13 11" fill="none" xmlns="http://www.w3.org/2000/svg">
<path d="M4.50977 3.45801L6.40699 5.33301L8.30421 3.45801M6.40699 0.333008V5.33301V0.333008Z" stroke="#542493" stroke-width="0.5" stroke-linecap="round" stroke-linejoin="round"/>
<path d="M12.0982 6.0193V9.79351C12.0982 9.93651 12.0315 10.0736 11.913 10.1748C11.7944 10.2759 11.6335 10.3327 11.4658 10.3327H1.34725C1.17953 10.3327 1.01867 10.2759 0.900072 10.1748C0.781472 10.0736 0.714844 9.93651 0.714844 9.79351V6.0193M12.0982 6.0193H8.93614C8.93614 6.59129 8.66963 7.13985 8.19523 7.54431C7.72083 7.94877 7.07741 8.17599 6.40651 8.17599C5.73561 8.17599 5.09219 7.94877 4.61779 7.54431C4.14339 7.13985 3.87688 6.59129 3.87688 6.0193H0.714844M12.0982 6.0193L10.3464 1.53339C10.304 1.4263 10.2232 1.33328 10.1153 1.26749C10.0075 1.2017 9.8782 1.16646 9.74562 1.16675H8.93614M0.714844 6.0193L2.43499 1.53339C2.47899 1.42179 2.56463 1.32554 2.67883 1.25933C2.79302 1.19313 2.92949 1.16061 3.0674 1.16675H3.87688" stroke="#542493" stroke-width="0.5" stroke-linecap="round" stroke-linejoin="round"/>
</svg>
