<svg width="55" height="55" viewBox="0 0 55 55" fill="none" xmlns="http://www.w3.org/2000/svg">
<path d="M54.9571 13.7486C54.9225 13.6972 54.8704 13.6576 54.8105 13.6334L27.6636 0.0385794C27.6513 0.0323666 27.6376 0.0267189 27.6246 0.0216356C27.6194 0.0199412 27.6135 0.0182466 27.6076 0.0165522C27.5999 0.014293 27.5921 0.0114689 27.5842 0.00977443C27.5738 0.00751521 27.5634 0.00582089 27.5524 0.00412649C27.5491 0.00356169 27.5458 0.00299695 27.5426 0.00243215C27.4722 -0.00547507 27.3999 0.00582111 27.3368 0.03745L0.189936 13.6334C0.129379 13.6571 0.0772879 13.6966 0.0434285 13.7486C0.0115224 13.7966 -0.00215187 13.8502 0.00045271 13.9034V41.0969C-0.00280301 41.1499 0.0115218 41.2036 0.0427767 41.2516C0.0779386 41.3047 0.131332 41.3448 0.193191 41.3685L27.3368 54.9621C27.3869 54.9876 27.4436 55 27.4996 55C27.5282 55 27.5569 54.9966 27.5842 54.9904C27.5881 54.9893 27.5921 54.9881 27.5966 54.987C27.6057 54.9848 27.6155 54.9819 27.6246 54.9786C27.6356 54.9746 27.6467 54.9695 27.6571 54.965C27.6591 54.9639 27.6611 54.9633 27.6624 54.9627L54.8366 41.3544C54.9375 41.3041 54.9994 41.2109 54.9994 41.1099V13.9034C55.0033 13.8502 54.9889 13.796 54.9571 13.7486ZM45.6164 28.0646L54.1119 40.828L37.117 40.8342L45.6164 28.0646ZM27.5002 54.1522L14.2781 34.2876L18.4454 28.0544L27.1916 41.194C27.2496 41.2815 27.357 41.3352 27.4736 41.3352C27.5901 41.3352 27.6975 41.2815 27.7555 41.194L41.3436 20.7979C41.4015 20.7104 41.4015 20.603 41.3436 20.5155L37.1209 14.1716H54.1112L27.5002 54.1522ZM9.36393 26.9649L0.887314 14.1721H17.8789L9.36393 26.9649ZM27.5002 0.847379L40.6853 20.6572L36.4854 26.961L27.7549 13.8469C27.6969 13.7593 27.5894 13.7056 27.4736 13.7056C27.3576 13.7056 27.2502 13.7593 27.1922 13.8463L13.6204 34.1453C13.5619 34.2328 13.5619 34.3407 13.6204 34.4282L17.8802 40.8274H0.888614L27.5002 0.847379ZM31.7926 34.0046H23.1578L18.8218 27.4908L23.1754 20.9786H31.7509L36.109 27.5252L31.7926 34.0046ZM31.4162 34.5694L27.4729 40.488L23.5334 34.5694H31.4162ZM23.553 20.4138L27.4722 14.5517L31.3752 20.4138H23.553ZM36.7452 13.6074L28.3897 1.05409L53.4562 13.6074H36.7452ZM18.2553 13.6074H1.54366L26.6108 1.05409L18.2553 13.6074ZM8.98757 27.5303L0.651597 40.0548V14.9494L8.98757 27.5303ZM18.2553 41.3928L26.6108 53.9461L1.54431 41.3928H18.2553ZM36.7407 41.399L53.4549 41.3928L28.3897 53.9449L36.7407 41.399ZM45.9921 27.4998L54.3489 14.9449V40.0548L45.9921 27.4998Z" fill="white"/>
</svg>
