<svg width="13" height="11" viewBox="0 0 13 11" fill="none" xmlns="http://www.w3.org/2000/svg">
<path d="M6.27174 10.333C9.41517 10.333 11.9634 8.09443 11.9634 5.33301C11.9634 2.57158 9.41517 0.333008 6.27174 0.333008C3.12832 0.333008 0.580078 2.57158 0.580078 5.33301C0.580078 8.09443 3.12832 10.333 6.27174 10.333Z" stroke="#542493" stroke-width="0.5" stroke-linecap="round" stroke-linejoin="round"/>
<path d="M6.295 7.37301C5.95367 7.37301 5.62567 7.32501 5.311 7.22901C5.00167 7.12767 4.759 7.00234 4.583 6.85301L4.839 6.40501C5.015 6.54367 5.23633 6.65834 5.503 6.74901C5.76967 6.83434 6.047 6.87701 6.335 6.87701C6.719 6.87701 7.00167 6.81834 7.183 6.70101C7.36967 6.57834 7.463 6.40767 7.463 6.18901C7.463 6.03434 7.41233 5.91434 7.311 5.82901C7.20967 5.73834 7.08167 5.67167 6.927 5.62901C6.77233 5.58101 6.567 5.53567 6.311 5.49301C5.96967 5.42901 5.695 5.36501 5.487 5.30101C5.279 5.23167 5.10033 5.11701 4.951 4.95701C4.807 4.79701 4.735 4.57567 4.735 4.29301C4.735 3.94101 4.88167 3.65301 5.175 3.42901C5.46833 3.20501 5.87633 3.09301 6.399 3.09301C6.671 3.09301 6.943 3.13034 7.215 3.20501C7.487 3.27434 7.711 3.36767 7.887 3.48501L7.639 3.94101C7.29233 3.70101 6.879 3.58101 6.399 3.58101C6.03633 3.58101 5.76167 3.64501 5.575 3.77301C5.39367 3.90101 5.303 4.06901 5.303 4.27701C5.303 4.43701 5.35367 4.56501 5.455 4.66101C5.56167 4.75701 5.69233 4.82901 5.847 4.87701C6.00167 4.91967 6.215 4.96501 6.487 5.01301C6.823 5.07701 7.09233 5.14101 7.295 5.20501C7.49767 5.26901 7.671 5.37834 7.815 5.53301C7.959 5.68767 8.031 5.90101 8.031 6.17301C8.031 6.54101 7.87633 6.83434 7.567 7.05301C7.263 7.26634 6.839 7.37301 6.295 7.37301Z" fill="#542493"/>
</svg>
