<svg width="12" height="11" viewBox="0 0 12 11" fill="none" xmlns="http://www.w3.org/2000/svg">
<path fill-rule="evenodd" clip-rule="evenodd" d="M6.1765 0.579107C6.20959 0.714432 6.24633 0.839014 6.25819 0.855887C6.27005 0.87276 6.41404 0.901367 6.57816 0.919478C6.74228 0.937559 6.92407 0.959819 6.98214 0.968921C7.08354 0.984834 7.09378 0.975547 7.24002 0.734803C7.36645 0.526661 7.40527 0.485732 7.4688 0.493689C7.54046 0.502667 7.54591 0.522141 7.55531 0.801398L7.56531 1.09948L7.78408 1.16914C7.90439 1.20744 8.07706 1.27161 8.16783 1.31174L8.33279 1.38471L8.54935 1.17041C8.74944 0.972327 8.77232 0.958642 8.8507 0.990066C8.89737 1.00877 8.93552 1.03226 8.93552 1.04233C8.93552 1.05236 8.89618 1.17202 8.84806 1.30824C8.79995 1.44446 8.76035 1.56468 8.76007 1.57539C8.75965 1.59134 9.07451 1.81394 9.3589 1.99874C9.41275 2.03372 9.45755 2.01852 9.69738 1.88378C9.96987 1.73069 9.97476 1.72929 10.0416 1.78778C10.1084 1.84629 10.1071 1.85022 9.94477 2.08158C9.76394 2.33932 9.75218 2.37942 9.83894 2.44223C9.87125 2.46558 9.98303 2.58604 10.0873 2.70991C10.1916 2.83375 10.288 2.92929 10.3014 2.92217C10.3148 2.91505 10.4547 2.87452 10.6123 2.83208L10.8989 2.75493L10.9458 2.83189C10.9907 2.90573 10.9826 2.91678 10.7484 3.10257L10.5043 3.29629L10.6165 3.51038C10.6782 3.62815 10.7505 3.77991 10.7772 3.84762L10.8258 3.97078L11.1605 3.95979L11.4952 3.9488L11.5131 4.03131C11.5334 4.12446 11.5067 4.14462 11.1758 4.28558L10.97 4.37326L10.9955 4.55901C11.0095 4.66118 11.0309 4.82753 11.043 4.92867L11.0649 5.11261L11.2585 5.15483C11.7385 5.2596 11.7212 5.25251 11.7094 5.33948C11.6993 5.41369 11.6737 5.42508 11.3817 5.48545L11.0649 5.55096L11.039 5.78254C11.0248 5.90991 10.9988 6.07394 10.9814 6.14706L10.9496 6.28L11.2008 6.39056C11.5229 6.53233 11.5336 6.54078 11.5127 6.63675L11.4952 6.71722L11.1605 6.70623L10.8258 6.69524L10.7772 6.81839C10.7505 6.8861 10.6782 7.03787 10.6165 7.15564L10.5043 7.36973L10.7484 7.56344C10.9827 7.74932 10.9907 7.76025 10.9457 7.83422L10.8988 7.91127L10.6299 7.83778C10.482 7.79734 10.3346 7.76406 10.3025 7.76381C10.2703 7.76357 10.1732 7.85044 10.0866 7.95685C10.0001 8.06329 9.89582 8.17688 9.85481 8.20932C9.81377 8.24177 9.78023 8.28654 9.78023 8.30886C9.78023 8.33115 9.85358 8.45564 9.94322 8.58552C10.1027 8.81657 10.1048 8.82292 10.04 8.8796C9.97529 8.93626 9.96762 8.93406 9.69738 8.78223C9.45755 8.6475 9.41275 8.6323 9.3589 8.66728C9.07451 8.85208 8.75965 9.07468 8.76007 9.09062C8.76035 9.10134 8.79995 9.22155 8.84806 9.35778C8.89618 9.494 8.93552 9.61366 8.93552 9.62369C8.93552 9.63375 8.89688 9.65743 8.84965 9.67638C8.76986 9.70836 8.74839 9.69555 8.54759 9.49635L8.33145 9.28189L8.16716 9.35456C8.07678 9.39453 7.90439 9.45858 7.78408 9.49688L7.56531 9.56654L7.55531 9.86462C7.54591 10.1439 7.54046 10.1633 7.4688 10.1723C7.40527 10.1803 7.36645 10.1394 7.24002 9.93121C7.09378 9.69047 7.08354 9.68118 6.98214 9.69709C6.92407 9.7062 6.74228 9.72846 6.57816 9.74654C6.41404 9.76465 6.27005 9.79326 6.25819 9.81013C6.24633 9.827 6.20959 9.95158 6.1765 10.0869C6.11818 10.3257 6.11336 10.333 6.01425 10.333C5.91513 10.333 5.91031 10.3257 5.85199 10.0869C5.81891 9.95158 5.78216 9.827 5.7703 9.81013C5.75844 9.79326 5.61446 9.76465 5.45034 9.74654C5.28622 9.72846 5.10443 9.7062 5.04635 9.69709C4.94495 9.68118 4.93471 9.69047 4.78847 9.93121C4.66205 10.1394 4.62323 10.1803 4.5597 10.1723C4.48804 10.1633 4.48258 10.1439 4.47319 9.86462L4.46319 9.56654L4.24441 9.49688C4.12411 9.45858 3.95172 9.39453 3.86134 9.35456L3.69704 9.28189L3.4809 9.49635C3.28011 9.69555 3.25864 9.70836 3.17885 9.67638C3.13162 9.65743 3.09297 9.63375 3.09297 9.62369C3.09297 9.61366 3.13232 9.494 3.18043 9.35778C3.22855 9.22155 3.26814 9.10134 3.26842 9.09062C3.26885 9.07477 2.97017 8.86344 2.67273 8.66911C2.62293 8.63657 2.57027 8.65431 2.33421 8.7831C2.0599 8.93282 2.05342 8.93459 1.98693 8.87731C1.9202 8.81979 1.92172 8.81539 2.08816 8.57812C2.28061 8.30378 2.29149 8.35895 1.97117 7.98443C1.86716 7.86285 1.75629 7.76357 1.72479 7.76381C1.69329 7.76406 1.54653 7.79734 1.3986 7.83778L1.1297 7.91127L1.08282 7.83422C1.03784 7.76028 1.04576 7.74935 1.27629 7.56644L1.51664 7.37573L1.37604 7.08192C1.29867 6.92035 1.22835 6.76722 1.21973 6.74168C1.20688 6.70357 1.14318 6.69716 0.863862 6.70604C0.537876 6.71638 0.523657 6.71412 0.523657 6.65186C0.523657 6.61613 0.521122 6.57644 0.518025 6.56366C0.514928 6.55087 0.629773 6.48434 0.773197 6.41576L1.034 6.29112L1.02513 6.13713C1.02024 6.05245 1.0044 5.88592 0.989935 5.76703L0.963608 5.55093L0.646843 5.48527C0.34127 5.42192 0.330078 5.41654 0.330078 5.33301C0.330078 5.24948 0.34127 5.24409 0.646843 5.18075L0.963608 5.11508L0.989935 4.89898C1.0044 4.7801 1.02024 4.61356 1.02513 4.52889L1.034 4.3749L0.773197 4.25025C0.629773 4.18168 0.514928 4.11511 0.518025 4.10236C0.521122 4.0896 0.523657 4.04939 0.523657 4.01301C0.523657 3.94898 0.534427 3.94737 0.860941 3.96239C1.15018 3.9757 1.20097 3.97078 1.21744 3.9279C1.228 3.90041 1.29963 3.74567 1.37663 3.58409L1.51664 3.29028L1.27629 3.09957C1.04583 2.91675 1.03787 2.9057 1.08275 2.83189L1.12959 2.75493L1.41616 2.83208C1.57377 2.87452 1.71371 2.91505 1.72712 2.92217C1.74053 2.92929 1.83686 2.83375 1.94118 2.70991C2.04547 2.58604 2.15725 2.46558 2.18956 2.44223C2.27632 2.37942 2.26456 2.33932 2.08372 2.08158C1.92143 1.85022 1.92013 1.84629 1.98693 1.78778C2.05374 1.72929 2.05863 1.73069 2.33112 1.88378C2.57094 2.01852 2.61575 2.03372 2.6696 1.99874C2.95367 1.81415 3.26888 1.59134 3.26849 1.57539C3.26825 1.56468 3.22865 1.4474 3.1805 1.3148C3.13236 1.18217 3.09297 1.06251 3.09297 1.04886C3.09297 1.03524 3.13112 1.00877 3.17779 0.990066C3.25618 0.958642 3.27905 0.972327 3.47914 1.17041L3.6957 1.38471L3.86067 1.31174C3.95144 1.27161 4.12411 1.20744 4.24441 1.16914L4.46319 1.09948L4.47319 0.801398C4.48258 0.522141 4.48804 0.502667 4.5597 0.493689C4.62323 0.485732 4.66205 0.526661 4.78847 0.734803C4.93471 0.975547 4.94495 0.984834 5.04635 0.968921C5.10443 0.959819 5.28622 0.937559 5.45034 0.919478C5.61446 0.901367 5.75844 0.87276 5.7703 0.855887C5.78216 0.839014 5.81891 0.714432 5.85199 0.579107C5.91031 0.340283 5.91513 0.333008 6.01425 0.333008C6.11336 0.333008 6.11818 0.340283 6.1765 0.579107ZM5.24043 1.79013C4.87386 1.85462 4.76169 1.90908 4.66617 2.06895C4.5604 2.24592 4.60186 2.34914 5.05178 3.02886C5.28192 3.37663 5.61245 3.88078 5.78625 4.14917C6.07915 4.60152 6.11153 4.63942 6.22961 4.66787C6.35815 4.6988 6.53599 4.80174 6.58794 4.87524C6.61015 4.90666 6.93132 4.91505 8.11366 4.91505C9.43964 4.91505 9.6254 4.90914 9.73507 4.86335C9.8848 4.80084 9.99109 4.65759 9.99127 4.51802C9.99158 4.28768 9.71005 3.70536 9.39755 3.28982C9.06927 2.85335 8.39526 2.33932 7.81759 2.08496C7.084 1.76192 6.06419 1.64527 5.24043 1.79013ZM3.28655 2.70202C3.13658 2.74765 2.95229 2.91016 2.69043 3.22774C1.70195 4.42657 1.65514 6.04493 2.57302 7.28836C2.82337 7.62756 3.11233 7.90586 3.27272 7.9623C3.44518 8.02301 3.63686 7.98889 3.76578 7.87456C3.81192 7.83363 4.03415 7.51669 4.25958 7.17028C4.48501 6.82387 4.80178 6.33843 4.9635 6.09152L5.25753 5.6426L5.25531 5.33301C5.25391 5.14041 5.23553 4.99415 5.20671 4.94601C5.16465 4.87579 4.32719 3.59892 3.94591 3.02369C3.73614 2.70722 3.55689 2.61976 3.28655 2.70202ZM5.81015 5.13264C5.59851 5.30604 5.72627 5.59617 6.01425 5.59617C6.21758 5.59617 6.3641 5.43774 6.31616 5.26973C6.28276 5.15261 6.15774 5.06985 6.01425 5.06985C5.93481 5.06985 5.85787 5.0935 5.81015 5.13264ZM6.58794 5.79078C6.53599 5.86428 6.35815 5.96722 6.22961 5.99815C6.11149 6.02663 6.07926 6.06437 5.78663 6.51685C5.61305 6.78524 5.28252 7.28942 5.05213 7.63725C4.60186 8.31706 4.5604 8.4201 4.66617 8.59706C4.7631 8.75929 4.87372 8.811 5.26756 8.87812C7.04673 9.18134 8.86281 8.38347 9.68777 6.9362C9.84788 6.6553 9.99144 6.28248 9.99127 6.14799C9.99109 6.00843 9.8848 5.86518 9.73507 5.80267C9.6254 5.75688 9.43964 5.75096 8.11366 5.75096C6.93132 5.75096 6.61015 5.75935 6.58794 5.79078Z" fill="#542493"/>
</svg>
