<svg width="12" height="16" viewBox="0 0 12 16" fill="none" xmlns="http://www.w3.org/2000/svg">
<path d="M11 13.5901C11.0016 13.8307 10.9315 14.0663 10.7987 14.2669C10.6658 14.4675 10.4762 14.624 10.254 14.7164C10.1085 14.7753 9.95273 14.8046 9.79575 14.8026C9.63877 14.8006 9.48377 14.7672 9.33985 14.7045C9.19593 14.6418 9.06597 14.551 8.9576 14.4374C8.84923 14.3238 8.76462 14.1897 8.70874 14.043L6.24304 7.77704C5.52983 7.79672 4.82801 7.59519 4.23389 7.20013C3.63977 6.80506 3.18248 6.23581 2.92476 5.57051C2.58129 4.70989 2.58934 3.74884 2.94718 2.8941C3.30502 2.03936 3.98406 1.35922 4.83822 1L5.40257 2.42662C5.48284 2.61677 5.51318 2.82428 5.49071 3.02945C5.46825 3.23462 5.39372 3.43064 5.27419 3.59892C5.14417 3.77104 5.06752 3.97754 5.05374 4.19281C5.03996 4.40809 5.08966 4.62267 5.19669 4.80997C5.30078 4.99041 5.45515 5.13665 5.64095 5.23084C5.82676 5.32504 6.03596 5.36311 6.24304 5.34041C6.24304 5.34041 6.24304 5.34041 6.24304 5.34041C6.34308 5.33286 6.44124 5.30914 6.53369 5.27017C6.67897 5.21274 6.83419 5.18468 6.99038 5.18761C7.14657 5.19055 7.30063 5.22441 7.44366 5.28725C7.58668 5.35009 7.71582 5.44066 7.82363 5.55372C7.93143 5.66678 8.01576 5.80008 8.07172 5.94593L8.42293 6.83484L10.9153 13.1323C10.9726 13.2781 11.0014 13.4335 11 13.5901Z" stroke="black" stroke-width="0.5" stroke-linecap="round" stroke-linejoin="round"/>
<path d="M6.22933 7.77044C6.11718 7.77651 6.0048 7.77651 5.89265 7.77044L3.28889 14.0001C3.2293 14.1454 3.14139 14.2775 3.03027 14.3885C2.91915 14.4996 2.78705 14.5874 2.64166 14.6469C2.49627 14.7065 2.3405 14.7364 2.18341 14.7352C2.02631 14.7339 1.87104 14.7014 1.72664 14.6395C1.51001 14.545 1.32578 14.3891 1.19666 14.1911C1.06754 13.9932 0.999184 13.7617 1.00001 13.5254C0.999493 13.3593 1.03159 13.1947 1.09447 13.0409L3.72487 6.78223C4.05433 7.10702 4.44596 7.36197 4.87631 7.53178C5.30665 7.70158 5.76685 7.78276 6.22933 7.77044V7.77044Z" stroke="black" stroke-width="0.5" stroke-linecap="round" stroke-linejoin="round"/>
<path d="M9.24197 5.65313C9.05778 6.1017 8.77847 6.50497 8.4233 6.83511L8.0721 5.94378C8.01613 5.79793 7.93181 5.66462 7.824 5.55156C7.7162 5.43851 7.58705 5.34794 7.44403 5.2851C7.30101 5.22226 7.14694 5.18839 6.99075 5.18546C6.83456 5.18253 6.67934 5.21059 6.53406 5.26801C6.44161 5.30699 6.34345 5.33071 6.24341 5.33826C6.3966 5.31458 6.5426 5.25708 6.6708 5.16994C6.799 5.08279 6.90619 4.96819 6.98457 4.83446C7.09474 4.64939 7.14839 4.43614 7.13892 4.22097C7.12945 4.0058 7.05728 3.79809 6.93129 3.62341C6.81522 3.45221 6.74494 3.25415 6.72713 3.04808C6.70932 2.84202 6.74458 2.63483 6.82956 2.44627L7.42297 1.03418C8.27248 1.41039 8.93965 2.10601 9.28009 2.97047C9.62052 3.83493 9.60683 4.79869 9.24197 5.65313V5.65313Z" stroke="black" stroke-width="0.5" stroke-linecap="round" stroke-linejoin="round"/>
</svg>
