<svg width="25" height="25" viewBox="0 0 25 25" fill="none" xmlns="http://www.w3.org/2000/svg">
<path d="M8.1875 1C8.37812 1 8.56094 1.07573 8.69573 1.21052C8.83052 1.34531 8.90625 1.52813 8.90625 1.71875V3.875H10.3438V1.71875C10.3438 1.52813 10.4195 1.34531 10.5543 1.21052C10.6891 1.07573 10.8719 1 11.0625 1C11.2531 1 11.4359 1.07573 11.5707 1.21052C11.7055 1.34531 11.7812 1.52813 11.7812 1.71875V3.875H13.2188V1.71875C13.2188 1.52813 13.2945 1.34531 13.4293 1.21052C13.5641 1.07573 13.7469 1 13.9375 1C14.1281 1 14.3109 1.07573 14.4457 1.21052C14.5805 1.34531 14.6562 1.52813 14.6562 1.71875V3.875H16.0938V1.71875C16.0938 1.52813 16.1695 1.34531 16.3043 1.21052C16.4391 1.07573 16.6219 1 16.8125 1C17.0031 1 17.1859 1.07573 17.3207 1.21052C17.4555 1.34531 17.5312 1.52813 17.5312 1.71875V3.875C18.4844 3.875 19.3985 4.25363 20.0724 4.92758C20.7464 5.60154 21.125 6.51563 21.125 7.46875H23.2812C23.4719 7.46875 23.6547 7.54448 23.7895 7.67927C23.9243 7.81406 24 7.99688 24 8.1875C24 8.37812 23.9243 8.56094 23.7895 8.69573C23.6547 8.83052 23.4719 8.90625 23.2812 8.90625H21.125V10.3438H23.2812C23.4719 10.3438 23.6547 10.4195 23.7895 10.5543C23.9243 10.6891 24 10.8719 24 11.0625C24 11.2531 23.9243 11.4359 23.7895 11.5707C23.6547 11.7055 23.4719 11.7812 23.2812 11.7812H21.125V13.2188H23.2812C23.4719 13.2188 23.6547 13.2945 23.7895 13.4293C23.9243 13.5641 24 13.7469 24 13.9375C24 14.1281 23.9243 14.3109 23.7895 14.4457C23.6547 14.5805 23.4719 14.6562 23.2812 14.6562H21.125V16.0938H23.2812C23.4719 16.0938 23.6547 16.1695 23.7895 16.3043C23.9243 16.4391 24 16.6219 24 16.8125C24 17.0031 23.9243 17.1859 23.7895 17.3207C23.6547 17.4555 23.4719 17.5312 23.2812 17.5312H21.125C21.125 18.4844 20.7464 19.3985 20.0724 20.0724C19.3985 20.7464 18.4844 21.125 17.5312 21.125V23.2812C17.5312 23.4719 17.4555 23.6547 17.3207 23.7895C17.1859 23.9243 17.0031 24 16.8125 24C16.6219 24 16.4391 23.9243 16.3043 23.7895C16.1695 23.6547 16.0938 23.4719 16.0938 23.2812V21.125H14.6562V23.2812C14.6562 23.4719 14.5805 23.6547 14.4457 23.7895C14.3109 23.9243 14.1281 24 13.9375 24C13.7469 24 13.5641 23.9243 13.4293 23.7895C13.2945 23.6547 13.2188 23.4719 13.2188 23.2812V21.125H11.7812V23.2812C11.7812 23.4719 11.7055 23.6547 11.5707 23.7895C11.4359 23.9243 11.2531 24 11.0625 24C10.8719 24 10.6891 23.9243 10.5543 23.7895C10.4195 23.6547 10.3438 23.4719 10.3438 23.2812V21.125H8.90625V23.2812C8.90625 23.4719 8.83052 23.6547 8.69573 23.7895C8.56094 23.9243 8.37812 24 8.1875 24C7.99688 24 7.81406 23.9243 7.67927 23.7895C7.54448 23.6547 7.46875 23.4719 7.46875 23.2812V21.125C6.51563 21.125 5.60154 20.7464 4.92758 20.0724C4.25363 19.3985 3.875 18.4844 3.875 17.5312H1.71875C1.52813 17.5312 1.34531 17.4555 1.21052 17.3207C1.07573 17.1859 1 17.0031 1 16.8125C1 16.6219 1.07573 16.4391 1.21052 16.3043C1.34531 16.1695 1.52813 16.0938 1.71875 16.0938H3.875V14.6562H1.71875C1.52813 14.6562 1.34531 14.5805 1.21052 14.4457C1.07573 14.3109 1 14.1281 1 13.9375C1 13.7469 1.07573 13.5641 1.21052 13.4293C1.34531 13.2945 1.52813 13.2188 1.71875 13.2188H3.875V11.7812H1.71875C1.52813 11.7812 1.34531 11.7055 1.21052 11.5707C1.07573 11.4359 1 11.2531 1 11.0625C1 10.8719 1.07573 10.6891 1.21052 10.5543C1.34531 10.4195 1.52813 10.3438 1.71875 10.3438H3.875V8.90625H1.71875C1.52813 8.90625 1.34531 8.83052 1.21052 8.69573C1.07573 8.56094 1 8.37812 1 8.1875C1 7.99688 1.07573 7.81406 1.21052 7.67927C1.34531 7.54448 1.52813 7.46875 1.71875 7.46875H3.875C3.875 6.51563 4.25363 5.60154 4.92758 4.92758C5.60154 4.25363 6.51563 3.875 7.46875 3.875V1.71875C7.46875 1.52813 7.54448 1.34531 7.67927 1.21052C7.81406 1.07573 7.99688 1 8.1875 1ZM7.46875 5.3125C6.89688 5.3125 6.34843 5.53968 5.94405 5.94405C5.53968 6.34843 5.3125 6.89688 5.3125 7.46875V17.5312C5.3125 18.1031 5.53968 18.6516 5.94405 19.0559C6.34843 19.4603 6.89688 19.6875 7.46875 19.6875H17.5312C18.1031 19.6875 18.6516 19.4603 19.0559 19.0559C19.4603 18.6516 19.6875 18.1031 19.6875 17.5312V7.46875C19.6875 6.89688 19.4603 6.34843 19.0559 5.94405C18.6516 5.53968 18.1031 5.3125 17.5312 5.3125H7.46875ZM8.1875 10.3438C8.1875 9.77188 8.41467 9.22343 8.81905 8.81905C9.22343 8.41467 9.77188 8.1875 10.3438 8.1875H14.6562C15.2281 8.1875 15.7766 8.41467 16.1809 8.81905C16.5853 9.22343 16.8125 9.77188 16.8125 10.3438V14.6562C16.8125 15.2281 16.5853 15.7766 16.1809 16.1809C15.7766 16.5853 15.2281 16.8125 14.6562 16.8125H10.3438C9.77188 16.8125 9.22343 16.5853 8.81905 16.1809C8.41467 15.7766 8.1875 15.2281 8.1875 14.6562V10.3438ZM10.3438 9.625C10.1531 9.625 9.97031 9.70073 9.83552 9.83552C9.70073 9.97031 9.625 10.1531 9.625 10.3438V14.6562C9.625 14.8469 9.70073 15.0297 9.83552 15.1645C9.97031 15.2993 10.1531 15.375 10.3438 15.375H14.6562C14.8469 15.375 15.0297 15.2993 15.1645 15.1645C15.2993 15.0297 15.375 14.8469 15.375 14.6562V10.3438C15.375 10.1531 15.2993 9.97031 15.1645 9.83552C15.0297 9.70073 14.8469 9.625 14.6562 9.625H10.3438Z" fill="#542493" stroke="white" stroke-width="0.4"/>
</svg>
