<svg width="60" height="60" viewBox="0 0 60 60" fill="none" xmlns="http://www.w3.org/2000/svg">
<path fill-rule="evenodd" clip-rule="evenodd" d="M28.3679 1.16507C27.1147 1.43413 26.2818 1.88742 23.85 3.62409C22.592 4.52249 21.3644 5.39219 21.122 5.55678L20.6816 5.85613L15.9124 5.85795C11.1746 5.85988 11.1403 5.86158 10.6925 6.11556C10.4398 6.25894 10.1297 6.56952 9.98658 6.82259C9.73855 7.26113 9.73119 7.36526 9.72938 10.4613L9.72757 13.6486L5.50886 16.6395C3.18851 18.2845 1.22808 19.7088 1.1522 19.8046C0.937588 20.0753 0.955595 56.4456 1.17055 57.0492C1.4256 57.7652 1.89005 58.3272 2.51238 58.6726L3.10221 59H30H56.8978L57.4877 58.6726C58.11 58.3272 58.5744 57.7652 58.8295 57.0492C59.0445 56.4456 59.0623 20.0768 58.8478 19.8017C58.772 19.7045 56.8115 18.2793 54.4912 16.6349L50.2725 13.6449L50.2707 10.4594C50.2689 7.36538 50.2615 7.26113 50.0135 6.82259C49.8703 6.56952 49.5602 6.25894 49.3076 6.11556C48.8598 5.86158 48.8253 5.85988 44.0896 5.85795L39.3224 5.85613L38.4835 5.27002C38.0221 4.94775 36.7937 4.07794 35.7536 3.33722C34.7134 2.59649 33.5389 1.84352 33.1435 1.66395C31.7107 1.01329 29.9374 0.828056 28.3679 1.16507ZM31.8687 3.24488C32.2425 3.37397 32.7601 3.61865 33.0191 3.78869C33.9288 4.38603 35.652 5.63358 35.7203 5.74429C35.7653 5.81723 33.7776 5.85613 30 5.85613C26.4773 5.85613 24.2361 5.81496 24.2755 5.7511C24.3411 5.64481 25.6681 4.67858 26.8168 3.90065C27.386 3.5152 28.3626 3.11942 29.094 2.97775C29.665 2.86715 31.2035 3.01529 31.8687 3.24488ZM48.3472 17.4623V27.1401L41.5951 32.7475C37.8815 35.8317 34.5432 38.6123 34.1768 38.9266C33.1793 39.7826 32.4173 40.1991 31.3574 40.4675C29.3497 40.976 27.5886 40.468 25.7228 38.8424C25.4151 38.5744 22.1234 35.8298 18.408 32.7434L11.6529 27.1319V17.4582V7.78451H30H48.3472V17.4623ZM30 11.6045C29.1866 11.6734 27.7911 11.976 26.9238 12.2714C23.1114 13.5701 19.633 17.2391 18.5413 21.113C18.199 22.3278 18.1734 24.7869 18.4905 25.9907C19.2581 28.9051 21.2636 31.3055 23.9502 32.5256C25.829 33.3789 29.2612 33.9475 31.8687 33.8377C35.5901 33.6808 38.3816 32.5936 40.5551 30.4544C41.4731 29.5508 41.5519 29.4381 41.5519 29.0279C41.5519 28.5752 41.2873 28.2095 40.8473 28.0542C40.5108 27.9354 40.0237 28.1914 39.584 28.7182C37.9126 30.721 34.6702 31.9502 31.0759 31.9435C28.944 31.9395 26.0078 31.3554 24.5499 30.6452C21.9594 29.3835 20.3464 26.9298 20.1783 23.9956C20.0959 22.5558 20.3345 21.4606 21.0534 19.9787C22.2138 17.5868 24.3339 15.5237 26.7658 14.4196C29.5438 13.1583 32.994 13.2358 35.2922 14.6109C36.6785 15.4404 37.948 17.0463 38.5042 18.6742C38.8497 19.6851 38.9375 21.829 38.6764 22.875C38.2665 24.5164 37.1568 26.133 36.1157 26.6053C35.4106 26.9252 34.2789 26.93 33.9639 26.6146C33.6819 26.3321 33.6807 26.3703 34.0141 25.047C34.3497 23.7152 35.5495 17.7766 35.5495 17.4474C35.5495 17.3181 35.4286 17.0715 35.2811 16.8996C35.0765 16.6615 34.9111 16.587 34.5868 16.587C34.0413 16.587 33.6685 16.9956 33.5615 17.7109L33.4843 18.2266L32.9463 17.7226C32.0863 16.9169 30.8396 16.4055 29.7351 16.4055C27.246 16.4055 24.3536 19.2507 23.6037 22.4366C23.2255 24.0435 23.4731 25.8405 24.2305 26.9858C25.6532 29.1371 28.9335 29.4715 31.3243 27.7089L31.9749 27.2293L32.3182 27.6875C32.8445 28.3903 33.7125 28.7766 34.7773 28.7822C35.744 28.7872 36.3753 28.6449 37.1655 28.2439C38.653 27.4889 39.9835 25.5537 40.5456 23.3274C40.7543 22.5008 40.7783 22.1609 40.7261 20.7791C40.6574 18.965 40.493 18.24 39.8501 16.916C38.2813 13.6855 35.3277 11.803 31.529 11.6125C30.9683 11.5843 30.2803 11.5807 30 11.6045ZM9.70152 23.0946L9.67094 25.4885L6.6884 23.0003C5.04803 21.632 3.69997 20.4688 3.69272 20.4156C3.68536 20.3624 5.02753 19.3623 6.67526 18.193L9.67094 16.067L9.70152 18.3839C9.71839 19.6581 9.71839 21.778 9.70152 23.0946ZM53.4136 18.2496C54.9855 19.3656 56.2963 20.3185 56.3265 20.3674C56.3697 20.4375 51.3205 24.7343 50.4772 25.3449C50.2806 25.4872 50.2725 25.3046 50.2725 20.7725C50.2725 17.0266 50.3017 16.0693 50.414 16.1362C50.492 16.1826 51.8417 17.1336 53.4136 18.2496ZM30.9939 18.6613C31.5871 18.9643 32.1124 19.5853 32.5279 20.4743L32.8703 21.2075L32.6223 22.4081C32.3404 23.7725 32.029 24.3226 30.8555 25.5289C29.7212 26.695 28.3701 27.1559 27.138 26.7972C25.9546 26.4526 25.3566 25.5157 25.3566 24.0059C25.3566 21.7683 27.1999 19.0371 29.0993 18.4605C29.63 18.2994 30.4573 18.3871 30.9939 18.6613ZM13.8613 31.4928C18.9068 35.6922 23.0349 39.1681 23.0349 39.217C23.0349 39.2796 6.38182 53.2037 3.12294 55.866C2.94445 56.0118 2.93233 54.9511 2.93233 39.2098V22.3979L3.81005 23.1277C4.29285 23.5292 8.81587 27.2935 13.8613 31.4928ZM57.0401 47.5932L57.0111 55.9806L46.9881 47.6403C41.4755 43.0531 36.9551 39.266 36.9427 39.2245C36.9303 39.183 41.4406 35.3913 46.9657 30.7986L57.0111 22.448L57.0401 30.8269C57.0561 35.4353 57.0561 42.9802 57.0401 47.5932ZM25.792 41.3348C26.5677 41.8802 27.9732 42.3841 29.1256 42.5297C29.9564 42.6348 30.3089 42.6255 31.169 42.4758C32.7512 42.2004 33.699 41.7727 35.0965 40.7034L35.3796 40.4869L45.3368 48.7793L55.2939 57.0716L42.647 57.1004C35.6912 57.1163 24.3109 57.1163 17.3576 57.1004L4.71517 57.0716L14.6678 48.7812L24.6205 40.4906L24.9426 40.7274C25.1197 40.8575 25.5019 41.1308 25.792 41.3348Z" fill="#542493" stroke="#F8F5FF" stroke-width="0.5"/>
</svg>
