<svg width="27" height="20" viewBox="0 0 27 20" fill="none" xmlns="http://www.w3.org/2000/svg">
<path d="M8.44189 9.25175C8.44189 7.90815 8.97564 6.61957 9.92572 5.66949C10.8758 4.71942 12.1644 4.18567 13.508 4.18567C14.8516 4.18567 16.1402 4.71942 17.0902 5.66949C18.0403 6.61957 18.5741 7.90815 18.5741 9.25175C18.5741 10.5954 18.0403 11.8839 17.0902 12.834C16.1402 13.7841 14.8516 14.3178 13.508 14.3178C12.1644 14.3178 10.8758 13.7841 9.92572 12.834C8.97564 11.8839 8.44189 10.5954 8.44189 9.25175V9.25175ZM13.1913 4.86769C12.7671 4.99688 12.3459 5.38696 11.9964 6.04239C11.8812 6.26029 11.7822 6.48634 11.7 6.71871H13.1913V4.86769ZM11.0319 6.71871C11.1375 6.38233 11.2731 6.05615 11.4372 5.74412C11.5467 5.53708 11.6732 5.33946 11.8153 5.15329C11.0307 5.47868 10.3556 6.02189 9.8699 6.71871H11.0319ZM10.6634 8.93512C10.6824 8.37975 10.7508 7.84718 10.861 7.35197H9.50197C9.26584 7.84911 9.12494 8.38609 9.08655 8.93512H10.6634ZM11.5113 7.35197C11.3868 7.87112 11.315 8.40154 11.2973 8.93512H13.1913V7.35197H11.5113ZM13.8246 7.35197V8.93512H15.7181C15.7005 8.40156 15.629 7.87114 15.5047 7.35197H13.8246ZM11.2979 9.56839C11.3155 10.1019 11.387 10.6324 11.5113 11.1515H13.1913V9.56839H11.2979ZM13.8246 9.56839V11.1515H15.5047C15.6231 10.6671 15.6984 10.1333 15.7187 9.56839H13.8246ZM11.7 11.7848C11.7874 12.0292 11.8868 12.2559 11.9964 12.4611C12.3459 13.1165 12.7677 13.506 13.1913 13.6358V11.7848H11.7ZM11.8153 13.3502C11.6732 13.1641 11.5467 12.9664 11.4372 12.7594C11.2731 12.4474 11.1375 12.1212 11.0319 11.7848H9.8699C10.3556 12.4816 11.0306 13.0249 11.8153 13.3502V13.3502ZM10.861 11.1515C10.7464 10.631 10.6803 10.1011 10.6634 9.56839H9.08655C9.12582 10.132 9.27083 10.6658 9.50197 11.1515H10.861ZM15.2007 13.3502C15.9853 13.0249 16.6604 12.4816 17.1461 11.7848H15.984C15.8785 12.1212 15.7428 12.4474 15.5787 12.7594C15.4693 12.9664 15.3428 13.1641 15.2007 13.3502V13.3502ZM13.8246 11.7848V13.6358C14.2489 13.5066 14.67 13.1165 15.0196 12.4611C15.1291 12.2559 15.2285 12.0292 15.3159 11.7848H13.8246ZM16.155 11.1515H17.514C17.7451 10.6658 17.8901 10.132 17.9294 9.56839H16.3526C16.3357 10.1011 16.2695 10.631 16.155 11.1515ZM17.9294 8.93512C17.891 8.3861 17.7501 7.84912 17.514 7.35197H16.155C16.2652 7.84718 16.3336 8.37975 16.3526 8.93512H17.9294ZM15.5787 5.74412C15.7352 6.03796 15.8713 6.36472 15.984 6.71871H17.1461C16.6604 6.02186 15.9853 5.47865 15.2007 5.15329C15.3387 5.33314 15.4654 5.53198 15.5787 5.74412V5.74412ZM15.3159 6.71871C15.2338 6.48633 15.1348 6.26029 15.0196 6.04239C14.67 5.38696 14.2489 4.99751 13.8246 4.86769V6.71871H15.3159Z" fill="#542493"/>
<path d="M7.3231 17.3383L7.66456 12.9265C7.66767 12.8866 7.66098 12.8465 7.64493 12.809C7.62889 12.7714 7.60387 12.7373 7.57158 12.709C7.53928 12.6806 7.50045 12.6586 7.45773 12.6445C7.41502 12.6304 7.3694 12.6246 7.32398 12.6273L2.30254 12.9279C2.28738 12.9288 2.27286 12.9335 2.26071 12.9414C2.24856 12.9493 2.23928 12.9602 2.23399 12.9727C2.22869 12.9852 2.22761 12.9988 2.23085 13.0118C2.2341 13.0249 2.24154 13.0368 2.2523 13.0463L2.82346 13.5481C2.85589 13.5766 2.90094 13.5915 2.94734 13.5892L6.25982 13.3912L2.31179 16.8594C2.28094 16.8865 2.28108 16.931 2.31211 16.9582L2.73519 17.3299C2.76622 17.3571 2.81684 17.3573 2.84769 17.3302L6.79572 13.8619L6.57033 16.7719C6.56694 16.812 6.58395 16.8516 6.61709 16.8807L7.18825 17.3824C7.2362 17.4246 7.31838 17.3982 7.3231 17.3383Z" fill="#542493"/>
<path d="M19.6759 2.40536L19.3345 6.81718C19.3314 6.85708 19.338 6.89715 19.3541 6.93468C19.3701 6.97221 19.3951 7.00631 19.4274 7.03469C19.4597 7.06306 19.4986 7.08504 19.5413 7.09913C19.584 7.11322 19.6296 7.1191 19.675 7.11637L24.6965 6.81579C24.7116 6.8149 24.7262 6.8102 24.7383 6.80225C24.7505 6.7943 24.7597 6.78344 24.765 6.77096C24.7703 6.75847 24.7714 6.7449 24.7682 6.73184C24.7649 6.71879 24.7575 6.7068 24.7467 6.69732L24.1756 6.19557C24.1431 6.16708 24.0981 6.15214 24.0517 6.1545L20.7392 6.3525L24.6872 2.88426C24.7181 2.85716 24.7179 2.81269 24.6869 2.78543L24.2638 2.41377C24.2328 2.38651 24.1822 2.38639 24.1513 2.41349L20.2033 5.88172L20.4287 2.9718C20.4321 2.93166 20.4151 2.89209 20.3819 2.86297L19.8108 2.36122C19.7628 2.3191 19.6806 2.34546 19.6759 2.40536Z" fill="#542493"/>
<path d="M2.56487 6.77351L7.59766 6.68781C7.64318 6.68706 7.68804 6.67771 7.7292 6.6604C7.77035 6.64309 7.80685 6.61822 7.83621 6.58748C7.86557 6.55674 7.88711 6.52085 7.89937 6.48224C7.91163 6.44363 7.91432 6.40319 7.90726 6.36368L7.12876 1.99547C7.12643 1.98228 7.11983 1.96999 7.10976 1.96004C7.09968 1.9501 7.08656 1.94293 7.07194 1.93939C7.05732 1.93584 7.04183 1.93607 7.02731 1.94005C7.01279 1.94403 6.99985 1.95159 6.99003 1.96182L6.47083 2.50539C6.44134 2.53626 6.42833 2.57699 6.43504 2.61739L6.94828 5.49898L2.67118 2.34622C2.63776 2.32158 2.58734 2.32558 2.55914 2.35511L2.17454 2.75776C2.14634 2.78728 2.15061 2.8316 2.18403 2.85623L6.46112 6.009L3.14161 6.06536C3.09579 6.0659 3.0524 6.08423 3.02227 6.11577L2.50307 6.65934C2.45948 6.70497 2.49653 6.77459 2.56487 6.77351Z" fill="#542493"/>
<path d="M24.6787 12.959L19.6566 12.6591C19.6111 12.6563 19.5655 12.6622 19.5228 12.6763C19.4801 12.6904 19.4413 12.7124 19.409 12.7407C19.3767 12.7691 19.3516 12.8032 19.3356 12.8407C19.3196 12.8783 19.3129 12.9183 19.316 12.9582L19.6581 17.3694C19.6591 17.3828 19.6645 17.3955 19.6735 17.4062C19.6826 17.4169 19.695 17.425 19.7092 17.4297C19.7234 17.4343 19.7388 17.4353 19.7537 17.4324C19.7686 17.4296 19.7822 17.423 19.793 17.4136L20.3641 16.9118C20.3966 16.8833 20.4136 16.8438 20.4109 16.803L20.1855 13.8931L24.1335 17.3613C24.1644 17.3884 24.215 17.3883 24.246 17.361L24.6691 16.9894C24.7001 16.9621 24.7003 16.9176 24.6694 16.8905L20.7214 13.4223L24.0339 13.6203C24.0796 13.6233 24.1246 13.6083 24.1577 13.5792L24.7289 13.0775C24.7768 13.0354 24.7468 12.9632 24.6787 12.959Z" fill="#542493"/>
</svg>
