<svg width="45" height="27" viewBox="0 0 45 27" fill="none" xmlns="http://www.w3.org/2000/svg">
<path d="M0.125 11.583H0.755859C1.51953 11.583 2.02865 11.3838 2.2832 10.9854C2.54883 10.5869 2.68164 10.1165 2.68164 9.57422C2.68164 8.94336 2.59863 8.26823 2.43262 7.54883L2.15039 6.33691C1.96224 5.54004 1.86816 4.78743 1.86816 4.0791C1.86816 3.03874 2.2334 2.20312 2.96387 1.57227C3.7054 0.930339 4.59082 0.609375 5.62012 0.609375H7.46289V0.65918H8.5752V24.3662H7.46289V24.3828H5.62012C4.59082 24.3828 3.7054 24.0674 2.96387 23.4365C2.2334 22.8057 1.86816 21.9645 1.86816 20.9131C1.86816 20.2048 1.96224 19.4577 2.15039 18.6719L2.43262 17.46C2.59863 16.7295 2.68164 16.0488 2.68164 15.418C2.68164 14.8867 2.54883 14.4219 2.2832 14.0234C2.02865 13.6139 1.51953 13.4092 0.755859 13.4092H0.125V11.583ZM4.3916 2.9668C4.0485 3.3099 3.87695 3.82454 3.87695 4.51074C3.87695 4.74316 3.89909 4.94238 3.94336 5.1084L4.07617 5.67285L4.3252 7.10059C4.51335 8.15202 4.60742 8.86589 4.60742 9.24219C4.60742 9.86198 4.41374 10.4873 4.02637 11.1182C3.65007 11.738 3.02474 12.1973 2.15039 12.4961C3.02474 12.806 3.65007 13.2764 4.02637 13.9072C4.41374 14.527 4.60742 15.1468 4.60742 15.7666C4.60742 16.1318 4.51335 16.8457 4.3252 17.9082L4.07617 19.3359L3.94336 19.9004C3.89909 20.0885 3.87695 20.2878 3.87695 20.498C3.87695 21.1732 4.0485 21.6823 4.3916 22.0254C4.74577 22.3796 5.13867 22.5566 5.57031 22.5566H6.64941V2.45215H5.57031C5.13867 2.45215 4.74577 2.6237 4.3916 2.9668ZM23.3648 1.81C25.1101 1.81 26.6741 2.19533 28.0568 2.966C29.4395 3.73667 30.5161 4.81333 31.2868 6.196C32.0801 7.57867 32.4768 9.17667 32.4768 10.99C32.4768 12.8033 32.0801 14.4127 31.2868 15.818C30.5161 17.2007 29.4395 18.2773 28.0568 19.048C26.6741 19.8187 25.1101 20.204 23.3648 20.204C22.0728 20.204 20.8828 19.9547 19.7948 19.456C18.7295 18.9573 17.8228 18.232 17.0748 17.28V26.596H13.8108V1.98H16.9388V4.836C17.6641 3.83867 18.5821 3.09067 19.6928 2.592C20.8035 2.07067 22.0275 1.81 23.3648 1.81ZM23.0928 17.348C24.2488 17.348 25.2801 17.0873 26.1868 16.566C27.1161 16.022 27.8415 15.274 28.3628 14.322C28.9068 13.3473 29.1788 12.2367 29.1788 10.99C29.1788 9.74333 28.9068 8.644 28.3628 7.692C27.8415 6.71733 27.1161 5.96933 26.1868 5.448C25.2801 4.92667 24.2488 4.666 23.0928 4.666C21.9595 4.666 20.9281 4.938 19.9988 5.482C19.0921 6.00333 18.3668 6.74 17.8228 7.692C17.3015 8.644 17.0408 9.74333 17.0408 10.99C17.0408 12.2367 17.3015 13.3473 17.8228 14.322C18.3441 15.274 19.0695 16.022 19.9988 16.566C20.9281 17.0873 21.9595 17.348 23.0928 17.348ZM44.4678 13.4092H43.8369C43.0732 13.4092 42.5586 13.6139 42.293 14.0234C42.0384 14.4219 41.9111 14.8867 41.9111 15.418C41.9111 16.0488 41.9941 16.7295 42.1602 17.46L42.4424 18.6719C42.6305 19.4577 42.7246 20.2048 42.7246 20.9131C42.7246 21.9645 42.3538 22.8057 41.6123 23.4365C40.8818 24.0674 40.002 24.3828 38.9727 24.3828H37.1299V24.3662H36.0176V0.65918H37.1299V0.609375H38.9727C40.002 0.609375 40.8818 0.930339 41.6123 1.57227C42.3538 2.20312 42.7246 3.03874 42.7246 4.0791C42.7246 4.78743 42.6305 5.54004 42.4424 6.33691L42.1602 7.54883C41.9941 8.26823 41.9111 8.94336 41.9111 9.57422C41.9111 10.1165 42.0384 10.5869 42.293 10.9854C42.5586 11.3838 43.0732 11.583 43.8369 11.583H44.4678V13.4092ZM40.2012 2.9668C39.847 2.6237 39.4541 2.45215 39.0225 2.45215H37.9434V22.5566H39.0225C39.4541 22.5566 39.8415 22.3796 40.1846 22.0254C40.5387 21.6823 40.7158 21.1732 40.7158 20.498C40.7158 20.2878 40.6937 20.0885 40.6494 19.9004L40.5166 19.3359L40.2676 17.9082C40.0794 16.8457 39.9854 16.1318 39.9854 15.7666C39.9854 15.1468 40.1735 14.527 40.5498 13.9072C40.9372 13.2764 41.568 12.806 42.4424 12.4961C41.568 12.1973 40.9372 11.738 40.5498 11.1182C40.1735 10.4873 39.9854 9.86198 39.9854 9.24219C39.9854 8.86589 40.0794 8.15202 40.2676 7.10059L40.5166 5.67285L40.6494 5.1084C40.6937 4.94238 40.7158 4.74316 40.7158 4.51074C40.7158 3.82454 40.5443 3.3099 40.2012 2.9668Z" fill="#510EA7"/>
</svg>
