<svg width="100" height="30" viewBox="0 0 63 14" fill="none" xmlns="http://www.w3.org/2000/svg"> <path d="M0.0546875 6.03906H0.351562C0.710938 6.03906 0.950521 5.94531 1.07031 5.75781C1.19531 5.57031 1.25781 5.34896 1.25781 5.09375C1.25781 4.79688 1.21875 4.47917 1.14062 4.14062L1.00781 3.57031C0.919271 3.19531 0.875 2.84115 0.875 2.50781C0.875 2.01823 1.04688 1.625 1.39062 1.32812C1.73958 1.02604 2.15625 0.875 2.64062 0.875H3.50781V0.898438H4.03125V12.0547H3.50781V12.0625H2.64062C2.15625 12.0625 1.73958 11.9141 1.39062 11.6172C1.04688 11.3203 0.875 10.9245 0.875 10.4297C0.875 10.0964 0.919271 9.74479 1.00781 9.375L1.14062 8.80469C1.21875 8.46094 1.25781 8.14062 1.25781 7.84375C1.25781 7.59375 1.19531 7.375 1.07031 7.1875C0.950521 6.99479 0.710938 6.89844 0.351562 6.89844H0.0546875V6.03906ZM2.0625 1.98438C1.90104 2.14583 1.82031 2.38802 1.82031 2.71094C1.82031 2.82031 1.83073 2.91406 1.85156 2.99219L1.91406 3.25781L2.03125 3.92969C2.11979 4.42448 2.16406 4.76042 2.16406 4.9375C2.16406 5.22917 2.07292 5.52344 1.89062 5.82031C1.71354 6.11198 1.41927 6.32812 1.00781 6.46875C1.41927 6.61458 1.71354 6.83594 1.89062 7.13281C2.07292 7.42448 2.16406 7.71615 2.16406 8.00781C2.16406 8.17969 2.11979 8.51562 2.03125 9.01562L1.91406 9.6875L1.85156 9.95312C1.83073 10.0417 1.82031 10.1354 1.82031 10.2344C1.82031 10.5521 1.90104 10.7917 2.0625 10.9531C2.22917 11.1198 2.41406 11.2031 2.61719 11.2031H3.125V1.74219H2.61719C2.41406 1.74219 2.22917 1.82292 2.0625 1.98438ZM10.9591 1.52C9.56706 1.52 8.39906 2.128 7.71106 3.248V1.584H6.62306V13.104H7.75906V8.416C8.46306 9.504 9.61506 10.08 10.9591 10.08C13.3591 10.08 15.1511 8.352 15.1511 5.792C15.1511 3.248 13.3591 1.52 10.9591 1.52ZM10.8791 9.072C9.08706 9.072 7.74306 7.76 7.74306 5.792C7.74306 3.84 9.08706 2.512 10.8791 2.512C12.6551 2.512 14.0151 3.84 14.0151 5.792C14.0151 7.76 12.6551 9.072 10.8791 9.072ZM20.3639 1.52C19.0359 1.52 17.7879 1.936 16.9399 2.656L17.4519 3.504C18.1399 2.896 19.1639 2.512 20.2519 2.512C21.8199 2.512 22.6359 3.296 22.6359 4.736V5.248H19.9639C17.5479 5.248 16.7159 6.336 16.7159 7.632C16.7159 9.088 17.8839 10.08 19.7879 10.08C21.1799 10.08 22.1719 9.552 22.6839 8.688V10H23.7719V4.784C23.7719 2.608 22.5399 1.52 20.3639 1.52ZM19.9639 9.184C18.6199 9.184 17.8359 8.576 17.8359 7.6C17.8359 6.736 18.3639 6.096 19.9959 6.096H22.6359V7.472C22.1879 8.576 21.2439 9.184 19.9639 9.184ZM27.9454 3.232V1.584H26.8574V10H27.9934V5.712C27.9934 3.728 29.0654 2.608 30.8254 2.608C30.9054 2.608 31.0014 2.624 31.0974 2.624V1.52C29.5454 1.52 28.4734 2.112 27.9454 3.232ZM36.0827 1.52C34.7547 1.52 33.5067 1.936 32.6587 2.656L33.1707 3.504C33.8587 2.896 34.8827 2.512 35.9707 2.512C37.5387 2.512 38.3547 3.296 38.3547 4.736V5.248H35.6827C33.2667 5.248 32.4347 6.336 32.4347 7.632C32.4347 9.088 33.6027 10.08 35.5067 10.08C36.8987 10.08 37.8907 9.552 38.4027 8.688V10H39.4907V4.784C39.4907 2.608 38.2587 1.52 36.0827 1.52ZM35.6827 9.184C34.3387 9.184 33.5547 8.576 33.5547 7.6C33.5547 6.736 34.0827 6.096 35.7147 6.096H38.3547V7.472C37.9067 8.576 36.9627 9.184 35.6827 9.184ZM53.0722 1.52C51.5522 1.52 50.3522 2.208 49.7442 3.296C49.2322 2.112 48.1442 1.52 46.7522 1.52C45.3442 1.52 44.2562 2.112 43.6642 3.12V1.584H42.5762V10H43.7122V5.584C43.7122 3.664 44.8162 2.544 46.5282 2.544C48.0642 2.544 48.9602 3.456 48.9602 5.232V10H50.0962V5.584C50.0962 3.664 51.1842 2.544 52.9122 2.544C54.4322 2.544 55.3282 3.456 55.3282 5.232V10H56.4642V5.12C56.4642 2.704 55.1202 1.52 53.0722 1.52ZM62.9375 6.89844H62.6406C62.2812 6.89844 62.0391 6.99479 61.9141 7.1875C61.7943 7.375 61.7344 7.59375 61.7344 7.84375C61.7344 8.14062 61.7734 8.46094 61.8516 8.80469L61.9844 9.375C62.0729 9.74479 62.1172 10.0964 62.1172 10.4297C62.1172 10.9245 61.9427 11.3203 61.5938 11.6172C61.25 11.9141 60.8359 12.0625 60.3516 12.0625H59.4844V12.0547H58.9609V0.898438H59.4844V0.875H60.3516C60.8359 0.875 61.25 1.02604 61.5938 1.32812C61.9427 1.625 62.1172 2.01823 62.1172 2.50781C62.1172 2.84115 62.0729 3.19531 61.9844 3.57031L61.8516 4.14062C61.7734 4.47917 61.7344 4.79688 61.7344 5.09375C61.7344 5.34896 61.7943 5.57031 61.9141 5.75781C62.0391 5.94531 62.2812 6.03906 62.6406 6.03906H62.9375V6.89844ZM60.9297 1.98438C60.763 1.82292 60.5781 1.74219 60.375 1.74219H59.8672V11.2031H60.375C60.5781 11.2031 60.7604 11.1198 60.9219 10.9531C61.0885 10.7917 61.1719 10.5521 61.1719 10.2344C61.1719 10.1354 61.1615 10.0417 61.1406 9.95312L61.0781 9.6875L60.9609 9.01562C60.8724 8.51562 60.8281 8.17969 60.8281 8.00781C60.8281 7.71615 60.9167 7.42448 61.0938 7.13281C61.276 6.83594 61.5729 6.61458 61.9844 6.46875C61.5729 6.32812 61.276 6.11198 61.0938 5.82031C60.9167 5.52344 60.8281 5.22917 60.8281 4.9375C60.8281 4.76042 60.8724 4.42448 60.9609 3.92969L61.0781 3.25781L61.1406 2.99219C61.1615 2.91406 61.1719 2.82031 61.1719 2.71094C61.1719 2.38802 61.0911 2.14583 60.9297 1.98438Z" fill="#510EA7"/> </svg>