<svg width="22" height="23" viewBox="0 0 22 23" fill="none" xmlns="http://www.w3.org/2000/svg">
<path d="M10.8772 0.799805V12.2114M10.8772 12.2114L6.98828 8.15728M10.8772 12.2114L14.7661 8.15728" stroke="#101047" stroke-opacity="0.7" stroke-linecap="round" stroke-linejoin="round"/>
<path d="M21 14.5083V21.4324C21 21.6948 20.8829 21.9464 20.6746 22.1319C20.4662 22.3174 20.1836 22.4216 19.8889 22.4216H2.11111C1.81643 22.4216 1.53381 22.3174 1.32544 22.1319C1.11706 21.9464 1 21.6948 1 21.4324V14.5083M21 14.5083H15.4444C15.4444 15.5577 14.9762 16.564 14.1427 17.3061C13.3092 18.0481 12.1787 18.4649 11 18.4649C9.82126 18.4649 8.6908 18.0481 7.8573 17.3061C7.02381 16.564 6.55556 15.5577 6.55556 14.5083H1M21 14.5083L17.9222 6.27847C17.8477 6.082 17.7057 5.91135 17.5163 5.79065C17.3268 5.66995 17.0996 5.6053 16.8667 5.60584H14.8889M1 14.5083L4.02222 6.27847C4.09953 6.07373 4.25 5.89715 4.45063 5.77569C4.65126 5.65423 4.89104 5.59458 5.13333 5.60584H6.55556" stroke="#101047" stroke-opacity="0.7" stroke-linecap="round" stroke-linejoin="round"/>
</svg>
