<svg width="23" height="23" viewBox="0 0 23 23" fill="none" xmlns="http://www.w3.org/2000/svg">
<path d="M11.5 22C17.299 22 22 17.299 22 11.5C22 5.70101 17.299 1 11.5 1C5.70101 1 1 5.70101 1 11.5C1 17.299 5.70101 22 11.5 22Z" stroke="#101047" stroke-opacity="0.7" stroke-linecap="round" stroke-linejoin="round"/>
<path d="M11.3211 16.2445C13.6481 16.2445 14.7141 15.1005 14.7141 13.7615C14.7141 10.4465 9.11108 11.9545 9.11108 9.4585C9.11108 8.5485 9.85208 7.8075 11.5161 7.8075C12.3221 7.8075 13.2321 8.0545 14.0121 8.5615L14.3371 7.7945C13.6091 7.2875 12.5431 6.9885 11.5161 6.9885C9.20208 6.9885 8.16208 8.1455 8.16208 9.4845C8.16208 12.8515 13.7651 11.3175 13.7651 13.8135C13.7651 14.7105 13.0241 15.4255 11.3211 15.4255C10.1251 15.4255 8.96808 14.9575 8.31808 14.3205L7.94108 15.0615C8.61708 15.7635 9.95608 16.2445 11.3211 16.2445Z" fill="#101047" fill-opacity="0.7"/>
</svg>
