<svg width="25" height="25" viewBox="0 0 25 25" fill="none" xmlns="http://www.w3.org/2000/svg">
<path fill-rule="evenodd" clip-rule="evenodd" d="M12.8127 1.56603C12.8795 1.87728 12.9538 2.16381 12.9777 2.20262C13.0017 2.24143 13.2926 2.30723 13.6242 2.34888C13.9558 2.39047 14.3231 2.44167 14.4405 2.4626C14.6454 2.4992 14.6661 2.47784 14.9615 1.92413C15.217 1.4454 15.2954 1.35127 15.4238 1.36957C15.5686 1.39022 15.5796 1.43501 15.5986 2.0773L15.6188 2.76288L16.0608 2.9231C16.3039 3.01118 16.6528 3.1588 16.8362 3.25108L17.1695 3.41892L17.607 2.92602C18.0113 2.47043 18.0575 2.43896 18.2159 2.51123C18.3102 2.55424 18.3873 2.60829 18.3873 2.63143C18.3873 2.6545 18.3078 2.92972 18.2106 3.24303C18.1134 3.55635 18.0334 3.83284 18.0328 3.85748C18.0319 3.89415 18.6681 4.40614 19.2427 4.83117C19.3515 4.91164 19.442 4.87667 19.9266 4.56678C20.4772 4.21466 20.4871 4.21145 20.622 4.34597C20.757 4.48055 20.7544 4.48959 20.4265 5.02172C20.0611 5.61453 20.0373 5.70674 20.2126 5.85122C20.2779 5.90491 20.5038 6.18198 20.7145 6.46688C20.9253 6.75171 21.1199 6.97145 21.147 6.95508C21.1741 6.9387 21.4568 6.84549 21.7753 6.74786L22.3543 6.57041L22.4489 6.74744C22.5397 6.91727 22.5234 6.94269 22.0503 7.37L21.557 7.81555L21.7836 8.30795C21.9083 8.57882 22.0545 8.92788 22.1084 9.08361L22.2067 9.36687L22.8829 9.34159L23.5592 9.31631L23.5954 9.50608C23.6363 9.72035 23.5823 9.7667 22.9138 10.0909L22.4979 10.2926L22.5494 10.7198C22.5778 10.9548 22.621 11.3374 22.6454 11.57L22.6897 11.9931L23.0808 12.0902C24.0508 12.3312 24.0157 12.3149 23.9918 12.5149C23.9714 12.6856 23.9199 12.7118 23.3297 12.8506L22.6897 13.0013L22.6374 13.5339C22.6086 13.8269 22.5562 14.2041 22.5209 14.3723L22.4567 14.6781L22.9643 14.9324C23.615 15.2584 23.6366 15.2779 23.5944 15.4986L23.5592 15.6837L22.8829 15.6584L22.2067 15.6331L22.1084 15.9164C22.0545 16.0721 21.9083 16.4212 21.7836 16.6921L21.557 17.1845L22.0503 17.63C22.5236 18.0575 22.5397 18.0827 22.4488 18.2528L22.3541 18.43L21.8108 18.261C21.5119 18.168 21.2142 18.0914 21.1492 18.0909C21.0842 18.0903 20.8879 18.2901 20.7131 18.5348C20.5383 18.7796 20.3276 19.0409 20.2447 19.1155C20.1618 19.1902 20.094 19.2931 20.094 19.3445C20.094 19.3957 20.2422 19.6821 20.4233 19.9808C20.7455 20.5122 20.7498 20.5268 20.6189 20.6572C20.4881 20.7875 20.4726 20.7824 19.9266 20.4332C19.442 20.1233 19.3515 20.0884 19.2427 20.1688C18.6681 20.5939 18.0319 21.1058 18.0328 21.1425C18.0334 21.1672 18.1134 21.4437 18.2106 21.757C18.3078 22.0703 18.3873 22.3455 18.3873 22.3686C18.3873 22.3917 18.3092 22.4462 18.2138 22.4898C18.0526 22.5633 18.0092 22.5338 17.6035 22.0757L17.1668 21.5824L16.8348 21.7496C16.6522 21.8415 16.3039 21.9888 16.0608 22.0769L15.6188 22.2371L15.5986 22.9227C15.5796 23.565 15.5686 23.6098 15.4238 23.6304C15.2954 23.6487 15.217 23.5546 14.9615 23.0759C14.6661 22.5222 14.6454 22.5008 14.4405 22.5374C14.3231 22.5583 13.9558 22.6095 13.6242 22.6511C13.2926 22.6928 13.0017 22.7586 12.9777 22.7974C12.9538 22.8362 12.8795 23.1227 12.8127 23.434C12.6948 23.9833 12.6851 24 12.4849 24C12.2846 24 12.2749 23.9833 12.157 23.434C12.0902 23.1227 12.0159 22.8362 11.992 22.7974C11.968 22.7586 11.6771 22.6928 11.3455 22.6511C11.0139 22.6095 10.6466 22.5583 10.5292 22.5374C10.3243 22.5008 10.3037 22.5222 10.0082 23.0759C9.75274 23.5546 9.6743 23.6487 9.54594 23.6304C9.40115 23.6098 9.39013 23.565 9.37114 22.9227L9.35095 22.2371L8.9089 22.0769C8.66584 21.9888 8.31752 21.8415 8.1349 21.7496L7.80294 21.5824L7.36623 22.0757C6.96053 22.5338 6.91715 22.5633 6.75594 22.4898C6.6605 22.4462 6.58242 22.3917 6.58242 22.3686C6.58242 22.3455 6.66193 22.0703 6.75914 21.757C6.85635 21.4437 6.93635 21.1672 6.93692 21.1425C6.93778 21.1061 6.3343 20.62 5.73332 20.173C5.6327 20.0982 5.52631 20.139 5.04935 20.4352C4.49509 20.7796 4.48201 20.7836 4.34767 20.6519C4.21284 20.5196 4.2159 20.5095 4.5522 19.9637C4.94105 19.3328 4.96302 19.4597 4.31582 18.5983C4.10568 18.3186 3.88167 18.0903 3.81802 18.0909C3.75437 18.0914 3.45783 18.168 3.15894 18.261L2.61563 18.43L2.52091 18.2528C2.43002 18.0827 2.44603 18.0576 2.91182 17.6369L3.39745 17.1983L3.11336 16.5225C2.95705 16.1509 2.81496 15.7987 2.79754 15.7399C2.77158 15.6523 2.64287 15.6375 2.07851 15.658C1.41985 15.6818 1.39113 15.6766 1.39113 15.5334C1.39113 15.4512 1.386 15.3599 1.37975 15.3305C1.37349 15.3011 1.60553 15.1481 1.89532 14.9903L2.42227 14.7037L2.40435 14.3495C2.39447 14.1547 2.36247 13.7717 2.33324 13.4983L2.28005 13.0012L1.64002 12.8502C1.02261 12.7045 1 12.6921 1 12.5C1 12.3079 1.02261 12.2955 1.64002 12.1498L2.28005 11.9988L2.33324 11.5017C2.36247 11.2283 2.39447 10.8453 2.40435 10.6505L2.42227 10.2963L1.89532 10.0097C1.60553 9.85194 1.37349 9.69884 1.37975 9.6695C1.386 9.64017 1.39113 9.54767 1.39113 9.464C1.39113 9.31674 1.41289 9.31304 2.07261 9.34758C2.65702 9.37819 2.75964 9.36687 2.79292 9.26825C2.81425 9.20502 2.95897 8.84912 3.11456 8.47749L3.39745 7.80173L2.91182 7.3631C2.44617 6.94262 2.4301 6.9172 2.52077 6.74744L2.61542 6.57041L3.19442 6.74786C3.51287 6.84549 3.79562 6.9387 3.82271 6.95508C3.84981 6.97145 4.04445 6.75171 4.25523 6.46688C4.46594 6.18198 4.69179 5.90491 4.75708 5.85122C4.93237 5.70674 4.90862 5.61453 4.54324 5.02172C4.21533 4.48959 4.2127 4.48055 4.34767 4.34597C4.48265 4.21145 4.49253 4.21466 5.0431 4.56678C5.52766 4.87667 5.61819 4.91164 5.72699 4.83117C6.30095 4.40663 6.93785 3.89415 6.93706 3.85748C6.93657 3.83284 6.85656 3.56311 6.75928 3.25813C6.662 2.95308 6.58242 2.67786 6.58242 2.64646C6.58242 2.61513 6.65951 2.55424 6.7538 2.51123C6.91217 2.43896 6.9584 2.47043 7.36268 2.92602L7.80024 3.41892L8.13355 3.25108C8.31695 3.1588 8.66584 3.01118 8.9089 2.9231L9.35095 2.76288L9.37114 2.0773C9.39013 1.43501 9.40115 1.39022 9.54594 1.36957C9.6743 1.35127 9.75274 1.4454 10.0082 1.92413C10.3037 2.47784 10.3243 2.4992 10.5292 2.4626C10.6466 2.44167 11.0139 2.39047 11.3455 2.34888C11.6771 2.30723 11.968 2.24143 11.992 2.20262C12.0159 2.16381 12.0902 1.87728 12.157 1.56603C12.2749 1.01673 12.2846 1 12.4849 1C12.6851 1 12.6948 1.01673 12.8127 1.56603ZM10.9213 4.35138C10.1807 4.4997 9.95406 4.62496 9.76106 4.99267C9.54736 5.39969 9.63113 5.6371 10.5402 7.20046C11.0052 8.00033 11.673 9.15987 12.0242 9.77717C12.616 10.8176 12.6814 10.9047 12.92 10.9702C13.1797 11.0413 13.539 11.2781 13.644 11.4471C13.6889 11.5194 14.3378 11.5387 16.7267 11.5387C19.4058 11.5387 19.7812 11.5251 20.0028 11.4198C20.3053 11.276 20.5201 10.9465 20.5204 10.6255C20.5211 10.0958 19.9522 8.75641 19.3208 7.80067C18.6575 6.79678 17.2957 5.61453 16.1285 5.02949C14.6463 4.28651 12.5858 4.0182 10.9213 4.35138ZM6.97355 6.44872C6.67053 6.55368 6.29818 6.92745 5.76909 7.65789C3.77187 10.4152 3.67729 14.1374 5.53186 16.9973C6.03769 17.7775 6.62153 18.4176 6.9456 18.5474C7.29405 18.687 7.68134 18.6085 7.94183 18.3456C8.03506 18.2514 8.48407 17.5225 8.93955 16.7257C9.39504 15.929 10.0351 14.8125 10.3618 14.2446L10.9559 13.2121L10.9514 12.5C10.9486 12.057 10.9115 11.7206 10.8532 11.6099C10.7682 11.4484 9.07616 8.5116 8.30579 7.18857C7.88195 6.46068 7.51977 6.25952 6.97355 6.44872ZM12.0725 12.0391C11.6449 12.438 11.903 13.1053 12.4849 13.1053C12.8957 13.1053 13.1917 12.7409 13.0949 12.3545C13.0274 12.0851 12.7748 11.8947 12.4849 11.8947C12.3243 11.8947 12.1689 11.9491 12.0725 12.0391ZM13.644 13.5529C13.539 13.7219 13.1797 13.9587 12.92 14.0298C12.6813 14.0953 12.6162 14.1821 12.025 15.2228C11.6742 15.8401 11.0064 16.9997 10.5409 17.7998C9.63113 19.3633 9.54736 19.6003 9.76106 20.0073C9.9569 20.3805 10.1804 20.4994 10.9762 20.6537C14.571 21.3512 18.2404 19.5161 19.9072 16.1873C20.2307 15.5413 20.5208 14.6838 20.5204 14.3745C20.5201 14.0535 20.3053 13.724 20.0028 13.5802C19.7812 13.4749 19.4058 13.4613 16.7267 13.4613C14.3378 13.4613 13.6889 13.4806 13.644 13.5529Z" fill="#101047" fill-opacity="0.7" stroke="white" stroke-width="0.4"/>
</svg>
