<svg width="25" height="25" viewBox="0 0 25 25" fill="none" xmlns="http://www.w3.org/2000/svg">
<path d="M24 9.30595C24.0053 7.72905 23.5495 6.18523 22.689 4.86579L17.445 10.1282C17.296 10.3035 17.1136 10.447 16.9084 10.5504C16.7033 10.6539 16.4796 10.715 16.2505 10.7304C16.0215 10.7457 15.7917 10.7148 15.5746 10.6397C15.3576 10.5645 15.1578 10.4465 14.9869 10.2927C14.8336 10.1212 14.716 9.92065 14.6411 9.70288C14.5662 9.4851 14.5355 9.25449 14.5508 9.02462C14.5661 8.79475 14.627 8.57026 14.7301 8.3644C14.8331 8.15853 14.9762 7.97543 15.1508 7.8259L20.3947 2.39903C19.0189 1.46075 17.3876 0.972492 15.7244 1.0012C13.5322 1.00986 11.4323 1.8876 9.88218 3.44317C8.33207 4.99874 7.45741 7.10606 7.44878 9.30595C7.44485 10.0259 7.52738 10.7437 7.69459 11.4438L2.20484 16.9529C1.43339 17.7271 1 18.7771 1 19.8719C1 20.9667 1.43339 22.0167 2.20484 22.7909C2.97629 23.5651 4.0226 24 5.11359 24C6.20458 24 7.25089 23.5651 8.02233 22.7909L13.5121 17.2818C14.2097 17.4496 14.925 17.5324 15.6424 17.5285C16.7321 17.5504 17.8153 17.3538 18.8284 16.9504C19.8414 16.547 20.7642 15.9448 21.5424 15.1791C22.3207 14.4134 22.939 13.4995 23.361 12.491C23.7829 11.4826 24.0002 10.3997 24 9.30595ZM15.7244 15.884C15.1421 15.8828 14.563 15.7997 14.0037 15.6373L13.1024 15.3906L12.4469 16.0484L6.95716 21.5575C6.73582 21.7921 6.46899 21.9788 6.17308 22.1061C5.87717 22.2334 5.55843 22.2985 5.23649 22.2976C4.91336 22.3068 4.5921 22.2454 4.29498 22.1176C3.99786 21.9898 3.73199 21.7987 3.51583 21.5575C3.2828 21.3348 3.09728 21.0669 2.97052 20.7701C2.84376 20.4733 2.7784 20.1537 2.7784 19.8308C2.7784 19.5079 2.84376 19.1883 2.97052 18.8915C3.09728 18.5947 3.2828 18.3268 3.51583 18.1041L9.00557 12.595L9.66106 11.9372L9.41525 11.0327C9.25339 10.4714 9.17065 9.89023 9.16945 9.30595C9.17428 7.55873 9.84912 5.88041 11.054 4.61911C11.6521 3.98125 12.3766 3.47612 13.181 3.13624C13.9854 2.79636 14.8517 2.62927 15.7244 2.6457C16.3335 2.64684 16.9398 2.7298 17.527 2.89238L13.9218 6.51029C13.5903 6.816 13.3227 7.18488 13.1347 7.59541C12.9467 8.00595 12.8421 8.44993 12.8268 8.90148C12.8116 9.35303 12.886 9.8031 13.0459 10.2255C13.2057 10.6478 13.4478 11.0341 13.7579 11.3616C14.0843 11.6728 14.4691 11.9157 14.89 12.0761C15.3109 12.2365 15.7594 12.3113 16.2094 12.296C16.6593 12.2806 17.1017 12.1756 17.5108 11.987C17.9199 11.7983 18.2875 11.5298 18.5921 11.1971L22.1974 7.57922C22.3649 8.11101 22.4479 8.666 22.4432 9.22373C22.4383 10.971 21.7635 12.6493 20.5586 13.9106C19.2635 15.173 17.5299 15.8807 15.7244 15.884Z" fill="#58587E" stroke="white" stroke-width="0.5"/>
</svg>
